<svg id="Layer_1" data-name="Layer 1" xmlns="http://www.w3.org/2000/svg" viewBox="0 0 50 50"><defs><style>.cls-1{fill:#6417ff;}.cls-2{fill:#4f4f4f;}.cls-3{fill:#6e6d75;}</style></defs><title>exporArtboard 2</title><rect class="cls-1" width="50" height="50"/><rect class="cls-2" width="50" height="50"/><rect class="cls-2" width="2.78" height="2.73"/><ellipse class="cls-3" cx="1.38" cy="1.37" rx="0.88" ry="0.87"/><rect class="cls-2" x="2.78" width="2.78" height="2.73"/><ellipse class="cls-3" cx="4.17" cy="1.37" rx="0.88" ry="0.87"/><rect class="cls-2" x="5.55" width="2.78" height="2.73"/><ellipse class="cls-3" cx="6.95" cy="1.37" rx="0.88" ry="0.87"/><rect class="cls-2" x="8.33" width="2.78" height="2.73"/><ellipse class="cls-3" cx="9.72" cy="1.37" rx="0.88" ry="0.87"/><rect class="cls-2" x="11.12" width="2.78" height="2.73"/><ellipse class="cls-3" cx="12.5" cy="1.37" rx="0.88" ry="0.87"/><rect class="cls-2" x="13.88" width="2.78" height="2.73"/><ellipse class="cls-3" cx="15.28" cy="1.37" rx="0.88" ry="0.87"/><rect class="cls-2" x="16.67" width="2.78" height="2.73"/><ellipse class="cls-3" cx="18.05" cy="1.37" rx="0.88" ry="0.87"/><rect class="cls-2" x="19.45" width="2.78" height="2.73"/><ellipse class="cls-3" cx="20.83" cy="1.37" rx="0.88" ry="0.87"/><rect class="cls-2" x="22.22" width="2.78" height="2.73"/><ellipse class="cls-3" cx="23.62" cy="1.37" rx="0.88" ry="0.87"/><rect class="cls-2" x="25" width="2.78" height="2.73"/><ellipse class="cls-3" cx="26.38" cy="1.37" rx="0.88" ry="0.87"/><rect class="cls-2" x="27.78" width="2.78" height="2.73"/><ellipse class="cls-3" cx="29.17" cy="1.37" rx="0.88" ry="0.87"/><rect class="cls-2" x="30.55" width="2.78" height="2.73"/><ellipse class="cls-3" cx="31.95" cy="1.37" rx="0.88" ry="0.87"/><rect class="cls-2" x="33.33" width="2.78" height="2.73"/><ellipse class="cls-3" cx="34.72" cy="1.37" rx="0.88" ry="0.87"/><rect class="cls-2" x="36.12" width="2.78" height="2.73"/><ellipse class="cls-3" cx="37.5" cy="1.37" rx="0.88" ry="0.87"/><rect class="cls-2" x="38.88" width="2.78" height="2.73"/><ellipse class="cls-3" cx="40.28" cy="1.37" rx="0.88" ry="0.87"/><rect class="cls-2" x="41.67" width="2.78" height="2.73"/><ellipse class="cls-3" cx="43.05" cy="1.37" rx="0.88" ry="0.87"/><rect class="cls-2" x="44.45" width="2.78" height="2.73"/><ellipse class="cls-3" cx="45.83" cy="1.37" rx="0.88" ry="0.87"/><rect class="cls-2" x="47.22" width="2.78" height="2.73"/><ellipse class="cls-3" cx="48.62" cy="1.37" rx="0.88" ry="0.87"/><rect class="cls-2" y="2.78" width="2.78" height="2.73"/><ellipse class="cls-3" cx="1.38" cy="4.15" rx="0.88" ry="0.87"/><rect class="cls-2" x="2.78" y="2.78" width="2.78" height="2.73"/><ellipse class="cls-3" cx="4.17" cy="4.15" rx="0.88" ry="0.87"/><rect class="cls-2" x="5.55" y="2.78" width="2.78" height="2.73"/><ellipse class="cls-3" cx="6.95" cy="4.15" rx="0.88" ry="0.87"/><rect class="cls-2" x="8.33" y="2.78" width="2.78" height="2.73"/><ellipse class="cls-3" cx="9.72" cy="4.15" rx="0.88" ry="0.87"/><rect class="cls-2" x="11.12" y="2.78" width="2.78" height="2.73"/><ellipse class="cls-3" cx="12.5" cy="4.15" rx="0.88" ry="0.87"/><rect class="cls-2" x="13.88" y="2.78" width="2.78" height="2.73"/><ellipse class="cls-3" cx="15.28" cy="4.15" rx="0.88" ry="0.87"/><rect class="cls-2" x="16.67" y="2.78" width="2.78" height="2.73"/><ellipse class="cls-3" cx="18.05" cy="4.15" rx="0.88" ry="0.87"/><rect class="cls-2" x="19.45" y="2.78" width="2.78" height="2.73"/><ellipse class="cls-3" cx="20.83" cy="4.15" rx="0.88" ry="0.87"/><rect class="cls-2" x="22.22" y="2.78" width="2.78" height="2.73"/><ellipse class="cls-3" cx="23.62" cy="4.15" rx="0.88" ry="0.87"/><rect class="cls-2" x="25" y="2.78" width="2.78" height="2.73"/><ellipse class="cls-3" cx="26.38" cy="4.15" rx="0.88" ry="0.87"/><rect class="cls-2" x="27.78" y="2.78" width="2.78" height="2.73"/><ellipse class="cls-3" cx="29.17" cy="4.15" rx="0.88" ry="0.87"/><rect class="cls-2" x="30.55" y="2.78" width="2.78" height="2.73"/><ellipse class="cls-3" cx="31.95" cy="4.15" rx="0.88" ry="0.87"/><rect class="cls-2" x="33.33" y="2.78" width="2.78" height="2.73"/><ellipse class="cls-3" cx="34.72" cy="4.15" rx="0.88" ry="0.87"/><rect class="cls-2" x="36.12" y="2.78" width="2.78" height="2.73"/><ellipse class="cls-3" cx="37.5" cy="4.15" rx="0.88" ry="0.87"/><rect class="cls-2" x="38.88" y="2.78" width="2.78" height="2.73"/><ellipse class="cls-3" cx="40.28" cy="4.15" rx="0.88" ry="0.87"/><rect class="cls-2" x="41.67" y="2.78" width="2.78" height="2.73"/><ellipse class="cls-3" cx="43.05" cy="4.15" rx="0.88" ry="0.87"/><rect class="cls-2" x="44.45" y="2.78" width="2.78" height="2.73"/><ellipse class="cls-3" cx="45.83" cy="4.15" rx="0.88" ry="0.87"/><rect class="cls-2" x="47.22" y="2.78" width="2.78" height="2.73"/><ellipse class="cls-3" cx="48.62" cy="4.15" rx="0.88" ry="0.87"/><rect class="cls-2" y="5.57" width="2.78" height="2.73"/><ellipse class="cls-3" cx="1.38" cy="6.92" rx="0.88" ry="0.87"/><rect class="cls-2" x="2.78" y="5.57" width="2.78" height="2.73"/><ellipse class="cls-3" cx="4.17" cy="6.92" rx="0.88" ry="0.87"/><rect class="cls-2" x="5.55" y="5.57" width="2.78" height="2.73"/><ellipse class="cls-3" cx="6.95" cy="6.92" rx="0.88" ry="0.87"/><rect class="cls-2" x="8.33" y="5.57" width="2.78" height="2.73"/><ellipse class="cls-3" cx="9.72" cy="6.92" rx="0.88" ry="0.87"/><rect class="cls-2" x="11.12" y="5.57" width="2.78" height="2.73"/><ellipse class="cls-3" cx="12.5" cy="6.92" rx="0.88" ry="0.87"/><rect class="cls-2" x="13.88" y="5.57" width="2.78" height="2.73"/><ellipse class="cls-3" cx="15.28" cy="6.92" rx="0.88" ry="0.87"/><rect class="cls-2" x="16.67" y="5.57" width="2.78" height="2.73"/><ellipse class="cls-3" cx="18.05" cy="6.92" rx="0.88" ry="0.87"/><rect class="cls-2" x="19.45" y="5.57" width="2.78" height="2.73"/><ellipse class="cls-3" cx="20.83" cy="6.92" rx="0.88" ry="0.87"/><rect class="cls-2" x="22.22" y="5.57" width="2.78" height="2.73"/><ellipse class="cls-3" cx="23.62" cy="6.92" rx="0.88" ry="0.87"/><rect class="cls-2" x="25" y="5.57" width="2.78" height="2.73"/><ellipse class="cls-3" cx="26.38" cy="6.92" rx="0.88" ry="0.87"/><rect class="cls-2" x="27.78" y="5.57" width="2.78" height="2.73"/><ellipse class="cls-3" cx="29.17" cy="6.92" rx="0.88" ry="0.87"/><rect class="cls-2" x="30.55" y="5.57" width="2.78" height="2.73"/><ellipse class="cls-3" cx="31.95" cy="6.92" rx="0.88" ry="0.87"/><rect class="cls-2" x="33.33" y="5.57" width="2.78" height="2.73"/><ellipse class="cls-3" cx="34.72" cy="6.92" rx="0.88" ry="0.87"/><rect class="cls-2" x="36.12" y="5.57" width="2.78" height="2.73"/><ellipse class="cls-3" cx="37.5" cy="6.92" rx="0.88" ry="0.87"/><rect class="cls-2" x="38.88" y="5.57" width="2.78" height="2.73"/><ellipse class="cls-3" cx="40.28" cy="6.92" rx="0.88" ry="0.87"/><rect class="cls-2" x="41.67" y="5.57" width="2.78" height="2.73"/><ellipse class="cls-3" cx="43.05" cy="6.92" rx="0.88" ry="0.87"/><rect class="cls-2" x="44.45" y="5.57" width="2.78" height="2.73"/><ellipse class="cls-3" cx="45.83" cy="6.92" rx="0.88" ry="0.87"/><rect class="cls-2" x="47.22" y="5.57" width="2.78" height="2.73"/><ellipse class="cls-3" cx="48.62" cy="6.92" rx="0.88" ry="0.87"/><rect class="cls-2" y="8.35" width="2.78" height="2.73"/><ellipse class="cls-3" cx="1.38" cy="9.7" rx="0.88" ry="0.87"/><rect class="cls-2" x="2.78" y="8.35" width="2.78" height="2.73"/><ellipse class="cls-3" cx="4.17" cy="9.7" rx="0.88" ry="0.87"/><rect class="cls-2" x="5.55" y="8.35" width="2.78" height="2.73"/><ellipse class="cls-3" cx="6.95" cy="9.7" rx="0.88" ry="0.87"/><rect class="cls-2" x="8.33" y="8.35" width="2.78" height="2.73"/><ellipse class="cls-3" cx="9.72" cy="9.7" rx="0.88" ry="0.87"/><rect class="cls-2" x="11.12" y="8.35" width="2.78" height="2.73"/><ellipse class="cls-3" cx="12.5" cy="9.7" rx="0.88" ry="0.87"/><rect class="cls-2" x="13.88" y="8.35" width="2.78" height="2.73"/><ellipse class="cls-3" cx="15.28" cy="9.7" rx="0.88" ry="0.87"/><rect class="cls-2" x="16.67" y="8.35" width="2.78" height="2.73"/><ellipse class="cls-3" cx="18.05" cy="9.7" rx="0.88" ry="0.87"/><rect class="cls-2" x="19.45" y="8.35" width="2.78" height="2.73"/><ellipse class="cls-3" cx="20.83" cy="9.7" rx="0.88" ry="0.87"/><rect class="cls-2" x="22.22" y="8.35" width="2.78" height="2.73"/><ellipse class="cls-3" cx="23.62" cy="9.7" rx="0.88" ry="0.87"/><rect class="cls-2" x="25" y="8.35" width="2.78" height="2.73"/><ellipse class="cls-3" cx="26.38" cy="9.7" rx="0.88" ry="0.87"/><rect class="cls-2" x="27.78" y="8.35" width="2.78" height="2.73"/><ellipse class="cls-3" cx="29.17" cy="9.7" rx="0.88" ry="0.87"/><rect class="cls-2" x="30.55" y="8.35" width="2.78" height="2.73"/><ellipse class="cls-3" cx="31.95" cy="9.7" rx="0.88" ry="0.87"/><rect class="cls-2" x="33.33" y="8.35" width="2.78" height="2.73"/><ellipse class="cls-3" cx="34.72" cy="9.7" rx="0.88" ry="0.87"/><rect class="cls-2" x="36.12" y="8.35" width="2.78" height="2.73"/><ellipse class="cls-3" cx="37.5" cy="9.7" rx="0.88" ry="0.87"/><rect class="cls-2" x="38.88" y="8.35" width="2.78" height="2.73"/><ellipse class="cls-3" cx="40.28" cy="9.7" rx="0.88" ry="0.87"/><rect class="cls-2" x="41.67" y="8.35" width="2.78" height="2.73"/><ellipse class="cls-3" cx="43.05" cy="9.7" rx="0.88" ry="0.87"/><rect class="cls-2" x="44.45" y="8.35" width="2.78" height="2.73"/><ellipse class="cls-3" cx="45.83" cy="9.7" rx="0.88" ry="0.87"/><rect class="cls-2" x="47.22" y="8.35" width="2.78" height="2.73"/><ellipse class="cls-3" cx="48.62" cy="9.7" rx="0.88" ry="0.87"/><rect class="cls-2" y="11.12" width="2.78" height="2.73"/><ellipse class="cls-3" cx="1.38" cy="12.48" rx="0.88" ry="0.87"/><rect class="cls-2" x="2.78" y="11.12" width="2.78" height="2.73"/><ellipse class="cls-3" cx="4.17" cy="12.48" rx="0.88" ry="0.87"/><rect class="cls-2" x="5.55" y="11.12" width="2.78" height="2.73"/><ellipse class="cls-3" cx="6.95" cy="12.48" rx="0.88" ry="0.87"/><rect class="cls-2" x="8.33" y="11.12" width="2.78" height="2.73"/><ellipse class="cls-3" cx="9.72" cy="12.48" rx="0.88" ry="0.87"/><rect class="cls-2" x="11.12" y="11.12" width="2.78" height="2.73"/><ellipse class="cls-3" cx="12.5" cy="12.48" rx="0.88" ry="0.87"/><rect class="cls-2" x="13.88" y="11.12" width="2.78" height="2.73"/><ellipse class="cls-3" cx="15.28" cy="12.48" rx="0.88" ry="0.87"/><rect class="cls-2" x="16.67" y="11.12" width="2.78" height="2.73"/><ellipse class="cls-3" cx="18.05" cy="12.48" rx="0.88" ry="0.87"/><rect class="cls-2" x="19.45" y="11.12" width="2.78" height="2.73"/><ellipse class="cls-3" cx="20.83" cy="12.48" rx="0.88" ry="0.87"/><rect class="cls-2" x="22.22" y="11.12" width="2.78" height="2.73"/><ellipse class="cls-3" cx="23.62" cy="12.48" rx="0.88" ry="0.87"/><rect class="cls-2" x="25" y="11.12" width="2.78" height="2.73"/><ellipse class="cls-3" cx="26.38" cy="12.48" rx="0.88" ry="0.87"/><rect class="cls-2" x="27.78" y="11.12" width="2.78" height="2.73"/><ellipse class="cls-3" cx="29.17" cy="12.48" rx="0.88" ry="0.87"/><rect class="cls-2" x="30.55" y="11.12" width="2.78" height="2.73"/><ellipse class="cls-3" cx="31.95" cy="12.48" rx="0.88" ry="0.87"/><rect class="cls-2" x="33.33" y="11.12" width="2.78" height="2.73"/><ellipse class="cls-3" cx="34.72" cy="12.48" rx="0.88" ry="0.87"/><rect class="cls-2" x="36.12" y="11.12" width="2.78" height="2.73"/><ellipse class="cls-3" cx="37.5" cy="12.48" rx="0.88" ry="0.87"/><rect class="cls-2" x="38.88" y="11.12" width="2.78" height="2.73"/><ellipse class="cls-3" cx="40.28" cy="12.48" rx="0.88" ry="0.87"/><rect class="cls-2" x="41.67" y="11.12" width="2.78" height="2.73"/><ellipse class="cls-3" cx="43.05" cy="12.48" rx="0.88" ry="0.87"/><rect class="cls-2" x="44.45" y="11.12" width="2.78" height="2.73"/><ellipse class="cls-3" cx="45.83" cy="12.48" rx="0.88" ry="0.87"/><rect class="cls-2" x="47.22" y="11.12" width="2.78" height="2.73"/><ellipse class="cls-3" cx="48.62" cy="12.48" rx="0.88" ry="0.87"/><rect class="cls-2" y="13.9" width="2.78" height="2.73"/><ellipse class="cls-3" cx="1.38" cy="15.27" rx="0.88" ry="0.87"/><rect class="cls-2" x="2.78" y="13.9" width="2.78" height="2.73"/><ellipse class="cls-3" cx="4.17" cy="15.27" rx="0.88" ry="0.87"/><rect class="cls-2" x="5.55" y="13.9" width="2.78" height="2.73"/><ellipse class="cls-3" cx="6.95" cy="15.27" rx="0.88" ry="0.87"/><rect class="cls-2" x="8.33" y="13.9" width="2.78" height="2.73"/><ellipse class="cls-3" cx="9.72" cy="15.27" rx="0.88" ry="0.87"/><rect class="cls-2" x="11.12" y="13.9" width="2.78" height="2.73"/><ellipse class="cls-3" cx="12.5" cy="15.27" rx="0.88" ry="0.87"/><rect class="cls-2" x="13.88" y="13.9" width="2.78" height="2.73"/><ellipse class="cls-3" cx="15.28" cy="15.27" rx="0.88" ry="0.87"/><rect class="cls-2" x="16.67" y="13.9" width="2.78" height="2.73"/><ellipse class="cls-3" cx="18.05" cy="15.27" rx="0.88" ry="0.87"/><rect class="cls-2" x="19.45" y="13.9" width="2.78" height="2.73"/><ellipse class="cls-3" cx="20.83" cy="15.27" rx="0.88" ry="0.87"/><rect class="cls-2" x="22.22" y="13.9" width="2.78" height="2.73"/><ellipse class="cls-3" cx="23.62" cy="15.27" rx="0.88" ry="0.87"/><rect class="cls-2" x="25" y="13.9" width="2.78" height="2.73"/><ellipse class="cls-3" cx="26.38" cy="15.27" rx="0.88" ry="0.87"/><rect class="cls-2" x="27.78" y="13.9" width="2.78" height="2.73"/><ellipse class="cls-3" cx="29.17" cy="15.27" rx="0.88" ry="0.87"/><rect class="cls-2" x="30.55" y="13.9" width="2.78" height="2.73"/><ellipse class="cls-3" cx="31.95" cy="15.27" rx="0.88" ry="0.87"/><rect class="cls-2" x="33.33" y="13.9" width="2.78" height="2.73"/><ellipse class="cls-3" cx="34.72" cy="15.27" rx="0.88" ry="0.87"/><rect class="cls-2" x="36.12" y="13.9" width="2.78" height="2.73"/><ellipse class="cls-3" cx="37.5" cy="15.27" rx="0.88" ry="0.87"/><rect class="cls-2" x="38.88" y="13.9" width="2.78" height="2.73"/><ellipse class="cls-3" cx="40.28" cy="15.27" rx="0.88" ry="0.87"/><rect class="cls-2" x="41.67" y="13.9" width="2.78" height="2.73"/><ellipse class="cls-3" cx="43.05" cy="15.27" rx="0.88" ry="0.87"/><rect class="cls-2" x="44.45" y="13.9" width="2.78" height="2.73"/><ellipse class="cls-3" cx="45.83" cy="15.27" rx="0.88" ry="0.87"/><rect class="cls-2" x="47.22" y="13.9" width="2.78" height="2.73"/><ellipse class="cls-3" cx="48.62" cy="15.27" rx="0.88" ry="0.87"/><rect class="cls-2" y="16.68" width="2.78" height="2.73"/><ellipse class="cls-3" cx="1.38" cy="18.05" rx="0.88" ry="0.87"/><rect class="cls-2" x="2.78" y="16.68" width="2.78" height="2.73"/><ellipse class="cls-3" cx="4.17" cy="18.05" rx="0.88" ry="0.87"/><rect class="cls-2" x="5.55" y="16.68" width="2.78" height="2.73"/><ellipse class="cls-3" cx="6.95" cy="18.05" rx="0.88" ry="0.87"/><rect class="cls-2" x="8.33" y="16.68" width="2.78" height="2.73"/><ellipse class="cls-3" cx="9.72" cy="18.05" rx="0.88" ry="0.87"/><rect class="cls-2" x="11.12" y="16.68" width="2.78" height="2.73"/><ellipse class="cls-3" cx="12.5" cy="18.05" rx="0.88" ry="0.87"/><rect class="cls-2" x="13.88" y="16.68" width="2.78" height="2.73"/><ellipse class="cls-3" cx="15.28" cy="18.05" rx="0.88" ry="0.87"/><rect class="cls-2" x="16.67" y="16.68" width="2.78" height="2.73"/><ellipse class="cls-3" cx="18.05" cy="18.05" rx="0.88" ry="0.87"/><rect class="cls-2" x="19.45" y="16.68" width="2.78" height="2.73"/><ellipse class="cls-3" cx="20.83" cy="18.05" rx="0.88" ry="0.87"/><rect class="cls-2" x="22.22" y="16.68" width="2.78" height="2.73"/><ellipse class="cls-3" cx="23.62" cy="18.05" rx="0.88" ry="0.87"/><rect class="cls-2" x="25" y="16.68" width="2.78" height="2.73"/><ellipse class="cls-3" cx="26.38" cy="18.05" rx="0.88" ry="0.87"/><rect class="cls-2" x="27.78" y="16.68" width="2.78" height="2.73"/><ellipse class="cls-3" cx="29.17" cy="18.05" rx="0.88" ry="0.87"/><rect class="cls-2" x="30.55" y="16.68" width="2.78" height="2.73"/><ellipse class="cls-3" cx="31.95" cy="18.05" rx="0.88" ry="0.87"/><rect class="cls-2" x="33.33" y="16.68" width="2.78" height="2.73"/><ellipse class="cls-3" cx="34.72" cy="18.05" rx="0.88" ry="0.87"/><rect class="cls-2" x="36.12" y="16.68" width="2.78" height="2.73"/><ellipse class="cls-3" cx="37.5" cy="18.05" rx="0.88" ry="0.87"/><rect class="cls-2" x="38.88" y="16.68" width="2.78" height="2.73"/><ellipse class="cls-3" cx="40.28" cy="18.05" rx="0.88" ry="0.87"/><rect class="cls-2" x="41.67" y="16.68" width="2.78" height="2.73"/><ellipse class="cls-3" cx="43.05" cy="18.05" rx="0.88" ry="0.87"/><rect class="cls-2" x="44.45" y="16.68" width="2.78" height="2.73"/><ellipse class="cls-3" cx="45.83" cy="18.05" rx="0.88" ry="0.87"/><rect class="cls-2" x="47.22" y="16.68" width="2.78" height="2.73"/><ellipse class="cls-3" cx="48.62" cy="18.05" rx="0.88" ry="0.87"/><rect class="cls-2" y="19.47" width="2.78" height="2.73"/><ellipse class="cls-3" cx="1.38" cy="20.83" rx="0.88" ry="0.87"/><rect class="cls-2" x="2.78" y="19.47" width="2.78" height="2.73"/><ellipse class="cls-3" cx="4.17" cy="20.83" rx="0.88" ry="0.87"/><rect class="cls-2" x="5.55" y="19.47" width="2.78" height="2.73"/><ellipse class="cls-3" cx="6.95" cy="20.83" rx="0.88" ry="0.87"/><rect class="cls-2" x="8.33" y="19.47" width="2.78" height="2.73"/><ellipse class="cls-3" cx="9.72" cy="20.83" rx="0.88" ry="0.87"/><rect class="cls-2" x="11.12" y="19.47" width="2.78" height="2.73"/><ellipse class="cls-3" cx="12.5" cy="20.83" rx="0.88" ry="0.87"/><rect class="cls-2" x="13.88" y="19.47" width="2.78" height="2.73"/><ellipse class="cls-3" cx="15.28" cy="20.83" rx="0.88" ry="0.87"/><rect class="cls-2" x="16.67" y="19.47" width="2.78" height="2.73"/><ellipse class="cls-3" cx="18.05" cy="20.83" rx="0.88" ry="0.87"/><rect class="cls-2" x="19.45" y="19.47" width="2.78" height="2.73"/><ellipse class="cls-3" cx="20.83" cy="20.83" rx="0.88" ry="0.87"/><rect class="cls-2" x="22.22" y="19.47" width="2.78" height="2.73"/><ellipse class="cls-3" cx="23.62" cy="20.83" rx="0.88" ry="0.87"/><rect class="cls-2" x="25" y="19.47" width="2.78" height="2.73"/><ellipse class="cls-3" cx="26.38" cy="20.83" rx="0.88" ry="0.87"/><rect class="cls-2" x="27.78" y="19.47" width="2.78" height="2.73"/><ellipse class="cls-3" cx="29.17" cy="20.83" rx="0.88" ry="0.87"/><rect class="cls-2" x="30.55" y="19.47" width="2.78" height="2.73"/><ellipse class="cls-3" cx="31.95" cy="20.83" rx="0.88" ry="0.87"/><rect class="cls-2" x="33.33" y="19.47" width="2.78" height="2.73"/><ellipse class="cls-3" cx="34.72" cy="20.83" rx="0.88" ry="0.87"/><rect class="cls-2" x="36.12" y="19.47" width="2.78" height="2.73"/><ellipse class="cls-3" cx="37.5" cy="20.83" rx="0.88" ry="0.87"/><rect class="cls-2" x="38.88" y="19.47" width="2.78" height="2.73"/><ellipse class="cls-3" cx="40.28" cy="20.83" rx="0.88" ry="0.87"/><rect class="cls-2" x="41.67" y="19.47" width="2.78" height="2.73"/><ellipse class="cls-3" cx="43.05" cy="20.83" rx="0.88" ry="0.87"/><rect class="cls-2" x="44.45" y="19.47" width="2.78" height="2.73"/><ellipse class="cls-3" cx="45.83" cy="20.83" rx="0.88" ry="0.87"/><rect class="cls-2" x="47.22" y="19.47" width="2.78" height="2.73"/><ellipse class="cls-3" cx="48.62" cy="20.83" rx="0.88" ry="0.87"/><rect class="cls-2" y="22.25" width="2.78" height="2.73"/><ellipse class="cls-3" cx="1.38" cy="23.62" rx="0.88" ry="0.87"/><rect class="cls-2" x="2.78" y="22.25" width="2.78" height="2.73"/><ellipse class="cls-3" cx="4.17" cy="23.62" rx="0.88" ry="0.87"/><rect class="cls-2" x="5.55" y="22.25" width="2.78" height="2.73"/><ellipse class="cls-3" cx="6.95" cy="23.62" rx="0.88" ry="0.87"/><rect class="cls-2" x="8.33" y="22.25" width="2.78" height="2.73"/><ellipse class="cls-3" cx="9.72" cy="23.62" rx="0.88" ry="0.87"/><rect class="cls-2" x="11.12" y="22.25" width="2.78" height="2.73"/><ellipse class="cls-3" cx="12.5" cy="23.62" rx="0.88" ry="0.87"/><rect class="cls-2" x="13.88" y="22.25" width="2.78" height="2.73"/><ellipse class="cls-3" cx="15.28" cy="23.62" rx="0.88" ry="0.87"/><rect class="cls-2" x="16.67" y="22.25" width="2.78" height="2.73"/><ellipse class="cls-3" cx="18.05" cy="23.62" rx="0.88" ry="0.87"/><rect class="cls-2" x="19.45" y="22.25" width="2.78" height="2.73"/><ellipse class="cls-3" cx="20.83" cy="23.62" rx="0.88" ry="0.87"/><rect class="cls-2" x="22.22" y="22.25" width="2.78" height="2.73"/><ellipse class="cls-3" cx="23.62" cy="23.62" rx="0.88" ry="0.87"/><rect class="cls-2" x="25" y="22.25" width="2.78" height="2.73"/><ellipse class="cls-3" cx="26.38" cy="23.62" rx="0.88" ry="0.87"/><rect class="cls-2" x="27.78" y="22.25" width="2.78" height="2.73"/><ellipse class="cls-3" cx="29.17" cy="23.62" rx="0.88" ry="0.87"/><rect class="cls-2" x="30.55" y="22.25" width="2.78" height="2.73"/><ellipse class="cls-3" cx="31.95" cy="23.62" rx="0.88" ry="0.87"/><rect class="cls-2" x="33.33" y="22.25" width="2.78" height="2.73"/><ellipse class="cls-3" cx="34.72" cy="23.62" rx="0.88" ry="0.87"/><rect class="cls-2" x="36.12" y="22.25" width="2.78" height="2.73"/><ellipse class="cls-3" cx="37.5" cy="23.62" rx="0.88" ry="0.87"/><rect class="cls-2" x="38.88" y="22.25" width="2.78" height="2.73"/><ellipse class="cls-3" cx="40.28" cy="23.62" rx="0.88" ry="0.87"/><rect class="cls-2" x="41.67" y="22.25" width="2.78" height="2.73"/><ellipse class="cls-3" cx="43.05" cy="23.62" rx="0.88" ry="0.87"/><rect class="cls-2" x="44.45" y="22.25" width="2.78" height="2.73"/><ellipse class="cls-3" cx="45.83" cy="23.62" rx="0.88" ry="0.87"/><rect class="cls-2" x="47.22" y="22.25" width="2.78" height="2.73"/><ellipse class="cls-3" cx="48.62" cy="23.62" rx="0.88" ry="0.87"/><rect class="cls-2" y="25.03" width="2.78" height="2.73"/><ellipse class="cls-3" cx="1.38" cy="26.38" rx="0.88" ry="0.87"/><rect class="cls-2" x="2.78" y="25.03" width="2.78" height="2.73"/><ellipse class="cls-3" cx="4.17" cy="26.38" rx="0.88" ry="0.87"/><rect class="cls-2" x="5.55" y="25.03" width="2.78" height="2.73"/><ellipse class="cls-3" cx="6.95" cy="26.38" rx="0.88" ry="0.87"/><rect class="cls-2" x="8.33" y="25.03" width="2.78" height="2.73"/><ellipse class="cls-3" cx="9.72" cy="26.38" rx="0.88" ry="0.87"/><rect class="cls-2" x="11.12" y="25.03" width="2.78" height="2.73"/><ellipse class="cls-3" cx="12.5" cy="26.38" rx="0.88" ry="0.87"/><rect class="cls-2" x="13.88" y="25.03" width="2.78" height="2.73"/><ellipse class="cls-3" cx="15.28" cy="26.38" rx="0.88" ry="0.87"/><rect class="cls-2" x="16.67" y="25.03" width="2.78" height="2.73"/><ellipse class="cls-3" cx="18.05" cy="26.38" rx="0.88" ry="0.87"/><rect class="cls-2" x="19.45" y="25.03" width="2.78" height="2.73"/><ellipse class="cls-3" cx="20.83" cy="26.38" rx="0.88" ry="0.87"/><rect class="cls-2" x="22.22" y="25.03" width="2.78" height="2.73"/><ellipse class="cls-3" cx="23.62" cy="26.38" rx="0.88" ry="0.87"/><rect class="cls-2" x="25" y="25.03" width="2.78" height="2.73"/><ellipse class="cls-3" cx="26.38" cy="26.38" rx="0.88" ry="0.87"/><rect class="cls-2" x="27.78" y="25.03" width="2.78" height="2.73"/><ellipse class="cls-3" cx="29.17" cy="26.38" rx="0.88" ry="0.87"/><rect class="cls-2" x="30.55" y="25.03" width="2.78" height="2.73"/><ellipse class="cls-3" cx="31.95" cy="26.38" rx="0.88" ry="0.87"/><rect class="cls-2" x="33.33" y="25.03" width="2.78" height="2.73"/><ellipse class="cls-3" cx="34.72" cy="26.38" rx="0.88" ry="0.87"/><rect class="cls-2" x="36.12" y="25.03" width="2.78" height="2.73"/><ellipse class="cls-3" cx="37.5" cy="26.38" rx="0.88" ry="0.87"/><rect class="cls-2" x="38.88" y="25.03" width="2.78" height="2.73"/><ellipse class="cls-3" cx="40.28" cy="26.38" rx="0.88" ry="0.87"/><rect class="cls-2" x="41.67" y="25.03" width="2.78" height="2.73"/><ellipse class="cls-3" cx="43.05" cy="26.38" rx="0.88" ry="0.87"/><rect class="cls-2" x="44.45" y="25.03" width="2.78" height="2.73"/><ellipse class="cls-3" cx="45.83" cy="26.38" rx="0.88" ry="0.87"/><rect class="cls-2" x="47.22" y="25.03" width="2.78" height="2.73"/><ellipse class="cls-3" cx="48.62" cy="26.38" rx="0.88" ry="0.87"/><rect class="cls-2" y="27.8" width="2.78" height="2.73"/><ellipse class="cls-3" cx="1.38" cy="29.17" rx="0.88" ry="0.87"/><rect class="cls-2" x="2.78" y="27.8" width="2.78" height="2.73"/><ellipse class="cls-3" cx="4.17" cy="29.17" rx="0.88" ry="0.87"/><rect class="cls-2" x="5.55" y="27.8" width="2.78" height="2.73"/><ellipse class="cls-3" cx="6.95" cy="29.17" rx="0.88" ry="0.87"/><rect class="cls-2" x="8.33" y="27.8" width="2.78" height="2.73"/><ellipse class="cls-3" cx="9.72" cy="29.17" rx="0.88" ry="0.87"/><rect class="cls-2" x="11.12" y="27.8" width="2.78" height="2.73"/><ellipse class="cls-3" cx="12.5" cy="29.17" rx="0.88" ry="0.87"/><rect class="cls-2" x="13.88" y="27.8" width="2.78" height="2.73"/><ellipse class="cls-3" cx="15.28" cy="29.17" rx="0.88" ry="0.87"/><rect class="cls-2" x="16.67" y="27.8" width="2.78" height="2.73"/><ellipse class="cls-3" cx="18.05" cy="29.17" rx="0.88" ry="0.87"/><rect class="cls-2" x="19.45" y="27.8" width="2.78" height="2.73"/><ellipse class="cls-3" cx="20.83" cy="29.17" rx="0.88" ry="0.87"/><rect class="cls-2" x="22.22" y="27.8" width="2.78" height="2.73"/><ellipse class="cls-3" cx="23.62" cy="29.17" rx="0.88" ry="0.87"/><rect class="cls-2" x="25" y="27.8" width="2.78" height="2.73"/><ellipse class="cls-3" cx="26.38" cy="29.17" rx="0.88" ry="0.87"/><rect class="cls-2" x="27.78" y="27.8" width="2.78" height="2.73"/><ellipse class="cls-3" cx="29.17" cy="29.17" rx="0.88" ry="0.87"/><rect class="cls-2" x="30.55" y="27.8" width="2.78" height="2.73"/><ellipse class="cls-3" cx="31.95" cy="29.17" rx="0.88" ry="0.87"/><rect class="cls-2" x="33.33" y="27.8" width="2.78" height="2.73"/><ellipse class="cls-3" cx="34.72" cy="29.17" rx="0.88" ry="0.87"/><rect class="cls-2" x="36.12" y="27.8" width="2.78" height="2.73"/><ellipse class="cls-3" cx="37.5" cy="29.17" rx="0.88" ry="0.87"/><rect class="cls-2" x="38.88" y="27.8" width="2.78" height="2.73"/><ellipse class="cls-3" cx="40.28" cy="29.17" rx="0.88" ry="0.87"/><rect class="cls-2" x="41.67" y="27.8" width="2.78" height="2.73"/><ellipse class="cls-3" cx="43.05" cy="29.17" rx="0.88" ry="0.87"/><rect class="cls-2" x="44.45" y="27.8" width="2.78" height="2.73"/><ellipse class="cls-3" cx="45.83" cy="29.17" rx="0.88" ry="0.87"/><rect class="cls-2" x="47.22" y="27.8" width="2.78" height="2.73"/><ellipse class="cls-3" cx="48.62" cy="29.17" rx="0.88" ry="0.87"/><rect class="cls-2" y="30.58" width="2.78" height="2.73"/><ellipse class="cls-3" cx="1.38" cy="31.95" rx="0.88" ry="0.87"/><rect class="cls-2" x="2.78" y="30.58" width="2.78" height="2.73"/><ellipse class="cls-3" cx="4.17" cy="31.95" rx="0.88" ry="0.87"/><rect class="cls-2" x="5.55" y="30.58" width="2.78" height="2.73"/><ellipse class="cls-3" cx="6.95" cy="31.95" rx="0.88" ry="0.87"/><rect class="cls-2" x="8.33" y="30.58" width="2.78" height="2.73"/><ellipse class="cls-3" cx="9.72" cy="31.95" rx="0.88" ry="0.87"/><rect class="cls-2" x="11.12" y="30.58" width="2.78" height="2.73"/><ellipse class="cls-3" cx="12.5" cy="31.95" rx="0.88" ry="0.87"/><rect class="cls-2" x="13.88" y="30.58" width="2.78" height="2.73"/><ellipse class="cls-3" cx="15.28" cy="31.95" rx="0.88" ry="0.87"/><rect class="cls-2" x="16.67" y="30.58" width="2.78" height="2.73"/><ellipse class="cls-3" cx="18.05" cy="31.95" rx="0.88" ry="0.87"/><rect class="cls-2" x="19.45" y="30.58" width="2.78" height="2.73"/><ellipse class="cls-3" cx="20.83" cy="31.95" rx="0.88" ry="0.87"/><rect class="cls-2" x="22.22" y="30.58" width="2.78" height="2.73"/><ellipse class="cls-3" cx="23.62" cy="31.95" rx="0.88" ry="0.87"/><rect class="cls-2" x="25" y="30.58" width="2.78" height="2.73"/><ellipse class="cls-3" cx="26.38" cy="31.95" rx="0.88" ry="0.87"/><rect class="cls-2" x="27.78" y="30.58" width="2.78" height="2.73"/><ellipse class="cls-3" cx="29.17" cy="31.95" rx="0.88" ry="0.87"/><rect class="cls-2" x="30.55" y="30.58" width="2.78" height="2.73"/><ellipse class="cls-3" cx="31.95" cy="31.95" rx="0.88" ry="0.87"/><rect class="cls-2" x="33.33" y="30.58" width="2.78" height="2.73"/><ellipse class="cls-3" cx="34.72" cy="31.95" rx="0.88" ry="0.87"/><rect class="cls-2" x="36.12" y="30.58" width="2.78" height="2.73"/><ellipse class="cls-3" cx="37.5" cy="31.95" rx="0.88" ry="0.87"/><rect class="cls-2" x="38.88" y="30.58" width="2.78" height="2.73"/><ellipse class="cls-3" cx="40.28" cy="31.95" rx="0.88" ry="0.87"/><rect class="cls-2" x="41.67" y="30.58" width="2.78" height="2.73"/><ellipse class="cls-3" cx="43.05" cy="31.95" rx="0.88" ry="0.87"/><rect class="cls-2" x="44.45" y="30.58" width="2.78" height="2.73"/><ellipse class="cls-3" cx="45.83" cy="31.95" rx="0.88" ry="0.87"/><rect class="cls-2" x="47.22" y="30.58" width="2.78" height="2.73"/><ellipse class="cls-3" cx="48.62" cy="31.95" rx="0.88" ry="0.87"/><rect class="cls-2" y="33.37" width="2.78" height="2.73"/><ellipse class="cls-3" cx="1.38" cy="34.73" rx="0.88" ry="0.87"/><rect class="cls-2" x="2.78" y="33.37" width="2.78" height="2.73"/><ellipse class="cls-3" cx="4.17" cy="34.73" rx="0.88" ry="0.87"/><rect class="cls-2" x="5.55" y="33.37" width="2.78" height="2.73"/><ellipse class="cls-3" cx="6.95" cy="34.73" rx="0.88" ry="0.87"/><rect class="cls-2" x="8.33" y="33.37" width="2.78" height="2.73"/><ellipse class="cls-3" cx="9.72" cy="34.73" rx="0.88" ry="0.87"/><rect class="cls-2" x="11.12" y="33.37" width="2.78" height="2.73"/><ellipse class="cls-3" cx="12.5" cy="34.73" rx="0.88" ry="0.87"/><rect class="cls-2" x="13.88" y="33.37" width="2.78" height="2.73"/><ellipse class="cls-3" cx="15.28" cy="34.73" rx="0.88" ry="0.87"/><rect class="cls-2" x="16.67" y="33.37" width="2.78" height="2.73"/><ellipse class="cls-3" cx="18.05" cy="34.73" rx="0.88" ry="0.87"/><rect class="cls-2" x="19.45" y="33.37" width="2.78" height="2.73"/><ellipse class="cls-3" cx="20.83" cy="34.73" rx="0.88" ry="0.87"/><rect class="cls-2" x="22.22" y="33.37" width="2.78" height="2.73"/><ellipse class="cls-3" cx="23.62" cy="34.73" rx="0.88" ry="0.87"/><rect class="cls-2" x="25" y="33.37" width="2.78" height="2.73"/><ellipse class="cls-3" cx="26.38" cy="34.73" rx="0.88" ry="0.87"/><rect class="cls-2" x="27.78" y="33.37" width="2.78" height="2.73"/><ellipse class="cls-3" cx="29.17" cy="34.73" rx="0.88" ry="0.87"/><rect class="cls-2" x="30.55" y="33.37" width="2.78" height="2.73"/><ellipse class="cls-3" cx="31.95" cy="34.73" rx="0.88" ry="0.87"/><rect class="cls-2" x="33.33" y="33.37" width="2.78" height="2.73"/><ellipse class="cls-3" cx="34.72" cy="34.73" rx="0.88" ry="0.87"/><rect class="cls-2" x="36.12" y="33.37" width="2.78" height="2.73"/><ellipse class="cls-3" cx="37.5" cy="34.73" rx="0.88" ry="0.87"/><rect class="cls-2" x="38.88" y="33.37" width="2.78" height="2.73"/><ellipse class="cls-3" cx="40.28" cy="34.73" rx="0.88" ry="0.87"/><rect class="cls-2" x="41.67" y="33.37" width="2.78" height="2.73"/><ellipse class="cls-3" cx="43.05" cy="34.73" rx="0.88" ry="0.87"/><rect class="cls-2" x="44.45" y="33.37" width="2.78" height="2.73"/><ellipse class="cls-3" cx="45.83" cy="34.73" rx="0.88" ry="0.87"/><rect class="cls-2" x="47.22" y="33.37" width="2.78" height="2.73"/><ellipse class="cls-3" cx="48.62" cy="34.73" rx="0.88" ry="0.87"/><rect class="cls-2" y="36.15" width="2.78" height="2.73"/><ellipse class="cls-3" cx="1.38" cy="37.52" rx="0.88" ry="0.87"/><rect class="cls-2" x="2.78" y="36.15" width="2.78" height="2.73"/><ellipse class="cls-3" cx="4.17" cy="37.52" rx="0.88" ry="0.87"/><rect class="cls-2" x="5.55" y="36.15" width="2.78" height="2.73"/><ellipse class="cls-3" cx="6.95" cy="37.52" rx="0.88" ry="0.87"/><rect class="cls-2" x="8.33" y="36.15" width="2.78" height="2.73"/><ellipse class="cls-3" cx="9.72" cy="37.52" rx="0.88" ry="0.87"/><rect class="cls-2" x="11.12" y="36.15" width="2.78" height="2.73"/><ellipse class="cls-3" cx="12.5" cy="37.52" rx="0.88" ry="0.87"/><rect class="cls-2" x="13.88" y="36.15" width="2.78" height="2.73"/><ellipse class="cls-3" cx="15.28" cy="37.52" rx="0.88" ry="0.87"/><rect class="cls-2" x="16.67" y="36.15" width="2.78" height="2.73"/><ellipse class="cls-3" cx="18.05" cy="37.52" rx="0.88" ry="0.87"/><rect class="cls-2" x="19.45" y="36.15" width="2.78" height="2.73"/><ellipse class="cls-3" cx="20.83" cy="37.52" rx="0.88" ry="0.87"/><rect class="cls-2" x="22.22" y="36.15" width="2.78" height="2.73"/><ellipse class="cls-3" cx="23.62" cy="37.52" rx="0.88" ry="0.87"/><rect class="cls-2" x="25" y="36.15" width="2.78" height="2.73"/><ellipse class="cls-3" cx="26.38" cy="37.52" rx="0.88" ry="0.87"/><rect class="cls-2" x="27.78" y="36.15" width="2.78" height="2.73"/><ellipse class="cls-3" cx="29.17" cy="37.52" rx="0.88" ry="0.87"/><rect class="cls-2" x="30.55" y="36.15" width="2.78" height="2.73"/><ellipse class="cls-3" cx="31.95" cy="37.52" rx="0.88" ry="0.87"/><rect class="cls-2" x="33.33" y="36.15" width="2.78" height="2.73"/><ellipse class="cls-3" cx="34.72" cy="37.52" rx="0.88" ry="0.87"/><rect class="cls-2" x="36.12" y="36.15" width="2.78" height="2.73"/><ellipse class="cls-3" cx="37.5" cy="37.52" rx="0.88" ry="0.87"/><rect class="cls-2" x="38.88" y="36.15" width="2.78" height="2.73"/><ellipse class="cls-3" cx="40.28" cy="37.52" rx="0.88" ry="0.87"/><rect class="cls-2" x="41.67" y="36.15" width="2.78" height="2.73"/><ellipse class="cls-3" cx="43.05" cy="37.52" rx="0.88" ry="0.87"/><rect class="cls-2" x="44.45" y="36.15" width="2.78" height="2.73"/><ellipse class="cls-3" cx="45.83" cy="37.52" rx="0.88" ry="0.87"/><rect class="cls-2" x="47.22" y="36.15" width="2.78" height="2.73"/><ellipse class="cls-3" cx="48.62" cy="37.52" rx="0.88" ry="0.87"/><rect class="cls-2" y="38.93" width="2.78" height="2.73"/><ellipse class="cls-3" cx="1.38" cy="40.3" rx="0.88" ry="0.87"/><rect class="cls-2" x="2.78" y="38.93" width="2.78" height="2.73"/><ellipse class="cls-3" cx="4.17" cy="40.3" rx="0.88" ry="0.87"/><rect class="cls-2" x="5.55" y="38.93" width="2.78" height="2.73"/><ellipse class="cls-3" cx="6.95" cy="40.3" rx="0.88" ry="0.87"/><rect class="cls-2" x="8.33" y="38.93" width="2.78" height="2.73"/><ellipse class="cls-3" cx="9.72" cy="40.3" rx="0.88" ry="0.87"/><rect class="cls-2" x="11.12" y="38.93" width="2.78" height="2.73"/><ellipse class="cls-3" cx="12.5" cy="40.3" rx="0.88" ry="0.87"/><rect class="cls-2" x="13.88" y="38.93" width="2.78" height="2.73"/><ellipse class="cls-3" cx="15.28" cy="40.3" rx="0.88" ry="0.87"/><rect class="cls-2" x="16.67" y="38.93" width="2.78" height="2.73"/><ellipse class="cls-3" cx="18.05" cy="40.3" rx="0.88" ry="0.87"/><rect class="cls-2" x="19.45" y="38.93" width="2.78" height="2.73"/><ellipse class="cls-3" cx="20.83" cy="40.3" rx="0.88" ry="0.87"/><rect class="cls-2" x="22.22" y="38.93" width="2.78" height="2.73"/><ellipse class="cls-3" cx="23.62" cy="40.3" rx="0.88" ry="0.87"/><rect class="cls-2" x="25" y="38.93" width="2.78" height="2.73"/><ellipse class="cls-3" cx="26.38" cy="40.3" rx="0.88" ry="0.87"/><rect class="cls-2" x="27.78" y="38.93" width="2.78" height="2.73"/><ellipse class="cls-3" cx="29.17" cy="40.3" rx="0.88" ry="0.87"/><rect class="cls-2" x="30.55" y="38.93" width="2.78" height="2.73"/><ellipse class="cls-3" cx="31.95" cy="40.3" rx="0.88" ry="0.87"/><rect class="cls-2" x="33.33" y="38.93" width="2.78" height="2.73"/><ellipse class="cls-3" cx="34.72" cy="40.3" rx="0.88" ry="0.87"/><rect class="cls-2" x="36.12" y="38.93" width="2.78" height="2.73"/><ellipse class="cls-3" cx="37.5" cy="40.3" rx="0.88" ry="0.87"/><rect class="cls-2" x="38.88" y="38.93" width="2.78" height="2.73"/><ellipse class="cls-3" cx="40.28" cy="40.3" rx="0.88" ry="0.87"/><rect class="cls-2" x="41.67" y="38.93" width="2.78" height="2.73"/><ellipse class="cls-3" cx="43.05" cy="40.3" rx="0.88" ry="0.87"/><rect class="cls-2" x="44.45" y="38.93" width="2.78" height="2.73"/><ellipse class="cls-3" cx="45.83" cy="40.3" rx="0.88" ry="0.87"/><rect class="cls-2" x="47.22" y="38.93" width="2.78" height="2.73"/><ellipse class="cls-3" cx="48.62" cy="40.3" rx="0.88" ry="0.87"/><rect class="cls-2" y="41.72" width="2.78" height="2.73"/><ellipse class="cls-3" cx="1.38" cy="43.08" rx="0.88" ry="0.87"/><rect class="cls-2" x="2.78" y="41.72" width="2.78" height="2.73"/><ellipse class="cls-3" cx="4.17" cy="43.08" rx="0.88" ry="0.87"/><rect class="cls-2" x="5.55" y="41.72" width="2.78" height="2.73"/><ellipse class="cls-3" cx="6.95" cy="43.08" rx="0.88" ry="0.87"/><rect class="cls-2" x="8.33" y="41.72" width="2.78" height="2.73"/><ellipse class="cls-3" cx="9.72" cy="43.08" rx="0.88" ry="0.87"/><rect class="cls-2" x="11.12" y="41.72" width="2.78" height="2.73"/><ellipse class="cls-3" cx="12.5" cy="43.08" rx="0.88" ry="0.87"/><rect class="cls-2" x="13.88" y="41.72" width="2.78" height="2.73"/><ellipse class="cls-3" cx="15.28" cy="43.08" rx="0.88" ry="0.87"/><rect class="cls-2" x="16.67" y="41.72" width="2.78" height="2.73"/><ellipse class="cls-3" cx="18.05" cy="43.08" rx="0.88" ry="0.87"/><rect class="cls-2" x="19.45" y="41.72" width="2.78" height="2.73"/><ellipse class="cls-3" cx="20.83" cy="43.08" rx="0.88" ry="0.87"/><rect class="cls-2" x="22.22" y="41.72" width="2.78" height="2.73"/><ellipse class="cls-3" cx="23.62" cy="43.08" rx="0.88" ry="0.87"/><rect class="cls-2" x="25" y="41.72" width="2.78" height="2.73"/><ellipse class="cls-3" cx="26.38" cy="43.08" rx="0.88" ry="0.87"/><rect class="cls-2" x="27.78" y="41.72" width="2.78" height="2.73"/><ellipse class="cls-3" cx="29.17" cy="43.08" rx="0.88" ry="0.87"/><rect class="cls-2" x="30.55" y="41.72" width="2.78" height="2.73"/><ellipse class="cls-3" cx="31.95" cy="43.08" rx="0.88" ry="0.87"/><rect class="cls-2" x="33.33" y="41.72" width="2.78" height="2.73"/><ellipse class="cls-3" cx="34.72" cy="43.08" rx="0.88" ry="0.87"/><rect class="cls-2" x="36.12" y="41.72" width="2.78" height="2.73"/><ellipse class="cls-3" cx="37.5" cy="43.08" rx="0.88" ry="0.87"/><rect class="cls-2" x="38.88" y="41.72" width="2.78" height="2.73"/><ellipse class="cls-3" cx="40.28" cy="43.08" rx="0.88" ry="0.87"/><rect class="cls-2" x="41.67" y="41.72" width="2.78" height="2.73"/><ellipse class="cls-3" cx="43.05" cy="43.08" rx="0.88" ry="0.87"/><rect class="cls-2" x="44.45" y="41.72" width="2.78" height="2.73"/><ellipse class="cls-3" cx="45.83" cy="43.08" rx="0.88" ry="0.87"/><rect class="cls-2" x="47.22" y="41.72" width="2.78" height="2.73"/><ellipse class="cls-3" cx="48.62" cy="43.08" rx="0.88" ry="0.87"/><rect class="cls-2" y="44.5" width="2.78" height="2.73"/><ellipse class="cls-3" cx="1.38" cy="45.85" rx="0.88" ry="0.87"/><rect class="cls-2" x="2.78" y="44.5" width="2.78" height="2.73"/><ellipse class="cls-3" cx="4.17" cy="45.85" rx="0.88" ry="0.87"/><rect class="cls-2" x="5.55" y="44.5" width="2.78" height="2.73"/><ellipse class="cls-3" cx="6.95" cy="45.85" rx="0.88" ry="0.87"/><rect class="cls-2" x="8.33" y="44.5" width="2.78" height="2.73"/><ellipse class="cls-3" cx="9.72" cy="45.85" rx="0.88" ry="0.87"/><rect class="cls-2" x="11.12" y="44.5" width="2.78" height="2.73"/><ellipse class="cls-3" cx="12.5" cy="45.85" rx="0.88" ry="0.87"/><rect class="cls-2" x="13.88" y="44.5" width="2.78" height="2.73"/><ellipse class="cls-3" cx="15.28" cy="45.85" rx="0.88" ry="0.87"/><rect class="cls-2" x="16.67" y="44.5" width="2.78" height="2.73"/><ellipse class="cls-3" cx="18.05" cy="45.85" rx="0.88" ry="0.87"/><rect class="cls-2" x="19.45" y="44.5" width="2.78" height="2.73"/><ellipse class="cls-3" cx="20.83" cy="45.85" rx="0.88" ry="0.87"/><rect class="cls-2" x="22.22" y="44.5" width="2.78" height="2.73"/><ellipse class="cls-3" cx="23.62" cy="45.85" rx="0.88" ry="0.87"/><rect class="cls-2" x="25" y="44.5" width="2.78" height="2.73"/><ellipse class="cls-3" cx="26.38" cy="45.85" rx="0.88" ry="0.87"/><rect class="cls-2" x="27.78" y="44.5" width="2.78" height="2.73"/><ellipse class="cls-3" cx="29.17" cy="45.85" rx="0.88" ry="0.87"/><rect class="cls-2" x="30.55" y="44.5" width="2.78" height="2.73"/><ellipse class="cls-3" cx="31.95" cy="45.85" rx="0.88" ry="0.87"/><rect class="cls-2" x="33.33" y="44.5" width="2.78" height="2.73"/><ellipse class="cls-3" cx="34.72" cy="45.85" rx="0.88" ry="0.87"/><rect class="cls-2" x="36.12" y="44.5" width="2.78" height="2.73"/><ellipse class="cls-3" cx="37.5" cy="45.85" rx="0.88" ry="0.87"/><rect class="cls-2" x="38.88" y="44.5" width="2.78" height="2.73"/><ellipse class="cls-3" cx="40.28" cy="45.85" rx="0.88" ry="0.87"/><rect class="cls-2" x="41.67" y="44.5" width="2.78" height="2.73"/><ellipse class="cls-3" cx="43.05" cy="45.85" rx="0.88" ry="0.87"/><rect class="cls-2" x="44.45" y="44.5" width="2.78" height="2.73"/><ellipse class="cls-3" cx="45.83" cy="45.85" rx="0.88" ry="0.87"/><rect class="cls-2" x="47.22" y="44.5" width="2.78" height="2.73"/><ellipse class="cls-3" cx="48.62" cy="45.85" rx="0.88" ry="0.87"/><rect class="cls-2" y="47.27" width="2.78" height="2.73"/><ellipse class="cls-3" cx="1.38" cy="48.63" rx="0.88" ry="0.87"/><rect class="cls-2" x="2.78" y="47.27" width="2.78" height="2.73"/><ellipse class="cls-3" cx="4.17" cy="48.63" rx="0.88" ry="0.87"/><rect class="cls-2" x="5.55" y="47.27" width="2.78" height="2.73"/><ellipse class="cls-3" cx="6.95" cy="48.63" rx="0.88" ry="0.87"/><rect class="cls-2" x="8.33" y="47.27" width="2.78" height="2.73"/><ellipse class="cls-3" cx="9.72" cy="48.63" rx="0.88" ry="0.87"/><rect class="cls-2" x="11.12" y="47.27" width="2.78" height="2.73"/><ellipse class="cls-3" cx="12.5" cy="48.63" rx="0.88" ry="0.87"/><rect class="cls-2" x="13.88" y="47.27" width="2.78" height="2.73"/><ellipse class="cls-3" cx="15.28" cy="48.63" rx="0.88" ry="0.87"/><rect class="cls-2" x="16.67" y="47.27" width="2.78" height="2.73"/><ellipse class="cls-3" cx="18.05" cy="48.63" rx="0.88" ry="0.87"/><rect class="cls-2" x="19.45" y="47.27" width="2.78" height="2.73"/><ellipse class="cls-3" cx="20.83" cy="48.63" rx="0.88" ry="0.87"/><rect class="cls-2" x="22.22" y="47.27" width="2.78" height="2.73"/><ellipse class="cls-3" cx="23.62" cy="48.63" rx="0.88" ry="0.87"/><rect class="cls-2" x="25" y="47.27" width="2.78" height="2.73"/><ellipse class="cls-3" cx="26.38" cy="48.63" rx="0.88" ry="0.87"/><rect class="cls-2" x="27.78" y="47.27" width="2.78" height="2.73"/><ellipse class="cls-3" cx="29.17" cy="48.63" rx="0.88" ry="0.87"/><rect class="cls-2" x="30.55" y="47.27" width="2.78" height="2.73"/><ellipse class="cls-3" cx="31.95" cy="48.63" rx="0.88" ry="0.87"/><rect class="cls-2" x="33.33" y="47.27" width="2.78" height="2.73"/><ellipse class="cls-3" cx="34.72" cy="48.63" rx="0.88" ry="0.87"/><rect class="cls-2" x="36.12" y="47.27" width="2.78" height="2.73"/><ellipse class="cls-3" cx="37.5" cy="48.63" rx="0.88" ry="0.87"/><rect class="cls-2" x="38.88" y="47.27" width="2.78" height="2.73"/><ellipse class="cls-3" cx="40.28" cy="48.63" rx="0.88" ry="0.87"/><rect class="cls-2" x="41.67" y="47.27" width="2.78" height="2.73"/><ellipse class="cls-3" cx="43.05" cy="48.63" rx="0.88" ry="0.87"/><rect class="cls-2" x="44.45" y="47.27" width="2.78" height="2.73"/><ellipse class="cls-3" cx="45.83" cy="48.63" rx="0.88" ry="0.87"/><rect class="cls-2" x="47.22" y="47.27" width="2.78" height="2.73"/><ellipse class="cls-3" cx="48.62" cy="48.63" rx="0.88" ry="0.87"/></svg>