<svg id="bea631bf-4ae0-478b-b759-23ded616f18e" data-name="Layer 1" xmlns="http://www.w3.org/2000/svg" viewBox="0 0 24.26 17.33"><defs><style>.a6282a25-847b-42e6-8cf7-aa7538aa5288{fill:#fff;}</style></defs><path class="a6282a25-847b-42e6-8cf7-aa7538aa5288" d="M24.26,17.27a8.56,8.56,0,0,1-7.78-3.4A8.65,8.65,0,0,1,24.26.05v2.6A6,6,0,0,0,19,4.46a5.94,5.94,0,0,0-1.57,2.9h5.06V10H17.47a6.08,6.08,0,0,0,6.79,4.71Z"/><path class="a6282a25-847b-42e6-8cf7-aa7538aa5288" d="M9.59.06v2.6a6,6,0,0,0-5,1.51A5.9,5.9,0,0,0,2.61,9a5.86,5.86,0,0,0,2.22,4.4,6,6,0,0,0,4.75,1.31v2.6A8.66,8.66,0,0,1,1.42,3.92,8.6,8.6,0,0,1,9.59.06Z"/></svg>