<?xml version="1.0" encoding="utf-8"?>
<!-- Generator: Adobe Illustrator 21.0.0, SVG Export Plug-In . SVG Version: 6.00 Build 0)  -->
<svg version="1.1" id="Layer_1" xmlns="http://www.w3.org/2000/svg" xmlns:xlink="http://www.w3.org/1999/xlink" x="0px" y="0px"
	 viewBox="0 0 73.4 73.4" style="enable-background:new 0 0 73.4 73.4;" xml:space="preserve">
<style type="text/css">
	.st0{fill:#C2C4C6;}
</style>
<g>
	<path class="st0" d="M36.7,35.2c-8.1,0-15.5-7.4-15.5-15.5c0-8.1,7.4-15.5,15.5-15.5s15.5,7.4,15.5,15.5
		C52.2,27.8,44.8,35.2,36.7,35.2z"/>
	<path class="st0" d="M17.1,38.2c-8.2,0-15.5,7.3-15.5,15.5c0,8.2,7.3,15.4,15.5,15.4s15.5-7.2,15.5-15.4
		C32.6,45.5,25.3,38.2,17.1,38.2z M17.1,40.7c6.7,0,13,6.3,13,13.1c0,6.7-6.3,13-13,13s-13-6.3-13-13C4.1,47,10.4,40.7,17.1,40.7z"
		/>
	<path class="st0" d="M56.3,38.2c-8.2,0-15.5,7.3-15.5,15.5c0,8.2,7.3,15.4,15.5,15.4s15.5-7.2,15.5-15.4
		C71.8,45.5,64.5,38.2,56.3,38.2z M56.3,40.6c0.3,0,0.5,0,0.8,0L43.3,54.5c0-0.3,0-0.5,0-0.8c0-0.3,0-0.5,0-0.8l12.2-12.2
		C55.8,40.7,56.1,40.6,56.3,40.6z M57.8,40.8c0.4,0.1,0.9,0.2,1.3,0.3L43.7,56.5c-0.1-0.4-0.2-0.9-0.3-1.3L57.8,40.8z M54.7,40.8
		L43.4,52.1c0.1-0.7,0.3-1.4,0.5-2l8.8-8.8C53.3,41,54,40.9,54.7,40.8z M59.8,41.2c0.4,0.1,0.8,0.3,1.1,0.4L44.3,58.3
		c-0.2-0.4-0.3-0.8-0.4-1.2L59.8,41.2z M51.4,41.8l-6.9,6.9C45.8,45.7,48.4,43.2,51.4,41.8z M61.4,41.9c0.3,0.2,0.7,0.3,1,0.5
		L45,59.8c-0.2-0.3-0.4-0.7-0.5-1L61.4,41.9z M63,42.7c0.3,0.2,0.6,0.4,0.9,0.6L46,61.2c-0.2-0.3-0.4-0.6-0.6-0.9L63,42.7z
		 M64.3,43.7c0.3,0.2,0.6,0.5,0.8,0.7L47.1,62.5c-0.3-0.3-0.5-0.5-0.7-0.8L64.3,43.7z M65.5,44.8c0.3,0.3,0.5,0.5,0.7,0.8l-18,18
		c-0.3-0.2-0.6-0.5-0.8-0.7L65.5,44.8z M66.6,46.1c0.2,0.3,0.4,0.6,0.6,0.9L49.6,64.6c-0.3-0.2-0.6-0.4-0.9-0.7L66.6,46.1z
		 M67.6,47.5c0.2,0.3,0.4,0.7,0.6,1l-16.9,17c-0.4-0.2-0.7-0.4-1-0.6L67.6,47.5z M68.4,49.1c0.2,0.4,0.3,0.8,0.4,1.1l-16,16
		c-0.4-0.1-0.8-0.3-1.1-0.4L68.4,49.1z M68.9,50.8c0.1,0.4,0.2,0.9,0.3,1.3L54.7,66.6c-0.4-0.1-0.9-0.2-1.3-0.3L68.9,50.8z
		 M69.3,52.8c0,0.3,0.1,0.6,0.1,0.9c0,0.2,0,0.5,0,0.7L57,66.7c-0.2,0-0.5,0-0.7,0c-0.3,0-0.6,0-0.9-0.1L69.3,52.8z M69.2,55.2
		c-0.1,0.7-0.3,1.4-0.5,2l-8.9,8.9c-0.7,0.2-1.3,0.4-2,0.5L69.2,55.2z M68.3,58.5c-1.4,3.1-4,5.8-7.2,7.2L68.3,58.5z"/>
</g>
</svg>
