<?xml version="1.0" encoding="utf-8"?>
<!-- Generator: Adobe Illustrator 21.0.0, SVG Export Plug-In . SVG Version: 6.00 Build 0)  -->
<svg version="1.1" id="Layer_1" xmlns="http://www.w3.org/2000/svg" xmlns:xlink="http://www.w3.org/1999/xlink" x="0px" y="0px"
	 viewBox="0 0 73.4 73.4" style="enable-background:new 0 0 73.4 73.4;" xml:space="preserve">
<style type="text/css">
	.st0{fill:#C2C4C6;}
</style>
<g>
	<polygon class="st0" points="0.7,53.6 11.9,56.6 32.9,44.7 24.5,39.9 	"/>
	<path class="st0" d="M66.4,43.1c-0.6-0.4-1.4-0.9-2.3-1.3c0,0-0.1,0-0.1-0.1c-1.5-0.7-3.3-1.5-5.4-1.8c-4-0.6-6.4-1-8.7-1.5
		L47,36.7l2.9-1.7c2.3-0.5,4.8-0.9,8.7-1.5c2-0.3,3.9-1.1,5.4-1.8c0,0,0.1,0,0.1-0.1c0.9-0.4,1.7-0.9,2.3-1.3c5.8-4,8-11.4,4.7-17
		c-2.2-3.8-6.3-5.9-10.8-5.9c-2.5,0-5,0.7-7.4,2c-6.1,3.5-8.7,10.5-6.4,16.2c0.1,0.2,0.2,0.4,0.2,0.6c0,0.6-0.3,1-0.8,1.2l0,0
		l-7.5,4.3L11.9,16.8l-11.2,3l45.2,26.1v0c0.5,0.2,0.8,0.7,0.8,1.2c0,0.2-0.1,0.5-0.2,0.6C44.3,53.5,46.9,60.5,53,64
		c2.4,1.4,4.9,2,7.4,2c4.4,0,8.6-2.1,10.8-5.9C74.4,54.5,72.3,47.1,66.4,43.1z M51.6,19.1c0.7-2,2.1-3.8,4.1-5
		c1.4-0.8,3-1.3,4.6-1.3c2.6,0,4.8,1.2,6,3.1c0.9,1.5,1,3.4,0.4,5.2c-0.7,2-2.1,3.8-4.1,5c-1.4,0.8-3.1,1.3-4.6,1.3l0,0
		c-2.6,0-4.8-1.2-6-3.1C51.2,22.8,51,21,51.6,19.1z M38.5,38.5c-1.2,0-2.2-1-2.2-2.2c0-1.2,1-2.2,2.2-2.2c1.2,0,2.2,1,2.2,2.2
		C40.7,37.6,39.7,38.5,38.5,38.5z M66.4,57.3c-1.1,2-3.4,3.1-6,3.1c-1.6,0-3.2-0.4-4.6-1.3c-2-1.2-3.5-2.9-4.1-5
		c-0.6-1.8-0.4-3.7,0.4-5.2c1.1-2,3.4-3.1,6-3.1l0,0c1.6,0,3.2,0.4,4.6,1.3c2,1.2,3.5,2.9,4.1,4.9C67.4,54,67.2,55.8,66.4,57.3z"/>
</g>
</svg>
