<?xml version="1.0" encoding="utf-8"?>
<!-- Generator: Adobe Illustrator 16.0.0, SVG Export Plug-In . SVG Version: 6.00 Build 0)  -->
<!DOCTYPE svg PUBLIC "-//W3C//DTD SVG 1.1//EN" "http://www.w3.org/Graphics/SVG/1.1/DTD/svg11.dtd">
<svg version="1.1" id="Layer_1" xmlns="http://www.w3.org/2000/svg" xmlns:xlink="http://www.w3.org/1999/xlink" x="0px" y="0px"
	 width="29.75px" height="29.75px" viewBox="-1074.635 918.5 29.75 29.75" enable-background="new -1074.635 918.5 29.75 29.75"
	 xml:space="preserve">
<path fill="#FFFFFF" d="M-1048.977,933.076l-3.493-2.844c-0.276-0.276-0.744-0.082-0.744,0.309v1.749h-5.456v-5.456h1.749
	c0.387,0,0.58-0.469,0.31-0.742l-2.835-3.499c-0.172-0.172-0.447-0.172-0.615,0l-2.844,3.493c-0.274,0.276-0.082,0.744,0.31,0.744
	h1.748v5.456h-5.456v-1.749c0-0.387-0.468-0.581-0.743-0.31l-3.497,2.836c-0.172,0.172-0.172,0.447,0,0.614l3.492,2.844
	c0.275,0.275,0.744,0.082,0.744-0.309v-1.748h5.457v5.456h-1.75c-0.386,0-0.579,0.468-0.309,0.742l2.832,3.493
	c0.171,0.173,0.446,0.173,0.614,0l2.845-3.493c0.274-0.274,0.081-0.742-0.31-0.742h-1.749v-5.456h5.457v1.748
	c0,0.387,0.468,0.58,0.743,0.309l3.493-2.83C-1048.805,933.519-1048.805,933.244-1048.977,933.076z"/>
<path fill="#FFFFFF" d="M-1059.761,947.25c-7.65,0-13.875-6.225-13.875-13.875s6.224-13.875,13.875-13.875
	c7.651,0,13.875,6.225,13.875,13.875S-1052.11,947.25-1059.761,947.25z M-1059.761,920.433c-7.136,0-12.942,5.807-12.942,12.942
	s5.806,12.942,12.942,12.942c7.137,0,12.942-5.807,12.942-12.942S-1052.624,920.433-1059.761,920.433z"/>
</svg>
