<svg id="a8da7317-9a82-49c1-8658-0b72463f09d3" data-name="Layer 1" xmlns="http://www.w3.org/2000/svg" viewBox="0 0 22.61 21.38"><defs><style>.a2ad19b7-6c19-4737-8694-6449e62fa0c5{fill:#fff;}</style></defs><path class="a2ad19b7-6c19-4737-8694-6449e62fa0c5" d="M22.59,10.57c0,.22,0,.44,0,.65s0,.46-.06.68-.07.58-.12.87-.14.57-.22.86a8,8,0,0,1-.59,1.57,8.52,8.52,0,0,1-.46.84c-.19.3-.38.6-.59.89s-.51.64-.78.95-.35.37-.53.54-.4.36-.61.53a11.27,11.27,0,0,1-1.52,1l-.21.11s-.08,0-.1,0c-.14-.31-.28-.61-.41-.92s-.17-.43-.25-.64c0,0,0-.08.05-.09.22-.15.46-.28.67-.44s.59-.46.87-.7a8,8,0,0,0,.95-1c.15-.18.29-.38.43-.57a5,5,0,0,0,.37-.53,7.15,7.15,0,0,0,.42-.77,8.63,8.63,0,0,0,.37-1,7.44,7.44,0,0,0,.31-1.3c0-.31.08-.63.1-1s0-.61,0-.91a5,5,0,0,0-.12-1,9.58,9.58,0,0,0-.37-1.37,8.87,8.87,0,0,0-.54-1.22,7.53,7.53,0,0,0-.77-1.16c-.17-.22-.34-.45-.52-.66A4.31,4.31,0,0,0,18,4.5c-.2-.18-.4-.37-.61-.53s-.58-.43-.88-.62-.63-.36-.95-.53A5.31,5.31,0,0,0,15,2.59l-.87-.3c-.22-.06-.45-.12-.67-.16s-.68-.13-1-.17-.63,0-.95-.06h-.34c-.32,0-.64,0-1,.05s-.65.1-1,.17a9.07,9.07,0,0,0-1.66.51,9.53,9.53,0,0,0-1.35.69A9.09,9.09,0,0,0,4.1,5.06a7,7,0,0,0-1,1.4,9.84,9.84,0,0,0-.48.91,7.36,7.36,0,0,0-.34.93c-.1.32-.18.65-.25,1a3.3,3.3,0,0,0-.09.63,10.87,10.87,0,0,0-.05,1.14A7.11,7.11,0,0,0,2,12.27a9.05,9.05,0,0,0,.43,1.52,6.13,6.13,0,0,0,.73,1.5c.26.36.52.72.8,1.06a8,8,0,0,0,.81.84,9.54,9.54,0,0,0,1.34,1l.61.35c.12.07.13.07.07.2s-.18.39-.27.59-.1.25-.16.38-.15.33-.24.49-.09,0-.13,0c-.28-.14-.56-.28-.82-.44a11.61,11.61,0,0,1-1-.67c-.29-.22-.55-.46-.82-.7s-.44-.43-.64-.65a7.67,7.67,0,0,1-.52-.64c-.23-.32-.45-.64-.67-1A11.75,11.75,0,0,1,.9,15,10.33,10.33,0,0,1,.39,13.6c-.11-.39-.19-.8-.27-1.2,0-.23-.06-.47-.08-.71s0-.48,0-.71,0-.25,0-.38a8.1,8.1,0,0,1,.06-1c0-.41.14-.82.23-1.22A8.86,8.86,0,0,1,.86,6.72c.15-.34.32-.68.5-1a11.12,11.12,0,0,1,.65-1A7.7,7.7,0,0,1,2.58,4c.25-.27.5-.54.77-.79a11,11,0,0,1,1.23-1,11.15,11.15,0,0,1,1.19-.73A11.32,11.32,0,0,1,7.14.79,11.09,11.09,0,0,1,8.75.3C9.16.22,9.58.14,10,.08S10.7,0,11.05,0h.85q.51,0,1,.09a11.43,11.43,0,0,1,1.44.27,10.56,10.56,0,0,1,1.53.51,8.46,8.46,0,0,1,1.31.66c.34.2.66.42,1,.65a9.41,9.41,0,0,1,1.31,1.13,6.65,6.65,0,0,1,.83.93c.25.34.49.67.71,1a11.39,11.39,0,0,1,.55,1,12.14,12.14,0,0,1,.48,1.18c.12.35.21.7.3,1.06s.13.63.17.95,0,.71.08,1.07Z"/><path class="a2ad19b7-6c19-4737-8694-6449e62fa0c5" d="M14,17.94V3.68c0-.13,0-.15.13-.1.29.12.59.23.87.36s.55.3.83.45a.19.19,0,0,1,.08.17c0,.29,0,.58,0,.88v8.67a2.3,2.3,0,0,0,0,.26,0,0,0,0,0,0,0,.11.11,0,0,0,.07,0c.11-.14.24-.27.34-.42s.28-.43.4-.66a4.93,4.93,0,0,0,.22-.53,4.75,4.75,0,0,0,.3-1.12c0-.28.05-.56.08-.84a3.59,3.59,0,0,0-.05-.8c0-.09,0-.1.1-.1h1.75c.09,0,.13,0,.13.11a2.93,2.93,0,0,1,0,.41c0,.34,0,.68,0,1A6.42,6.42,0,0,1,19,12.91a6.76,6.76,0,0,1-.59,1.42,6.91,6.91,0,0,1-.85,1.23,10.19,10.19,0,0,1-1.11,1.07,6.88,6.88,0,0,1-1.33.86c-.23.12-.48.23-.72.33a2.13,2.13,0,0,1-.33.11Z"/><path class="a2ad19b7-6c19-4737-8694-6449e62fa0c5" d="M8.67,9.84v1.92H5.42q-.12,0-.09.12c.06.23.11.47.19.7a7.34,7.34,0,0,0,.39.86,4.19,4.19,0,0,0,.58.86c.15.18.3.37.47.54a5.47,5.47,0,0,0,1.55,1.06.21.21,0,0,1,.16.23c0,.59,0,1.17,0,1.76,0,.09,0,.11-.09.08-.33-.12-.65-.25-1-.39a6.9,6.9,0,0,1-1.39-.87,8,8,0,0,1-.63-.55A6.91,6.91,0,0,1,4.35,14.7c-.2-.33-.37-.69-.54-1a5.55,5.55,0,0,1-.41-1.25,8.55,8.55,0,0,1-.14-.86c0-.3,0-.6,0-.9a4.22,4.22,0,0,1,0-.62q.06-.45.15-.9a6.22,6.22,0,0,1,.43-1.28,6.56,6.56,0,0,1,.61-1.1c.14-.2.27-.41.43-.6A7.16,7.16,0,0,1,6,5a8.7,8.7,0,0,1,1.46-1,7,7,0,0,1,1.09-.47c.08,0,.1,0,.1.08,0,.61,0,1.22,0,1.84,0,.09-.07.11-.13.15s-.42.22-.61.35a7.21,7.21,0,0,0-.62.47A6.55,6.55,0,0,0,6.11,7.8a4.73,4.73,0,0,0-.64,1.34,4.94,4.94,0,0,0-.13.52c0,.15,0,.18.15.18H8.67Z"/><path class="a2ad19b7-6c19-4737-8694-6449e62fa0c5" d="M12.29,11.75v6.49c0,.11,0,.15-.14.15q-.49,0-1,0c-.2,0-.41,0-.61,0a1.18,1.18,0,0,1-.21,0c-.06,0-.1,0-.09-.1v-13c0-.18,0-.19-.17-.14l-.95.24c-.07,0-.09,0-.09-.07V3.55a.14.14,0,0,1,.1-.15l.75-.16a5.46,5.46,0,0,1,.68-.08l1.09,0a3,3,0,0,1,.42,0l.89.12c.19,0,.37.08.56.12s.07,0,.07.09c0,.61,0,1.22,0,1.82,0,.11,0,.12-.12.08l-.75-.22-.36-.07c-.06,0-.09,0-.09.08v6.57Z"/><path class="a2ad19b7-6c19-4737-8694-6449e62fa0c5" d="M14.47,19.18l.81-.28a.57.57,0,0,1,.53.13,1.08,1.08,0,0,1,.38.85.57.57,0,0,1-.41.58l-.51.19c-.19.06-.19.06-.26-.13l-.48-1.14C14.51,19.33,14.5,19.27,14.47,19.18Zm.86,0v0l-.32.11c-.08,0-.08.07,0,.13l.33.77c0,.06.06.1.13.06l.17-.06a.34.34,0,0,0,.23-.36.9.9,0,0,0-.16-.42C15.58,19.33,15.5,19.2,15.33,19.22Z"/><path class="a2ad19b7-6c19-4737-8694-6449e62fa0c5" d="M19.08,8.64a.94.94,0,0,1-1,1,1,1,0,1,1,0-1.94A.93.93,0,0,1,19.08,8.64Zm-.29,0a.7.7,0,0,0-.45-.68.69.69,0,0,0-.75.19.83.83,0,0,0,0,1,.63.63,0,0,0,.57.27A.69.69,0,0,0,18.79,8.62Z"/><path class="a2ad19b7-6c19-4737-8694-6449e62fa0c5" d="M9.75,20.76a.18.18,0,0,1,.22.14c.06.18.4.21.54.1a.16.16,0,0,0,0-.26l-.33-.13a2.37,2.37,0,0,1-.36-.17A.42.42,0,0,1,9.71,20a.61.61,0,0,1,.63-.31.72.72,0,0,1,.48.2.46.46,0,0,1,.13.31s0,.05,0,.05a1,1,0,0,1-.24,0s-.06,0-.07-.06a.32.32,0,0,0-.42-.17c-.07,0-.13.06-.13.15s.06.12.13.15l.45.14a.46.46,0,0,1,.33.34.52.52,0,0,1-.25.53.89.89,0,0,1-.93-.07.42.42,0,0,1-.18-.34c0-.1,0-.11.1-.11Z"/><path class="a2ad19b7-6c19-4737-8694-6449e62fa0c5" d="M14.43,20.61a1.43,1.43,0,0,0,0,.22c0,.06,0,.08-.07.09l-1.05.21c-.07,0-.1,0-.12-.08-.1-.46-.21-.93-.32-1.39,0-.11,0-.12.1-.14l1-.22c.08,0,.11,0,.12.07s0,0,0,.05,0,.17-.13.2l-.61.13a.07.07,0,0,0-.05.09l0,.14c0,.07.06.08.13.07L14,20c.12,0,.13,0,.16.11a.13.13,0,0,0,0,.06.08.08,0,0,1-.08.11l-.54.12c-.08,0-.1,0-.09.12l.06.21c0,.08.05.08.12.07l.62-.13Z"/><path class="a2ad19b7-6c19-4737-8694-6449e62fa0c5" d="M12.19,21.27l-.28,0c-.06,0-.07,0-.07-.09,0-.25-.06-.51-.08-.77s0-.26,0-.4,0-.06-.07-.06h-.27c-.15,0-.15,0-.16-.15s0-.14.11-.15l1.11-.1c.1,0,.13,0,.14.12s0,.18-.18.2l-.21,0c-.06,0-.09,0-.09.1,0,.36.07.72.1,1.08Z"/><path class="a2ad19b7-6c19-4737-8694-6449e62fa0c5" d="M6.61,20.43c.22-.47.43-.95.65-1.42a.07.07,0,0,1,.1,0c.27.08.28.09.17.33l-.39.88c0,.08,0,.12.06.15l.54.23s.07,0,0,.08a.49.49,0,0,1,0,.11c-.06.13-.06.13-.2.07l-.77-.31Z"/><path class="a2ad19b7-6c19-4737-8694-6449e62fa0c5" d="M8.69,21.15a1.8,1.8,0,0,1-.22-.06c-.05,0-.06,0,0-.09.12-.47.23-.93.35-1.4,0-.11.05-.12.15-.09l.09,0c.15,0,.15,0,.11.16-.12.46-.24.92-.35,1.38C8.76,21.13,8.74,21.15,8.69,21.15Z"/><path class="a2ad19b7-6c19-4737-8694-6449e62fa0c5" d="M18.31,8.71l.12.22.14.23h-.26a.15.15,0,0,1,0-.06c-.07-.11-.13-.22-.19-.33l-.09,0s0,0,0,.08,0,.23,0,.35h-.23v-1h.6a.24.24,0,0,1,.21.19.28.28,0,0,1-.08.32ZM18,8.53h.25s.07,0,.08-.07a.2.2,0,0,0,0-.12,1.43,1.43,0,0,0-.29,0,.44.44,0,0,0,0,.15S18,8.5,18,8.53Z"/></svg>