<svg id="b80be594-a82e-43a1-b5bb-32a4c1e8967b" data-name="Layer 1" xmlns="http://www.w3.org/2000/svg" viewBox="0 0 18.76 15.49"><defs><style>.a0604e6f-27ee-49fa-9f9f-deb8c653c523{fill:#fff;}</style></defs><path class="a0604e6f-27ee-49fa-9f9f-deb8c653c523" d="M14.75,9.37a2.91,2.91,0,0,1-1,.91,3,3,0,0,1-1.3.31,2.68,2.68,0,0,1-.84-.13,2.87,2.87,0,0,1-.79-.38A2.9,2.9,0,0,1,9.56,7.74a3.06,3.06,0,0,1,.13-.84,2.59,2.59,0,0,1,.39-.78,2.71,2.71,0,0,1,1-.91,2.83,2.83,0,0,1,1.3-.31,3,3,0,0,1,.84.12,2.9,2.9,0,0,1,.79.39,2.63,2.63,0,0,1,.67.66L16,5.15a4.24,4.24,0,0,0-1-1,4.36,4.36,0,0,0-2.53-.79,4.44,4.44,0,0,0-2,.48A4.26,4.26,0,0,0,8.79,5.22a4.2,4.2,0,0,0-.6,1.22A4.46,4.46,0,0,0,8,7.74a4.49,4.49,0,0,0,1.89,3.63,4.64,4.64,0,0,0,1.23.59,4.1,4.1,0,0,0,1.3.2,4.41,4.41,0,0,0,2-.48A4.35,4.35,0,0,0,16,10.27l-1.28-.9Zm2.72,1.9a6.16,6.16,0,0,1-5.07,2.65,5.9,5.9,0,0,1-1.81-.28,6.28,6.28,0,0,1-1.71-.83,6.17,6.17,0,0,1-2-2.26,6.25,6.25,0,0,1-.67-2.81,6.32,6.32,0,0,1,.27-1.82A6.2,6.2,0,0,1,9.6,2.25a6.18,6.18,0,0,1,7.81,1.87l1.27-.93a8.06,8.06,0,0,0-1.84-1.8A7.74,7.74,0,0,0,6.06,3.32,7.6,7.6,0,0,0,5,5.46a7.73,7.73,0,0,0-.34,2.28A7.7,7.7,0,0,0,8,14.1a8,8,0,0,0,2.15,1,7.68,7.68,0,0,0,2.27.35,7.71,7.71,0,0,0,6.36-3.32l-1.29-.9Z"/><polygon class="a0604e6f-27ee-49fa-9f9f-deb8c653c523" points="4.8 6.94 1.57 6.94 1.57 1.74 5.4 1.74 6.58 0.17 0 0.17 0 15.19 1.57 14.14 1.57 8.51 4.8 8.51 4.8 6.94"/></svg>