<svg id="Layer_1" data-name="Layer 1" xmlns="http://www.w3.org/2000/svg" xmlns:xlink="http://www.w3.org/1999/xlink" viewBox="0 0 266 339"><defs><style>.cls-1{fill:none;}.cls-2{clip-path:url(#clip-path);}.cls-3{opacity:0.3;}.cls-4{fill:#c7c8ca;}</style><clipPath id="clip-path"><rect class="cls-1" x="-10" y="-6.44" width="282.6" height="345.44"/></clipPath></defs><title>Artboard 1</title><g class="cls-2"><g class="cls-2"><g class="cls-3"><g class="cls-2"><polyline class="cls-4" points="120.29 338 139.6 304.8 144 312.59 154.17 312.59 159.25 303.78 149.76 287.18 171.45 249.57 181.27 266.85 191.44 266.85 196.52 258.04 181.95 231.62 192.79 212.65 221.93 212.65 232.77 231.96 218.2 257.7 223.28 266.51 233.45 266.51 242.93 249.57 263.6 284.81 263.6 249.57 258.52 240.76 263.6 240.76 263.6 223.15 248.01 222.81 237.17 203.84 251.74 178.77 263.6 178.77 263.6 161.15 251.74 161.15 237.17 135.74 248.01 116.77 263.6 116.77 263.6 98.81 258.52 99.15 263.6 90.34 263.6 54.77 242.93 90.34 233.45 73.06 222.94 73.06 217.86 81.87 232.77 107.96 221.93 126.93 192.79 126.93 181.61 107.96 196.52 81.87 191.44 73.06 180.93 73.06 171.45 90 149.76 52.73 159.25 36.13 154.17 26.98 144 26.98 139.6 34.78 119.61 0.56 99.28 0.56 124.36 43.59 115.21 43.59 110.13 52.4 115.21 61.54 134.52 61.54 156.2 99.15 136.55 98.81 131.13 107.62 136.55 116.77 166.37 116.77 177.55 135.74 162.98 161.15 140.96 161.15 125.71 135.4 115.55 135.4 110.46 144.21 120.29 161.15 76.92 161.15 67.44 144.55 56.93 144.55 51.85 153.36 56.26 161.15 4.08 161.15 -1 169.96 4.08 178.77 56.59 178.77 51.85 186.56 56.93 195.37 67.44 195.37 76.92 178.77 120.29 178.77 110.46 195.71 115.55 204.51 125.71 204.51 140.96 178.77 162.98 178.77 177.55 203.84 166.37 222.81 136.55 223.15 131.47 231.96 136.55 241.1 156.2 240.76 134.52 278.37 115.21 278.37 110.13 287.18 115.21 296.33 124.02 295.99 99.96 338"/></g></g></g></g></svg>