<?xml version="1.0" encoding="utf-8"?>
<!-- Generator: Adobe Illustrator 26.0.2, SVG Export Plug-In . SVG Version: 6.00 Build 0)  -->
<svg version="1.1" id="Layer_1" xmlns="http://www.w3.org/2000/svg" xmlns:xlink="http://www.w3.org/1999/xlink" x="0px" y="0px"
	 viewBox="0 0 465.3 172" style="enable-background:new 0 0 465.3 172;" xml:space="preserve">
<style type="text/css">
	.st0{fill:#FFFFFF;}
	.st1{fill:#D17A1A;}
	.st2{fill:#C83923;}
</style>
<g>
	<g>
		<g>
			<g>
				<path class="st0" d="M1.9,2.9h80.1v16.9H52.5v49.3H31.3V19.8H1.9V2.9z"/>
				<path class="st1" d="M54.4,70.9H29.5V21.6H0V1h83.8v20.6H54.4V70.9z M33.2,67.2h17.5V17.9h29.4V4.8H3.7v13.2h29.5V67.2z"/>
			</g>
			<g>
				<path class="st0" d="M132.8,1.9c14.3,0,24.1,0.4,29.5,1.1c7.7,1,12.5,4.7,14.2,11c1.2,4.3,1.8,11.6,1.8,22
					c0,10.3-0.6,17.7-1.8,22c-1.7,6.3-6.5,10-14.2,11c-5.4,0.7-15.1,1.1-29.3,1.1c-14.4,0-24.3-0.4-29.7-1.1
					c-7.7-1-12.5-4.7-14.2-11c-1.2-4.3-1.8-11.8-1.8-22.4c0-10.1,0.6-17.3,1.8-21.6c1.7-6.3,6.5-10,14.2-11
					C108.7,2.3,118.5,1.9,132.8,1.9z M132.9,19.1c-10.7,0-17.1,0.3-19.3,0.8c-2.5,0.6-4.1,2.1-4.9,4.3c-0.8,2.2-1.2,6.7-1.2,13.4
					c0,4,0.2,7,0.6,8.8c0.8,3.4,3.2,5.3,7.3,5.8c3,0.4,8.8,0.6,17.5,0.6c8.1,0,13.5-0.1,16.2-0.4c2.7-0.3,4.7-0.9,6-1.9
					c1.2-0.9,2-2.2,2.4-4c0.4-1.8,0.6-4.6,0.6-8.7c0-4.8-0.2-8.2-0.5-10.5c-0.3-2.2-0.9-3.9-1.7-5c-1.1-1.4-2.8-2.3-5.3-2.6
					C148.1,19.3,142.2,19.1,132.9,19.1z"/>
				<path class="st1" d="M133,71.9c-14.4,0-24.5-0.4-29.9-1.1c-8.5-1.1-13.8-5.3-15.7-12.3c-1.3-4.5-1.9-12-1.9-22.9
					c0-10.3,0.6-17.6,1.9-22.1c2-7.1,7.3-11.2,15.7-12.3c5.4-0.7,15.4-1.1,29.7-1.1c14.3,0,24.3,0.4,29.7,1.1
					c8.5,1.1,13.8,5.3,15.7,12.3c1.3,4.5,1.9,11.9,1.9,22.5c0,10.6-0.6,18-1.9,22.5c-2,7.1-7.3,11.2-15.7,12.3
					C157.1,71.5,147.2,71.9,133,71.9z M132.8,3.8c-14.2,0-24,0.4-29.2,1.1c-7,0.9-11.1,4.1-12.7,9.7c-1.1,4.1-1.7,11.2-1.7,21.1
					c0,10.4,0.6,17.8,1.7,21.9c1.5,5.6,5.7,8.7,12.7,9.7c5.3,0.7,15.2,1.1,29.4,1.1c14,0,23.8-0.4,29-1.1c7-0.9,11.1-4.1,12.7-9.7
					c1.1-4.1,1.7-11.4,1.7-21.5c0-10.1-0.6-17.3-1.7-21.5c-1.5-5.6-5.7-8.7-12.7-9.7C156.8,4.1,146.9,3.8,132.8,3.8z M132.9,54.7
					c-8.8,0-14.6-0.2-17.7-0.6c-6.1-0.7-8.2-4.3-8.9-7.2c-0.5-2-0.7-5-0.7-9.2c0-7,0.4-11.5,1.3-14c1-2.8,3.1-4.7,6.2-5.5
					c1.5-0.4,5.2-0.9,19.8-0.9c9.5,0,15.4,0.2,18,0.5c3,0.4,5.1,1.5,6.5,3.4c1,1.4,1.7,3.3,2.1,5.9c0.3,2.3,0.5,5.9,0.5,10.7
					c0,4.2-0.2,7.2-0.7,9.1c-0.5,2.2-1.5,3.9-3,5c-1.6,1.2-3.8,2-6.9,2.3C146.6,54.5,141.2,54.7,132.9,54.7z M132.9,21
					c-13.1,0-17.5,0.4-18.8,0.8c-1.9,0.5-3,1.5-3.6,3.1c-0.5,1.4-1.1,4.8-1.1,12.8c0,3.9,0.2,6.7,0.6,8.4c0.4,1.6,1.4,3.8,5.7,4.3
					c2.9,0.4,8.7,0.6,17.3,0.6c8,0,13.4-0.1,16-0.4c2.3-0.3,4-0.8,5-1.6c0.8-0.6,1.4-1.6,1.7-3c0.4-1.6,0.6-4.4,0.6-8.2
					c0-4.6-0.2-8.1-0.5-10.2c-0.3-1.9-0.7-3.3-1.4-4.2c-0.7-1-2.1-1.6-4-1.9C148,21.2,142.1,21,132.9,21z"/>
			</g>
			<g>
				<path class="st0" d="M186.9,2.9H207v30.4c0.1,7,0.3,11.4,0.7,13.2c0.5,2.6,2.2,4.3,5,5.1c2.8,0.8,8.5,1.2,17.1,1.2
					c7,0,11.8-0.2,14.5-0.6c2.7-0.4,4.6-1.2,5.7-2.4c0.7-0.8,1.3-1.9,1.6-3.1c0.3-1.2,0.5-3.2,0.7-6.2c0.2-3,0.2-5.4,0.2-7.3V2.9
					h20.2v30.4c-0.2,10.6-0.6,17.5-1,20.7c-0.8,5.6-3.5,9.6-7.9,12.2c-2.6,1.5-6.2,2.5-10.8,3S240.8,70,230.2,70
					c-8,0-14.1-0.1-18.5-0.4c-4.3-0.3-8.1-0.8-11.3-1.6c-7.1-1.7-11.2-5.9-12.4-12.8c-0.5-2.6-0.7-5-0.8-7.1
					c-0.1-2.1-0.2-7.1-0.3-14.8V2.9z"/>
				<path class="st1" d="M230.2,71.9c-8,0-14.2-0.1-18.6-0.4c-4.4-0.3-8.3-0.8-11.6-1.6c-7.8-1.9-12.5-6.7-13.8-14.3
					c-0.5-2.7-0.8-5.2-0.9-7.3c-0.1-2.2-0.2-7-0.3-14.9V1h23.9v32.2c0.1,8.5,0.4,11.7,0.7,12.9c0.4,1.9,1.6,3.1,3.7,3.7
					c2.6,0.8,8.2,1.1,16.6,1.1c6.9,0,11.6-0.2,14.2-0.6c2.2-0.3,3.8-1,4.7-1.8c0.5-0.6,0.9-1.3,1.1-2.2c0.2-0.7,0.5-2.3,0.6-5.8
					c0.2-2.9,0.2-5.4,0.2-7.2V1h23.9v32.2c-0.2,10.8-0.6,17.6-1,21c-0.9,6.1-3.9,10.7-8.9,13.6c-2.8,1.6-6.6,2.7-11.5,3.2
					C248.6,71.6,240.8,71.9,230.2,71.9z M188.7,4.8v28.5c0.1,7.7,0.2,12.6,0.3,14.7c0.1,2.1,0.4,4.4,0.8,6.9
					c1.1,6.1,4.7,9.8,11,11.3c3.1,0.7,6.8,1.2,11,1.5c4.3,0.3,10.4,0.4,18.3,0.4c10.5,0,18.2-0.3,22.7-0.8c4.4-0.5,7.8-1.4,10.1-2.8
					c4-2.3,6.3-5.9,7-10.9c0.4-3.2,0.8-10.1,1-20.5l0-28.5h-16.4v28.5c0,1.9-0.1,4.4-0.2,7.4c-0.2,3.1-0.4,5.2-0.8,6.5
					c-0.4,1.5-1,2.8-2,3.8c-1.5,1.6-3.7,2.5-6.9,3c-2.8,0.4-7.7,0.6-14.8,0.6c-8.9,0-14.6-0.4-17.6-1.3c-3.5-1-5.7-3.2-6.3-6.5
					c-0.4-2-0.7-6.4-0.8-13.6V4.8H188.7z"/>
			</g>
			<g>
				<path class="st0" d="M282.8,69.1V2.9h48.7c11.4,0,18.3,0.2,20.6,0.4c2.3,0.2,4.4,1,6.5,2.3c2.5,1.5,4.2,3.6,5.2,6.3
					c0.9,2.7,1.4,6.9,1.4,12.6c0,4.8-0.3,8.4-0.9,10.6c-0.6,2.3-1.7,4.1-3.4,5.4c-1.8,1.5-4.5,2.5-8,3c4.2,0.3,7.3,1.5,9.1,3.6
					c1.1,1.3,1.7,2.8,2,4.6c0.3,1.8,0.4,5.6,0.4,11.3v6.2h-19.9v-3.5c0-3.7-0.1-6.3-0.4-7.9c-0.3-1.6-0.8-2.8-1.5-3.6
					c-0.7-0.8-1.8-1.3-3.1-1.5c-1.3-0.2-4-0.3-8.2-0.3H303v16.8H282.8z M303,35.7h28.4c4.9-0.1,7.9-0.2,8.8-0.3
					c1-0.1,1.8-0.3,2.4-0.8c0.9-0.5,1.5-1.4,1.8-2.4c0.4-1.1,0.5-2.7,0.5-4.9c0-2.2-0.2-3.8-0.6-4.8s-1.1-1.8-2.1-2.3
					c-0.7-0.3-1.6-0.5-2.5-0.6c-1-0.1-3.8-0.1-8.5-0.1H303V35.7z"/>
				<path class="st1" d="M366.4,70.9h-23.6v-5.4c0-3.6-0.1-6.1-0.4-7.6c-0.2-1.2-0.6-2.1-1.1-2.7c-0.4-0.4-1.1-0.7-2-0.9
					c-0.8-0.1-2.9-0.3-7.9-0.3h-26.5v16.8H281V1h50.6c11.6,0,18.4,0.2,20.7,0.4c2.5,0.2,5,1.1,7.3,2.5c2.9,1.7,4.9,4.2,6,7.2
					c1,2.9,1.5,7.2,1.5,13.2c0,5-0.3,8.6-1,11.1c-0.7,2.6-2,4.8-4,6.4c-0.6,0.5-1.4,1-2.2,1.4c1.4,0.7,2.5,1.5,3.5,2.6
					c1.3,1.5,2.1,3.4,2.5,5.5c0.3,1.9,0.5,5.7,0.5,11.6V70.9z M346.5,67.2h16.2v-4.3c0-5.6-0.1-9.3-0.4-11c-0.2-1.5-0.8-2.7-1.6-3.7
					c-1.5-1.7-4.1-2.7-7.8-3L336.6,44l16-2.5c3.2-0.5,5.6-1.4,7.2-2.6c1.3-1.1,2.2-2.6,2.7-4.5c0.6-2.1,0.8-5.5,0.8-10.1
					c0-5.5-0.4-9.5-1.3-12c-0.8-2.3-2.2-4-4.4-5.3c-1.9-1.1-3.8-1.8-5.8-2c-2.2-0.2-9.1-0.3-20.4-0.4h-46.9v62.4h16.4V50.4h30.3
					c4.3,0,7.1,0.1,8.5,0.3c1.7,0.3,3.1,1,4.1,2c1,1.2,1.7,2.7,2,4.6c0.3,1.7,0.4,4.4,0.4,8.2V67.2z M303,37.6h-1.9v-20h30.2
					c4.7,0,7.5,0.1,8.6,0.1c1.2,0.1,2.3,0.3,3.2,0.7c1.5,0.7,2.5,1.8,3.1,3.4c0.5,1.3,0.7,3.1,0.7,5.5c0,2.4-0.2,4.2-0.6,5.5
					c-0.5,1.5-1.4,2.7-2.6,3.4c-0.9,0.6-2,0.9-3.3,1c-1,0.1-3.9,0.2-9,0.3L303,37.6z M304.8,33.9h26.5c6-0.1,8.1-0.2,8.7-0.3
					c0.7-0.1,1.2-0.2,1.6-0.5c0.5-0.3,0.8-0.8,1.1-1.4c0.2-0.6,0.4-1.9,0.4-4.3c0-2.4-0.3-3.6-0.5-4.2c-0.2-0.6-0.6-1-1.2-1.3
					c-0.5-0.2-1.1-0.4-1.9-0.4c-0.7,0-2.6-0.1-8.3-0.1h-26.4V33.9z"/>
			</g>
			<g>
				<path class="st0" d="M4.4,144.8h21.6c0,3.6,0.7,5.9,2.2,7c1.1,0.7,2.5,1.1,4.2,1.2c1.7,0.1,7.1,0.2,16.1,0.3
					c9.5,0,15.1-0.1,17-0.2c1.9-0.1,3.4-0.4,4.5-0.8c1.6-0.7,2.5-2.5,2.5-5.5c0-2.2-0.6-3.6-1.7-4.4c-1.2-0.7-3.5-1.1-7.1-1.2
					c-2.8,0-8.6-0.2-17.5-0.6c-9.1-0.4-15.1-0.7-17.8-0.8c-5.4-0.2-9.5-0.7-12.4-1.5c-2.9-0.8-5.1-2.2-6.7-4.1
					c-2.8-3.1-4.1-8.4-4.1-15.8c0-8.3,1.6-14.1,4.7-17.5c2.4-2.6,6.1-4.3,11.1-5.1c5-0.7,15.1-1.1,30.3-1.1
					c10.8,0,18.3,0.3,22.7,0.9c6.7,0.9,11.3,2.8,13.9,5.6c2.5,2.8,3.8,7.5,3.8,14.2c0,0.6,0,1.8-0.1,3.4H69.8
					c-0.1-2-0.2-3.4-0.5-4.2c-0.3-0.8-0.8-1.4-1.6-1.8c-1-0.6-2.7-0.9-5.1-1.1c-2.4-0.2-7.6-0.2-15.5-0.2c-9.5,0-15.3,0.3-17.3,0.9
					c-2.1,0.6-3.1,2.2-3.1,4.9c0,2.6,1,4.2,3.1,4.7c1.7,0.5,9.6,0.9,23.7,1.3c11.8,0.4,19.8,0.8,23.8,1.3c4,0.5,7.2,1.4,9.5,2.8
					c2.7,1.6,4.6,3.8,5.7,6.6c1.1,2.8,1.7,6.8,1.7,12.1c0,6.9-0.9,12-2.8,15.4c-1.4,2.5-3.3,4.3-5.8,5.5c-2.5,1.2-6,2-10.5,2.5
					c-4.8,0.4-13.8,0.6-27,0.6c-11,0-19.2-0.3-24.4-0.9s-9.2-1.6-11.9-3.1C9,164.6,7.1,162.5,6,160c-1.1-2.6-1.6-6.5-1.6-11.8V144.8
					z"/>
				<path class="st1" d="M48,172c-11,0-19.3-0.3-24.6-0.9c-5.6-0.6-9.7-1.7-12.6-3.3c-3.1-1.8-5.3-4.2-6.5-7.2
					c-1.2-2.8-1.7-6.9-1.7-12.5v-5.3h25.4l0,1.9c0,3.9,0.9,5.1,1.4,5.4c0.7,0.5,1.9,0.8,3.2,0.9c1.6,0.1,7,0.2,16,0.3
					c9.4,0,15.1-0.1,16.9-0.2c1.7-0.1,3-0.3,3.9-0.7c1.1-0.5,1.3-2.3,1.3-3.8c0-1-0.2-2.3-0.9-2.8c-0.4-0.2-1.8-0.8-6.2-0.9
					c0,0,0,0,0,0c-2.8,0-8.5-0.2-17.5-0.6c-9-0.4-15-0.7-17.8-0.8c-5.6-0.2-9.8-0.7-12.8-1.6c-3.2-0.9-5.8-2.5-7.6-4.7
					c-3.1-3.5-4.6-9.1-4.6-17c0-8.8,1.7-15,5.2-18.8c2.7-2.9,6.8-4.9,12.2-5.6c5.1-0.8,15.1-1.1,30.6-1.1c10.8,0,18.5,0.3,23,0.9
					c7.2,1,12.1,3,15,6.2c2.8,3.2,4.2,8.2,4.2,15.4c0,0.6,0,1.8-0.1,3.5l0,1.8H68l-0.1-1.8c-0.1-2.5-0.3-3.4-0.4-3.6
					c-0.1-0.2-0.2-0.5-0.8-0.9c-0.4-0.2-1.5-0.7-4.3-0.8c-2.4-0.2-7.5-0.2-15.3-0.2c-11.5,0-15.5,0.4-16.8,0.8
					c-0.6,0.2-1.8,0.5-1.8,3.1c0,2.2,0.8,2.7,1.8,2.9c0.9,0.2,5.1,0.7,23.2,1.3c11.8,0.4,19.9,0.8,23.9,1.3c4.2,0.5,7.7,1.5,10.2,3
					c3.1,1.8,5.2,4.4,6.5,7.6c1.2,3.1,1.8,7.2,1.8,12.8c0,7.3-1,12.6-3,16.3c-1.6,2.8-3.8,4.9-6.6,6.3c-2.7,1.3-6.4,2.2-11.1,2.7
					C70.4,171.8,61.2,172,48,172z M6.3,146.6v1.6c0,5,0.5,8.7,1.4,11.1c0.9,2.2,2.5,3.9,4.9,5.3c2.4,1.3,6.2,2.3,11.1,2.8
					c5.2,0.6,13.3,0.8,24.2,0.8c13.1,0,22.1-0.2,26.8-0.6c4.3-0.4,7.6-1.2,9.8-2.3c2.2-1.1,3.8-2.6,5-4.8c1.7-3.1,2.6-7.9,2.6-14.5
					c0-5-0.5-8.8-1.5-11.4c-1-2.4-2.6-4.3-4.9-5.7c-2.1-1.2-5.1-2.1-8.8-2.5c-3.9-0.5-11.9-0.9-23.6-1.2
					c-19.1-0.6-22.9-1.1-24.1-1.4c-1.7-0.5-4.5-1.9-4.5-6.5c0-4.7,2.8-6.2,4.5-6.7c1.4-0.4,4.9-1,17.9-1c7.9,0,13.1,0.1,15.6,0.2
					c2.8,0.2,4.7,0.6,5.9,1.4c1.2,0.7,2,1.6,2.4,2.8c0.2,0.7,0.4,1.6,0.5,3h18.1c0-0.7,0-1.2,0-1.6c0-6.2-1.1-10.5-3.3-13
					c-2.2-2.5-6.5-4.1-12.7-5c-4.3-0.6-11.8-0.9-22.5-0.9c-15.1,0-25.2,0.4-30.1,1.1c-4.5,0.7-7.9,2.2-10,4.5
					c-2.8,3-4.2,8.5-4.2,16.3c0,6.9,1.2,11.8,3.7,14.6c1.4,1.6,3.3,2.8,5.9,3.5c2.7,0.8,6.7,1.3,11.9,1.5c2.8,0.1,8.8,0.3,17.9,0.8
					c8.9,0.4,14.7,0.6,17.4,0.6c4.1,0.1,6.6,0.6,8.1,1.5c1.7,1.1,2.6,3.1,2.6,5.9c0,3.8-1.2,6.3-3.6,7.2c-1.3,0.6-3,0.9-5.1,1
					c-1.9,0.1-7.5,0.2-17.1,0.2c-9.2-0.1-14.5-0.2-16.2-0.3c-2-0.1-3.7-0.6-5-1.5c-1.8-1.2-2.8-3.4-3-6.7H6.3z"/>
			</g>
			<g>
				<path class="st0" d="M98.7,95.7h88.7v18.7h-32.6V169h-23.5v-54.6H98.7V95.7z"/>
				<path class="st1" d="M156.7,170.9h-27.2v-54.6H96.8V93.9h92.4v22.4h-32.6V170.9z M133.2,167.2H153v-54.6h32.6v-15h-85v15h32.6
					V167.2z"/>
			</g>
			<g>
				<path class="st0" d="M190.8,95.7h29.4l23.9,29.4l22.9-29.4H296l-40.1,47.4V169h-23.1v-25.9L190.8,95.7z"/>
				<path class="st1" d="M257.8,170.9h-26.8v-27.1l-44.3-49.9H221l23,28.2l22-28.2h34l-42.3,49.9V170.9z M234.7,167.2H254v-24.8
					l38-44.8h-24.2l-23.8,30.5l-24.8-30.5h-24.4l39.8,44.8V167.2z"/>
			</g>
			<g>
				<path class="st0" d="M300.1,95.7h23.5v54.6h52.1V169h-75.6V95.7z"/>
				<path class="st1" d="M377.5,170.9h-79.3v-77h27.2v54.6h52.1V170.9z M301.9,167.2h71.9v-15h-52.1V97.6h-19.8V167.2z"/>
			</g>
			<g>
				<path class="st0" d="M381.9,95.7h81.2V113h-59.2v10.6H460v16.1h-56.2v11.8h59.6V169h-81.6V95.7z"/>
				<path class="st1" d="M465.3,170.9H380v-77h84.9v21h-59.2v6.9h56.2v19.8h-56.2v8h59.6V170.9z M383.7,167.2h77.9v-13.9H402v-15.5
					h56.2v-12.4H402v-14.3h59.2V97.6h-77.5V167.2z"/>
			</g>
		</g>
	</g>
	<g>
		<circle class="st0" cx="421.9" cy="35.7" r="34.9"/>
		<path class="st2" d="M421.9,71.5c-19.7,0-35.7-16-35.7-35.7S402.2,0,421.9,0c19.7,0,35.7,16,35.7,35.7S441.6,71.5,421.9,71.5z
			 M421.9,1.7c-18.8,0-34.1,15.3-34.1,34.1s15.3,34.1,34.1,34.1c18.8,0,34.1-15.3,34.1-34.1S440.7,1.7,421.9,1.7z"/>
	</g>
	<g>
		<path class="st2" d="M399.5,23.7h8.1v25.4h-8.1V23.7z"/>
		<path class="st2" d="M411.6,23.7h13.5l13.3,18.9h0.8L439,23.7h7.9v25.4h-13.4l-13.3-18.9h-0.8l0.2,18.9h-7.9V23.7z"/>
	</g>
</g>
</svg>
