<?xml version="1.0" encoding="utf-8"?>
<!-- Generator: Adobe Illustrator 16.0.0, SVG Export Plug-In . SVG Version: 6.00 Build 0)  -->
<!DOCTYPE svg PUBLIC "-//W3C//DTD SVG 1.1//EN" "http://www.w3.org/Graphics/SVG/1.1/DTD/svg11.dtd">
<svg version="1.1"
	 id="Layer_1" xmlns:dc="http://purl.org/dc/elements/1.1/" xmlns:cc="http://creativecommons.org/ns#" xmlns:rdf="http://www.w3.org/1999/02/22-rdf-syntax-ns#" xmlns:svg="http://www.w3.org/2000/svg" xmlns:sodipodi="http://sodipodi.sourceforge.net/DTD/sodipodi-0.dtd" xmlns:inkscape="http://www.inkscape.org/namespaces/inkscape"
	 xmlns="http://www.w3.org/2000/svg" xmlns:xlink="http://www.w3.org/1999/xlink" x="0px" y="0px" width="368.64px"
	 height="294.915px" viewBox="121.18 82.443 368.64 294.915" enable-background="new 121.18 82.443 368.64 294.915"
	 xml:space="preserve">
<g transform="translate(0,-952.36218)">
	<path fill="#FFFFFF" d="M305.252,1034.807c-1.934,0.042-3.738,0.682-5.472,1.872l-175.104,138.24
		c-4.029,3.235-4.601,9.206-1.584,13.104c2.973,3.842,9.296,4.457,13.104,1.44l169.344-133.632l169.344,133.632
		c3.808,3.017,9.957,2.378,12.96-1.44c2.98-3.79,2.66-10.086-1.44-13.104l-65.664-51.84v-79.056c0-5.09-4.126-9.215-9.216-9.216
		H374.66c-5.09,0.001-9.216,4.126-9.217,9.216v35.424l-54.144-42.768C309.248,1035.328,307.186,1034.767,305.252,1034.807z
		 M383.876,1053.239h18.432v55.296l-18.432-14.544V1053.239z M190.34,1158.791l-18.432,14.544v147.167
		c0,5.09,4.126,9.216,9.216,9.217h87.552c5.089-0.001,9.215-4.127,9.216-9.217v-82.944h55.296v82.944
		c0.001,5.09,4.127,9.216,9.217,9.217h87.552c5.089-0.001,9.215-4.127,9.216-9.217v-147.167l-18.433-14.544v152.496h-69.12v-82.944
		c0-5.09-4.126-9.215-9.215-9.216h-73.729c-5.09,0-9.215,4.126-9.216,9.216v82.944h-69.12V1158.791z"/>
</g>
</svg>
