<?xml version="1.0" encoding="utf-8"?>
<!-- Generator: Adobe Illustrator 21.0.0, SVG Export Plug-In . SVG Version: 6.00 Build 0)  -->
<svg version="1.1" id="Layer_1" xmlns="http://www.w3.org/2000/svg" xmlns:xlink="http://www.w3.org/1999/xlink" x="0px" y="0px"
	 viewBox="0 0 100 100" style="enable-background:new 0 0 100 100;" xml:space="preserve">
<style type="text/css">
	.st0{fill:#0F0F0F;}
</style>
<g>
	<g>
		<path class="st0" d="M42.6,9.8C20.4,9.8,2.4,27.8,2.4,50l0,0c0,22.2,18,40.2,40.2,40.2s40.2-18,40.2-40.2
			C82.7,27.8,64.8,9.8,42.6,9.8L42.6,9.8z M35.6,21.2c1,0,1.7,0.8,1.7,1.7c0,0.8-0.6,1.5-1.3,1.7C24.5,27.6,16.4,38,16.4,50
			c0,1-0.8,1.8-1.7,1.8c-1,0-1.8-0.8-1.8-1.7l0,0c0-13.5,9.2-25.3,22.2-28.7C35.3,21.2,35.4,21.2,35.6,21.2L35.6,21.2z M42.6,36
			c7.7,0,14,6.3,14,14l0,0c0,7.7-6.3,14-14,14s-14-6.3-14-14C28.6,42.3,34.9,36,42.6,36L42.6,36z M70.5,48.3c1,0,1.8,0.8,1.8,1.7
			c0,0,0,0,0,0.1c0,13.5-9.2,25.3-22.2,28.7c-0.9,0.3-1.9-0.3-2.1-1.2c-0.3-0.9,0.3-1.9,1.2-2.1l0,0C60.7,72.4,68.8,62,68.8,50
			C68.8,49.1,69.5,48.3,70.5,48.3L70.5,48.3z"/>
		<path class="st0" d="M48.7,50c0,3.4-2.7,6.1-6.1,6.1c-3.4,0-6.1-2.7-6.1-6.1c0-3.4,2.7-6.1,6.1-6.1S48.7,46.6,48.7,50z"/>
		<path class="st0" d="M91.5,81.4v4.4c0,1,0.8,1.8,1.7,1.8s1.8-0.8,1.8-1.7l0,0v-4.4h-3.5V81.4z"/>
		<path class="st0" d="M84.5,16.8c-1.6,0-2.3,1.9-1.2,3l8.2,8.2c0,12,0,35.9,0,35.9H95c0,0,0-24.4,0-36.7c0-0.5-0.2-0.9-0.5-1.2
			l-8.7-8.7C85.4,17,85,16.8,84.5,16.8L84.5,16.8z"/>
		<path class="st0" d="M90.3,67.5c-0.8,0-1.5,0.7-1.5,1.5v7.5c0,0.8,0.7,1.5,1.5,1.5h5.8c0.8,0,1.5-0.7,1.5-1.5V69
			c0-0.8-0.7-1.5-1.5-1.5H90.3z"/>
	</g>
</g>
</svg>
