<?xml version="1.0" encoding="utf-8"?>
<!-- Generator: Adobe Illustrator 21.0.0, SVG Export Plug-In . SVG Version: 6.00 Build 0)  -->
<svg version="1.1" id="Layer_1" xmlns="http://www.w3.org/2000/svg" xmlns:xlink="http://www.w3.org/1999/xlink" x="0px" y="0px"
	 viewBox="0 0 100 100" style="enable-background:new 0 0 100 100;" xml:space="preserve">
<style type="text/css">
	.st0{fill:#FFFFFF;}
</style>
<g>
	<path class="st0" d="M83.5,87.6V47.7L73.1,36.2l-3.9,4.3l-17.5-20V10H57V6.8h-5.4V1.2h-3.3v5.5H43V10h5.4v10.4l-17.5,20l-3.9-4.3
		L16.5,47.7v39.9H7.3v11.1h85.4V87.6L83.5,87.6L83.5,87.6z M71.5,54h3.3v4.8H79V62h-4.2v11.6h-3.3V62h-4.3v-3.3h4.3V54z M21,58.7
		h4.3V54h3.3v4.8h4.2V62h-4.2v11.6h-3.3V62H21V58.7z M33,42.9L50,23.6l17,19.3l-4.4,4.8v39.9h-2.1V47.7L50,36.2L39.5,47.7v39.9h-2.1
		V47.7L33,42.9z M57.2,87.6H42.8V49l7.2-8l7.2,8V87.6z M89.4,95.5H10.6v-4.6h78.9L89.4,95.5z"/>
</g>
</svg>
