<?xml version="1.0" encoding="utf-8"?>
<!-- Generator: Adobe Illustrator 21.0.0, SVG Export Plug-In . SVG Version: 6.00 Build 0)  -->
<svg version="1.1" id="Layer_1" xmlns="http://www.w3.org/2000/svg" xmlns:xlink="http://www.w3.org/1999/xlink" x="0px" y="0px"
	 viewBox="0 0 100 100" style="enable-background:new 0 0 100 100;" xml:space="preserve">
<style type="text/css">
	.st0{fill:#FFFFFF;}
</style>
<g id="XMLID_4_">
	<path class="st0" d="M79.4,9.5c0.8,0.9,1.1,2.3,0.9,4.2l-5.6,45.5c0,0.1,0,0.2,0,0.2c0,1.4,0,2.6,0,3.8c0,14.5,0,14.5-5.3,21.6
		C69.1,85.2,69,85.6,69,86v7.6c0,2.1-1.7,3.8-3.7,3.8H31c-2,0-3.7-1.7-3.7-3.8V86c0-0.6-0.3-1.1-0.7-1.5c-0.1-0.1-6.8-5.7-7-13.5
		c0-0.1,0-0.1,0-0.2c0-9,0.6-9.9,4.5-11.5c0,0,0,0,0.1,0c0,0,0,0,0.1,0c0.1,0,0.1-0.1,0.2-0.1c0,0,0.1-0.1,0.1-0.1
		c5.6-3.9,8.7-8.4,10.3-10.8c0.7-1,1.5-2,2.5-2.5c0,0,0.1,0,0.1,0c0,0,0.1,0,0.2-0.1c0.2-0.1,0.4-0.2,0.7-0.2c0.1,0,0.2,0,0.2,0
		c0,0,0,0,0,0c0.1,0,0.1,0,0.2,0c0.1,0,0.1,0,0.2,0c0.1,0,0.1,0,0.2,0c0.2,0,0.3,0.1,0.5,0.2c0,0,0.1,0,0.1,0.1
		c0.1,0.1,0.3,0.2,0.4,0.3c0.1,0.1,0.2,0.2,0.3,0.2c0.1,0.1,0.1,0.1,0.2,0.2c0.1,0.1,0.3,0.3,0.4,0.5c0.1,0.1,0.1,0.2,0.2,0.2
		c0.9,1.4,1.3,3.2,1,4.6c0,0.1-0.1,0.3-0.1,0.4c0,0.1-0.1,0.3-0.2,0.4c-0.1,0.1-0.1,0.3-0.2,0.4c-0.1,0.1-0.1,0.2-0.2,0.3
		c-0.1,0.1-0.1,0.3-0.2,0.4c-1.4,2.2-4.5,5.9-11.6,11.8c-0.8,0.7-0.9,1.9-0.2,2.7c0.4,0.4,0.9,0.7,1.5,0.7c0.4,0,0.9-0.1,1.2-0.4
		c1.9-1.6,3.6-3.1,5.1-4.5c1.6,1.9,3.9,3,6.1,3c2.8,0,5.1-1.6,6.5-3.7c1.6,2.2,4,3.7,6.7,3.7c4.9,0,8.4-5,8.4-9.5V36.7c0,0,0,0,0,0
		c0-0.4,0-0.8-0.1-1.2c0,0,0-0.1,0-0.1l5.7-20.8c0.7-2.3,2.2-6.2,4.9-6.2C77.4,8.3,78.7,8.7,79.4,9.5z"/>
	<path class="st0" d="M48.1,50.9v6.7c0,2.6-2,5.7-4.6,5.7c-1.2,0-2.4-0.7-3.3-1.8c2-2.2,3.6-4.1,4.6-5.8c0.1-0.1,0.1-0.2,0.2-0.4
		c0.2-0.3,0.4-0.7,0.5-1c0.1-0.3,0.3-0.6,0.4-0.9c0.1-0.2,0.1-0.5,0.2-0.7c0-0.1,0.1-0.3,0.1-0.4c0.1-0.4,0.1-0.9,0.1-1.4H48.1z"/>
	<path class="st0" d="M48.1,36.7v14.2h-1.9c0-0.3,0-0.6-0.1-1c-0.1-0.8-0.3-1.7-0.5-2.5c-0.7-2-2-3.8-3.7-4.9
		c-0.1,0-0.1-0.1-0.2-0.1c-0.1-0.1-0.2-0.1-0.4-0.2c-0.1-0.1-0.2-0.1-0.3-0.2c-0.1,0-0.2-0.1-0.2-0.1c-0.1,0-0.2-0.1-0.3-0.1
		c-0.1,0-0.3-0.1-0.4-0.1c-0.1,0-0.3-0.1-0.4-0.1c-0.1,0-0.2,0-0.4,0c-0.1,0-0.1,0-0.2,0c-0.1,0-0.3,0-0.4,0c0,0-0.1,0-0.1,0v-4.9
		c0-0.4,0-0.8,0.1-1.2c0-0.1,0.1-0.1,0.1-0.2c0.5-2.1,2.2-4.3,4.4-4.3c2.2,0,4.1,2.2,4.7,4.3c0,0.1,0.1,0.2,0.1,0.3c0,0,0,0,0,0
		C48,36,48.1,36.4,48.1,36.7C48.1,36.7,48.1,36.7,48.1,36.7z"/>
	<path class="st0" d="M61.3,36.7v20.9c0,2.6-2,5.7-4.6,5.7c-2.6,0-4.9-3.1-4.9-5.7V36.7v0c0-0.4,0-0.8,0.1-1.2
		c0-0.1,0.1-0.1,0.1-0.2c0.3-1,0.8-2.1,1.6-2.9c0.1-0.1,0.2-0.2,0.3-0.3c0.2-0.2,0.4-0.3,0.6-0.5c0,0,0,0,0,0
		c0.1-0.1,0.2-0.1,0.3-0.2c0.1,0,0.2-0.1,0.3-0.1c0.1-0.1,0.3-0.1,0.4-0.1c0.1,0,0.3-0.1,0.4-0.1c0.1,0,0.3,0,0.4,0
		c0.1,0,0.3,0,0.4,0c0.1,0,0.3,0,0.4,0.1c0.1,0,0.3,0.1,0.4,0.1c0,0,0.1,0,0.1,0c0.1,0,0.2,0.1,0.3,0.1c1.5,0.7,2.6,2.4,3.1,4
		c0,0.1,0.1,0.2,0.1,0.3c0,0,0,0,0,0C61.3,36,61.3,36.4,61.3,36.7z"/>
	<path class="st0" d="M48,35.6c0-0.1-0.1-0.2-0.1-0.3c-0.6-2.1-2.5-4.3-4.7-4.3c-2.2,0-3.9,2.2-4.4,4.3c0,0.1,0,0.1-0.1,0.2
		c0.5-2.3,2.3-4.5,4.5-4.5C45.5,31,47.4,33.3,48,35.6z"/>
	<path class="st0" d="M34.8,35.1c0,0.1,0,0.2,0.1,0.3c-0.1,0.4-0.1,0.9-0.1,1.3V43c-1,0.7-2,1.7-3,3.1c-1.2,1.8-3.3,4.8-6.8,7.8
		L21.5,8.4c-0.1-1.4,0.6-3,1.7-4.3c0.9-1,2.1-1.6,3.2-1.6c1.2,0,2.6,0.5,3.9,3.9c0.4,1.1,0.7,2.4,1,4L34.8,35.1z"/>
</g>
</svg>
