<?xml version="1.0" encoding="utf-8"?>
<!-- Generator: Adobe Illustrator 21.0.0, SVG Export Plug-In . SVG Version: 6.00 Build 0)  -->
<svg version="1.1" id="Layer_1" xmlns="http://www.w3.org/2000/svg" xmlns:xlink="http://www.w3.org/1999/xlink" x="0px" y="0px"
	 viewBox="0 0 100 100" style="enable-background:new 0 0 100 100;" xml:space="preserve">
<style type="text/css">
	.st0{fill:#0F0F0F;}
</style>
<g>
	<g>
		<g>
			<path class="st0" d="M81.1,18.6c2.2,0,4.6,0.7,6.8,2.9c5.4,5.4,2.1,16.2-7.3,16.2c-1.9,0-4.1-0.4-6.5-1.5
				C70.7,43,59.5,67.8,59.5,67.8s-4.5-1.4-8.3-1.4c-1.9,0-3.7,0.3-4.6,1.4c-1,1.1-3.9,4.6-3.9,4.6l-10.3-7
				c3.7-3.7-1.5-10.5-1.5-10.5l42.6-33.6C73.3,21.3,76.8,18.6,81.1,18.6 M81.1,12.4L81.1,12.4c-6.2,0-11,3.6-11.6,4.1L26.9,50.1
				c-2.6,2.1-3.1,5.9-1.1,8.6c0.7,0.9,1.3,2.3,1.5,3.1c-0.9,1.2-1.4,2.8-1.2,4.3c0.2,1.8,1.2,3.5,2.7,4.5l10.3,7
				c1.1,0.7,2.3,1.1,3.5,1.1c1.8,0,3.5-0.8,4.8-2.2c0.9-1,2.3-2.7,3.2-3.7c0.2,0,0.4,0,0.7,0c2.3,0,5.5,0.8,6.5,1.1
				c0.6,0.2,1.2,0.3,1.8,0.3c2.4,0,4.6-1.4,5.6-3.6c0.1-0.2,7.8-17.2,12.3-26.8c1.1,0.2,2.1,0.3,3.2,0.3c6.7,0,12.4-3.7,14.9-9.7
				s1.2-12.7-3.2-17.1C89.1,14,85.3,12.4,81.1,12.4L81.1,12.4z"/>
		</g>
		<g>
			<path class="st0" d="M29.2,94.1c-0.8,0-1.5-0.3-2.1-0.9c-1.2-1.2-1.3-3.1-0.1-4.4l14.9-15.5c1.2-1.2,3.1-1.3,4.4-0.1
				c1.2,1.2,1.3,3.1,0.1,4.4l-15,15.5C30.8,93.7,30,94.1,29.2,94.1z"/>
		</g>
		<g>
			<path class="st0" d="M6.5,89.4c-0.8,0-1.6-0.3-2.2-1c-1.3-1.3-1.2-3.2,0-4.4l23.6-22.4c1.2-1.2,3.2-1.1,4.4,0.1
				c1.2,1.2,1.1,3.2-0.1,4.4L8.6,88.5C8,89.1,7.2,89.4,6.5,89.4z"/>
		</g>
		<g>
			<g>
				<circle class="st0" cx="65.6" cy="11.9" r="6"/>
			</g>
			<g>
				<path class="st0" d="M60.7,6.2c-0.4,0.3-0.4,0.9-0.1,1.3l4.1,4.8c0.3,0.4,0.9,0.4,1.3,0.1l0,0c0.4-0.3,0.4-0.9,0.1-1.3L62,6.3
					C61.7,6,61.1,5.9,60.7,6.2L60.7,6.2z"/>
			</g>
			<g>
				<path class="st0" d="M67.9,14.6c-1,0.8-1.5,1.8-1.2,2.2l3.1,3.5c0.3,0.4,3.9-2.7,3.6-3.1l-3.1-3.5
					C69.9,13.4,68.9,13.7,67.9,14.6L67.9,14.6z"/>
			</g>
		</g>
		<g>
			<g>
				<circle class="st0" cx="52.3" cy="22.6" r="6"/>
			</g>
			<g>
				<path class="st0" d="M47.4,16.9c-0.4,0.3-0.4,0.9-0.1,1.3l4.1,4.8c0.3,0.4,0.9,0.4,1.3,0.1l0,0c0.4-0.3,0.4-0.9,0.1-1.3l-4-4.8
					C48.4,16.6,47.8,16.6,47.4,16.9L47.4,16.9z"/>
			</g>
			<g>
				<path class="st0" d="M54.6,25.2c-1,0.8-1.5,1.8-1.2,2.2l3.1,3.5c0.3,0.4,3.9-2.7,3.6-3.1L57,24.4C56.7,24,55.6,24.4,54.6,25.2
					L54.6,25.2z"/>
			</g>
		</g>
		<g>
			<g>
				<circle class="st0" cx="39.1" cy="33.2" r="6"/>
			</g>
			<g>
				<path class="st0" d="M34.2,27.5c-0.4,0.3-0.4,0.9-0.1,1.3l4.1,4.8c0.3,0.4,0.9,0.4,1.3,0.1l0,0c0.4-0.3,0.4-0.9,0.1-1.3
					l-4.1-4.8C35.2,27.2,34.6,27.2,34.2,27.5L34.2,27.5z"/>
			</g>
			<g>
				<path class="st0" d="M41.3,35.9c-1,0.8-1.5,1.8-1.2,2.2l3.1,3.5c0.3,0.4,3.9-2.7,3.6-3.1L43.7,35C43.4,34.7,42.3,35,41.3,35.9
					L41.3,35.9z"/>
			</g>
		</g>
		<g>
			<g>
				<circle class="st0" cx="25.8" cy="43.9" r="6"/>
			</g>
			<g>
				<path class="st0" d="M20.9,38.2c-0.4,0.3-0.4,0.9-0.1,1.3l4.1,4.8c0.3,0.4,0.9,0.4,1.3,0.1l0,0c0.4-0.3,0.4-0.9,0.1-1.3
					l-4.1-4.8C21.9,37.9,21.3,37.8,20.9,38.2L20.9,38.2z"/>
			</g>
			<g>
				<path class="st0" d="M28,46.5c-1,0.8-1.5,1.8-1.2,2.2l3.1,3.5c0.3,0.4,3.9-2.7,3.6-3.1l-3.1-3.5C30.1,45.3,29,45.7,28,46.5
					L28,46.5z"/>
			</g>
		</g>
	</g>
</g>
</svg>
