<?xml version="1.0" encoding="utf-8"?>
<!-- Generator: Adobe Illustrator 21.0.0, SVG Export Plug-In . SVG Version: 6.00 Build 0)  -->
<svg version="1.1" id="Layer_1" xmlns="http://www.w3.org/2000/svg" xmlns:xlink="http://www.w3.org/1999/xlink" x="0px" y="0px"
	 viewBox="0 0 100 100" style="enable-background:new 0 0 100 100;" xml:space="preserve">
<style type="text/css">
	.st0{fill:#0F0F0F;}
</style>
<g>
	<g>
		<path class="st0" d="M51.8,25c-3.4-1-7,1-8,4.4c-0.2,0.6-0.2,1.2-0.3,1.8v2.6l-0.2,0.1c-4.5,1.6-7.7,4.1-7.2,5.6s3.6,1.4,7.5,0.4
			v23.9c0,14.8,12,26.8,26.8,26.8H71c14.8,0,26.8-12,26.8-26.8l0,0V31c0-3.6-2.9-6.5-6.5-6.4c-0.6,0-1.1,0.1-1.7,0.2
			C77.3,28.3,64.2,28.4,51.8,25z M49.5,46.8c0.5-1.5,4.6-1.4,9,0.2c4.5,1.6,7.7,4.1,7.2,5.5c-0.5,1.5-4.6,1.4-9-0.2
			S49,48.2,49.5,46.8z M70.2,80.2c-9.2,0-16.6-6.5-16.6-9c0-2.6,7.4,2.4,16.6,2.4s16.6-4.8,16.6-2.4C86.9,73.6,79.4,80.2,70.2,80.2z
			 M81.9,47c4.5-1.6,8.5-1.7,9-0.2s-2.7,3.9-7.2,5.5s-8.5,1.7-9,0.2C74.2,51,77.4,48.6,81.9,47L81.9,47z"/>
		<path class="st0" d="M31.6,79.9c1.4,0,2.6-1.1,2.6-2.6c0-0.3,0-0.6-0.1-0.9c-0.4-1.1-1.4-1.7-2.6-1.7c-13.3,0-24.1-10.8-24.1-24.2
			V18.8c0-0.9,0.3-1.8,0.8-2.5c1-1.2,2.6-1.8,4.1-1.4c12.7,3.5,26.1,3.4,38.8-0.2c1.1-0.3,2.3-0.1,3.3,0.7c1,0.7,1.5,1.9,1.5,3.1
			c0,1.3,1,2.4,2.3,2.6c1.4,0.2,2.7-0.8,2.9-2.2c0-0.1,0-0.2,0-0.3c0-2.8-1.3-5.5-3.6-7.2c-2.2-1.7-5.1-2.3-7.7-1.5
			c-11.7,3.3-24,3.4-35.8,0.3c-2.1-0.6-4.4-0.5-6.5,0.4c-3.2,1.5-5.3,4.7-5.3,8.2v31.9C2.3,66.8,15.4,79.9,31.6,79.9z"/>
		<ellipse transform="matrix(0.334 -0.9426 0.9426 0.334 -22.1366 42.2867)" class="st0" cx="18.9" cy="36.8" rx="2.8" ry="8.6"/>
		<path class="st0" d="M31.5,61.5c1.2,0,2.4,0.1,3.6,0.3c1.5,0.1,2.8-0.9,2.9-2.4c0.1-1.2-0.6-2.4-1.8-2.8c-1.5-0.4-3.2-0.7-4.8-0.7
			c-7.7,0-14,5.5-14,7.6C17.5,65.6,23.8,61.5,31.5,61.5z"/>
	</g>
</g>
</svg>
