<svg id="Layer_1" data-name="Layer 1" xmlns="http://www.w3.org/2000/svg" viewBox="0 0 238.52 106.03"><defs><style>.cls-1{fill:#fff;}.cls-2{fill:#0f0e1a;}</style></defs><path class="cls-1" d="M43.73,32H54v3.73H48.07V42h5v3.66h-5v8.2H43.73Z"/><path class="cls-1" d="M67.4,32a2.52,2.52,0,0,1,1.85.73A2.58,2.58,0,0,1,70,34.61v9.53a2.66,2.66,0,0,1-.53,1.68,2.27,2.27,0,0,1-1.44.84l2,7.23H65.69l-2-7.16H62v7.16H57.69V32Zm-1.78,4c0-.21-.08-.32-.26-.32H62V43.2h3.33a.21.21,0,0,0,.18-.1.31.31,0,0,0,.08-.19Z"/><path class="cls-1" d="M74.59,32h10.3v3.73h-6V41h5v3.66h-5v5.47h6v3.73H74.59Z"/><path class="cls-1" d="M89.17,32h10.3v3.73h-6V41h5v3.66h-5v5.47h6v3.73H89.17Z"/><path class="cls-1" d="M120.68,40.06a2.71,2.71,0,0,1-.53,1.6A3.53,3.53,0,0,1,119,42.78a2.33,2.33,0,0,1,1.27,1,3,3,0,0,1,.43,1.64v6a2.6,2.6,0,0,1-.61,1.78,2,2,0,0,1-1.64.72h-8.69V50.23H116a.34.34,0,0,0,.39-.39V44.75a.34.34,0,0,0-.39-.39h-5.66V40.8H116a.34.34,0,0,0,.39-.38V36.07a.34.34,0,0,0-.39-.39h-6.21V32h8.63a2.25,2.25,0,0,1,1.69.65,2.39,2.39,0,0,1,.62,1.72Z"/><path class="cls-1" d="M135.43,31.89a2.33,2.33,0,0,1,2.48,2.5v17.1A2.32,2.32,0,0,1,135.43,54H128a2.44,2.44,0,0,1-1.8-.68,2.41,2.41,0,0,1-.69-1.81V34.39a2.45,2.45,0,0,1,.69-1.82,2.48,2.48,0,0,1,1.8-.68Zm-2.25,18.43c.26,0,.39-.11.39-.35V35.91q0-.36-.39-.36h-2.94q-.39,0-.39.36V50c0,.24.13.35.39.35Z"/><path class="cls-1" d="M157.26,32a3.37,3.37,0,0,1,3.52,3.53V50.32a3.52,3.52,0,0,1-1,2.56,3.42,3.42,0,0,1-2.54,1h-8.75V32Zm-.82,4.64a.8.8,0,0,0-.91-.91h-2.68V50.16h2.68a.87.87,0,0,0,.67-.26.92.92,0,0,0,.24-.65Z"/><path class="cls-1" d="M177.69,53.89h-4.34v-6h-3.47v6h-4.34V34.39a2.34,2.34,0,0,1,.65-1.7,2.26,2.26,0,0,1,1.69-.67h7.45a2.33,2.33,0,0,1,1.7.67,2.31,2.31,0,0,1,.66,1.7Zm-4.34-9.69v-8a.47.47,0,0,0-.16-.39.7.7,0,0,0-.42-.13h-2.34a.48.48,0,0,0-.55.52v8Z"/><path class="cls-1" d="M185.85,53.89V47.28h-1.39a2.49,2.49,0,0,1-1.86-.73,2.52,2.52,0,0,1-.73-1.86V32h4.34V43.1a.3.3,0,0,0,.1.23.28.28,0,0,0,.19.09h3.14c.11,0,.16-.1.16-.32V32h4.34V44.69a2.49,2.49,0,0,1-.74,1.86,2.52,2.52,0,0,1-1.86.73h-1.35v6.61Z"/><path class="cls-1" d="M12.15,82.26H7.81v-6H4.34v6H0V62.76a2.34,2.34,0,0,1,.65-1.7,2.24,2.24,0,0,1,1.68-.66H9.78a2.28,2.28,0,0,1,2.37,2.36ZM7.81,72.58v-8a.45.45,0,0,0-.17-.38.6.6,0,0,0-.42-.13H4.89c-.37,0-.55.17-.55.51v8Z"/><path class="cls-1" d="M26.69,60.4v3.72H23.13V82.26H18.79V64.12H15.22V60.4Z"/><path class="cls-1" d="M36.05,60.4H46.28v3.72H40.39v6.29h5v3.66h-5v8.19H36.05Z"/><path class="cls-1" d="M54.35,60.4V78.31a.3.3,0,0,0,.08.21.22.22,0,0,0,.15.08h2.94a.32.32,0,0,0,.17-.08.27.27,0,0,0,.09-.21V60.4h4.41V79.67a2.49,2.49,0,0,1-.75,1.86,2.55,2.55,0,0,1-1.88.73h-7a2.49,2.49,0,0,1-1.86-.73A2.52,2.52,0,0,1,50,79.67V60.4Z"/><path class="cls-1" d="M67.31,60.4h4.34V78.47h5.21v3.79H67.31Z"/><path class="cls-1" d="M80.46,60.4H84.8V78.47H90v3.79H80.46Z"/><path class="cls-1" d="M97.69,60.36v1.88H95.9v9.07H93.7V62.24H91.92V60.36Zm3.14,4.6v6.35h-2v-11h2l1.78,5.19,1.69-5.19h2.14v11h-2.08V65L103,68.72h-.81Z"/><path class="cls-1" d="M125.87,60.4a2.54,2.54,0,0,1,1.87.73,2.46,2.46,0,0,1,.75,1.86V73.74a2.46,2.46,0,0,1-.75,1.86,2.54,2.54,0,0,1-1.87.73h-5.15v5.93h-4.41V60.4Zm-2.05,12.27a.23.23,0,0,0,.18-.09.29.29,0,0,0,.08-.2V64.44c0-.21-.08-.32-.26-.32h-3.1v8.55Z"/><path class="cls-1" d="M142.54,60.4a2.46,2.46,0,0,1,1.85.73A2.51,2.51,0,0,1,145.1,63v9.52a2.65,2.65,0,0,1-.53,1.69,2.31,2.31,0,0,1-1.44.84l2,7.22h-4.34l-2-7.16h-1.67v7.16h-4.34V60.4Zm-1.78,4.05c0-.22-.08-.33-.25-.33h-3.34v7.45h3.34a.21.21,0,0,0,.17-.1.26.26,0,0,0,.08-.19Z"/><path class="cls-1" d="M159.52,60.27a2.26,2.26,0,0,1,2.36,2.36V80a2.31,2.31,0,0,1-.66,1.7,2.28,2.28,0,0,1-1.7.67H151.9a2.25,2.25,0,0,1-1.71-.67,2.34,2.34,0,0,1-.65-1.7V62.63a2.34,2.34,0,0,1,.65-1.7,2.28,2.28,0,0,1,1.71-.66Zm-2,4a.35.35,0,0,0-.1-.26.24.24,0,0,0-.16-.09h-3.17a.17.17,0,0,0-.18.13.68.68,0,0,0-.05.22V78.34a.32.32,0,0,0,.07.2.18.18,0,0,0,.16.09h3.17a.22.22,0,0,0,.16-.08.24.24,0,0,0,.1-.21Z"/><path class="cls-1" d="M182.51,60.4v3.72H179V82.26h-4.34V64.12h-3.56V60.4Z"/><path class="cls-1" d="M195.53,60.4a2.48,2.48,0,0,1,1.85.73,2.55,2.55,0,0,1,.71,1.86v9.52a2.71,2.71,0,0,1-.53,1.69,2.31,2.31,0,0,1-1.44.84l2,7.22h-4.34l-2-7.16h-1.66v7.16h-4.34V60.4Zm-1.78,4.05c0-.22-.08-.33-.26-.33h-3.33v7.45h3.33a.21.21,0,0,0,.18-.1.26.26,0,0,0,.08-.19Z"/><path class="cls-1" d="M207,82.26h-4.25V60.4H207Z"/><path class="cls-1" d="M224,82.26H219.7v-6h-3.47v6h-4.34V62.76a2.34,2.34,0,0,1,.65-1.7,2.24,2.24,0,0,1,1.68-.66h7.45A2.28,2.28,0,0,1,224,62.76Zm-4.34-9.68v-8a.45.45,0,0,0-.17-.38.6.6,0,0,0-.42-.13h-2.33c-.37,0-.55.17-.55.51v8Z"/><path class="cls-1" d="M229,60.4h4.34V78.47h5.22v3.79H229Z"/><path class="cls-2" d="M53.46,12.3a1.34,1.34,0,0,1,1.09.43v.5c0,3.61,1.65,5.21,3.43,5.21,1,0,1.81-.93,1.81-2.29,0-.87-.16-1.59-2.63-4.73A7.51,7.51,0,0,1,55.3,6.48c0-3,2.28-6.11,5.63-6.11,2.87,0,4,1.65,4,3.24A2.47,2.47,0,0,1,63.8,5.79c-1.41-1.17-2.39-1.7-3.38-1.7a1.15,1.15,0,0,0-1.06,1.28c0,.85.45,1.88,2,4C63.59,12.57,64,13.68,64,15.25a7,7,0,0,1-7.23,6.59c-4.09,0-6.16-2.42-6.16-5.34C50.57,14.56,51.6,12.3,53.46,12.3Z"/><path class="cls-2" d="M65.92,12.46c0-1.57,2.37-4.36,4-4.36,1.22,0,1.32.67,1.32,1.7a9.51,9.51,0,0,1-.93,2.93A11.49,11.49,0,0,0,69.24,16c0,.29.14.4.38.4S71.18,15.57,73,13a1,1,0,0,1,1,1c0,1.67-4.22,6.16-6.67,6.16-1.57,0-2.1-.69-2.1-2.15a10.14,10.14,0,0,1,1-3.9A4.47,4.47,0,0,1,65.92,12.46Zm5-11.37a2.54,2.54,0,0,1,2.26,2c0,.64-.51,1.68-1.78,3.24-1,0-1.78-.77-1.78-2.31C69.62,1.86,70.07,1.09,70.92,1.09Z"/><path class="cls-2" d="M72.94,19.82c1.09,1.67,2.28,3,3.13,3,.4,0,.64-.27.75-1,.08-.61.29-2.39.47-4.38a3.77,3.77,0,0,1-2.76,2c-1.51,0-2.65-1.06-2.65-3.48,0-3.58,3.29-7.17,5.73-7.17.38,0,.56,0,.69.19a26.45,26.45,0,0,0,.16-2.69,1.59,1.59,0,0,1,1-.37c1.68,0,3,1.22,3,2.15A27.11,27.11,0,0,1,81.57,12c-.32,1.51-.61,3.58-.8,5.23a16.19,16.19,0,0,0,3.83-4.07c.66,0,1.14.38,1.14.85,0,1.31-2.81,4.31-5.18,6,0,0-.1.56-.18,1.06-.48,3.59-2.79,4.81-4.89,4.81s-4.73-1.54-4.73-3.64A2.36,2.36,0,0,1,72.94,19.82Zm2.84-4.65c0,1,.27,1.12.64,1.12a1.42,1.42,0,0,0,1.09-.54c.21-1.62.45-3.82.66-5.07A5.51,5.51,0,0,0,75.78,15.17Z"/><path class="cls-2" d="M84.2,11.93c0-1.57,2.37-4.36,4-4.36.91,0,1.15.32,1.15,1.12a9.94,9.94,0,0,1-1.07,3.82C90.23,9.17,92.07,8,93.23,8A1.7,1.7,0,0,1,95.07,9.8a7.71,7.71,0,0,1-.77,2.93A18.08,18.08,0,0,0,93,16.44c0,.3.13.4.37.4.53,0,2.21-1.35,3.85-3.72a1,1,0,0,1,1,.88c0,1.67-4.49,6.16-6.94,6.16-1.56,0-2.09-.69-2.09-2.15,0-1.75,1.35-4.43,1.35-5a.29.29,0,0,0-.32-.32c-.24,0-1.11.4-2.15,1.83a33.43,33.43,0,0,0-.61,5.05c-.27.27-.45.35-1.06.35a2.86,2.86,0,0,1-2.61-3,9.6,9.6,0,0,1,.67-3.32A4.27,4.27,0,0,1,84.2,11.93Z"/><path class="cls-2" d="M107.74,0c2.52,0,3.69,1.41,3.69,3.27,0,1.67-.37,3.37-1.91,7.33a14.46,14.46,0,0,0-1.3,4.68c0,1.3.55,1.91,1.67,1.91,1.83,0,3.93-3.22,5.31-9.19a16.32,16.32,0,0,1-.39-3.38c0-2,.58-3.5,2-3.5s3.06,1.46,3.06,2.47-.19,1.72-1.09,4c-2,9.35-5.82,13.15-10,13.15-3.21,0-5.18-1.7-5.18-4.62a14.11,14.11,0,0,1,1-4.6c1.78-4.54,2.23-6.16,2.23-7,0-.67-.32-.83-.74-.83a4.93,4.93,0,0,0-2.47,1.52,1.91,1.91,0,0,1-1.41-1.84C102.24,1.46,104.6,0,107.74,0Z"/><path class="cls-2" d="M118,24.28a9.4,9.4,0,0,1,1.38-3.88l.27-7.7C119.8,8.16,122.22,6,124.1,6c1.09,0,1.78.51,1.78,1.28a1.57,1.57,0,0,1,0,.29,8.2,8.2,0,0,0-2.42,4.41c1.7-2.53,3.4-3.8,4.52-3.8a2.12,2.12,0,0,1,2.09,2.39c0,1.65-1.16,3.77-2.92,5.82a1.7,1.7,0,0,0,1,.29c.62,0,2.29-1,4.07-3.51a1,1,0,0,1,1,.88c0,1.67-4.39,5.84-6.83,5.84A2.33,2.33,0,0,1,124,17.27a1.27,1.27,0,0,1,1-1.36,6.13,6.13,0,0,0,.83-2.36c0-.56-.19-.75-.53-.75s-.85.38-1.86,1.47c-.32,7.41-.93,12.38-2.55,12.38C119.59,26.65,118,25.61,118,24.28Z"/><path class="cls-2" d="M139.32,4.89c.38-3.69.8-4.17,2.16-4.17A3.52,3.52,0,0,1,144.53,4c0,.85-.58,2.12-2,4.57.82,0,3.24-.14,3.59-.22a1.5,1.5,0,0,1,.5,1.12,1.64,1.64,0,0,1-1.54,1.78c-.61,0-1.14,0-1.67-.08,1,.56,1.7,1.89,1.7,3.75,0,4.78-4,11.53-7.55,11.53-1.8,0-2.65-.85-2.65-2.32,0-1,.13-1.7,1.62-6.13.63-1.89,1.67-5.39,2-7-.51,0-.75-.24-.75-.67a1.61,1.61,0,0,1,1.15-1.59C139,7.81,139.22,6,139.32,4.89ZM139,22.5a1.48,1.48,0,0,0,0,.24c0,.19.13.27.32.27,1,0,3.21-4.65,3.21-7.52a3.49,3.49,0,0,0-.79-2.58A53.36,53.36,0,0,1,139,22.5Z"/><path class="cls-2" d="M156.17,11.08a10,10,0,0,1-.82,3.77.74.74,0,0,0,.53.19c.77,0,1.54-.61,2.41-2a1,1,0,0,1,1,1,4.57,4.57,0,0,1-4,3.62,1.76,1.76,0,0,1-1.06-.27c-1.28,1.73-2.68,2.74-4.54,2.74s-3.38-1.3-3.38-3.91c0-4.41,2.92-8.5,5.74-8.5.69,0,1.54.29,1.57,1.17a1.12,1.12,0,0,1,.93-.37C155.64,8.45,156.17,9.88,156.17,11.08ZM151,16.84c.64,0,1.28-.61,1.75-1.8a9.36,9.36,0,0,1-.29-2.31,8,8,0,0,1,.59-3.09c-1.65.77-3,3.35-3,5.53C150.09,16.47,150.56,16.84,151,16.84Z"/><path class="cls-2" d="M165.81,11.13a5.08,5.08,0,0,1-.72,2A9.65,9.65,0,0,0,164,16.34c0,.37.11.64.45.64.75,0,2.61-1.65,4-3.86a1,1,0,0,1,1.12.83c0,1.67-4.54,6.4-7,6.4-1.62,0-2.52-.72-2.52-2.23,0-1.76,1.3-4,1.3-4.7,0-.32-.29-.48-.88-.72a15.42,15.42,0,0,1-2.31,3.48,1,1,0,0,1-1.06-1,1.09,1.09,0,0,1,.19-.64,12.93,12.93,0,0,0,1.64-2.73,1.6,1.6,0,0,1-.39-1.09c0-1.86,2.79-4.49,4.27-4.49.91,0,1.52.43,1.52,1.14a1.78,1.78,0,0,1-.08.53,3.8,3.8,0,0,0-1.54,1.33,6.69,6.69,0,0,0,1.25.48C165.49,10.12,165.81,10.49,165.81,11.13Z"/><path class="cls-2" d="M175.83,19.82c-1.52,0-2.63-1.25-2.63-3.67,0-4,3.29-8.15,6-8.15a.91.91,0,0,1,.69.18l.08-1.54a1.22,1.22,0,0,1,.93-.34,2.54,2.54,0,0,1,2.79,2.15,7.18,7.18,0,0,1-.29,1.75,30.62,30.62,0,0,0-1.28,5.71c0,.53.11.61.32.61.53,0,1.91-1,3.61-3.4a.89.89,0,0,1,1,.83c0,1.72-4.41,6-6.32,6-1.17,0-1.91-.48-1.91-2.18a8.41,8.41,0,0,1,.08-1C178,19.15,176.76,19.82,175.83,19.82Zm3.88-9.91A6.63,6.63,0,0,0,177.1,15c0,1,.32,1.09.69,1.09a1.47,1.47,0,0,0,1.06-.67Z"/><path class="cls-2" d="M26.69,100.64v3.11H24.58v-3.11H21.89V98.81h2.69v-3h2.11v3h2.7v1.83Z"/><path class="cls-2" d="M35.13,92.63H40v1.91H37.35V98.3h2.19v1.83H37.35V104H40v1.9h-4.9Z"/><path class="cls-2" d="M44,98.44v7.47H42.17V92.63H44l2.52,8v-8h1.87v13.28H46.58Z"/><path class="cls-2" d="M53.94,94.54v11.37H51.75V94.54H50.08V92.63h5.53v1.91Z"/><path class="cls-2" d="M57.3,92.63h4.9v1.91H59.53V98.3h2.18v1.83H59.53V104H62.2v1.9H57.3Z"/><path class="cls-2" d="M67.32,101.49h-.75v4.42H64.35V92.63h4.48a1.52,1.52,0,0,1,1.17.45,1.65,1.65,0,0,1,.42,1.19v5.58a1.73,1.73,0,0,1-.26,1,1.42,1.42,0,0,1-.72.56l1,4.52h-2.2Zm.92-6.75c0-.13,0-.2-.14-.2H66.57v5.12H68.1a.12.12,0,0,0,.09-.06.21.21,0,0,0,0-.12Z"/><path class="cls-2" d="M78.67,94.54v11.37H76.48V94.54H74.81V92.63h5.53v1.91Z"/><path class="cls-2" d="M86.68,92.52A1.3,1.3,0,0,1,88,93.87v10.78a1.31,1.31,0,0,1-.38,1,1.34,1.34,0,0,1-1,.38H83.27a1.33,1.33,0,0,1-1-.38,1.35,1.35,0,0,1-.38-1V93.87a1.34,1.34,0,0,1,.38-1,1.3,1.3,0,0,1,1-.38Zm-.87,2a.27.27,0,0,0,0-.16s0-.05-.08-.05H84.24c-.06,0-.09,0-.09.07a.76.76,0,0,0,0,.14v9.37a.28.28,0,0,0,0,.11.08.08,0,0,0,.08.06h1.45s0,0,.08,0a.16.16,0,0,0,0-.12Z"/><path class="cls-2" d="M96.53,105.91H94.66L92.93,92.63H95l.8,8.6,1.07-8.6h1.85l1.12,8.66.82-8.66h2l-1.71,13.28H99.09l-1.28-8.83Z"/><path class="cls-2" d="M106.74,105.91h-2.1V92.63h2.1Z"/><path class="cls-2" d="M111.33,98.44v7.47h-1.87V92.63h1.85l2.52,8v-8h1.86v13.28h-1.82Z"/><path class="cls-2" d="M127.26,105.91h-2.18v-3.85h-1.57v3.85h-2.19V94a1.36,1.36,0,0,1,.37-1,1.3,1.3,0,0,1,1-.39h3.24A1.3,1.3,0,0,1,127.26,94Zm-2.18-5.68V94.84c0-.2-.09-.3-.28-.3h-1q-.27,0-.27.3v5.39Z"/><path class="cls-2" d="M132.89,92.63h4.92v1.91h-2.74v4.27h2.27v1.91h-2.27v5.19h-2.18Z"/><path class="cls-2" d="M142.63,101.49h-.75v4.42h-2.22V92.63h4.48a1.52,1.52,0,0,1,1.17.45,1.61,1.61,0,0,1,.43,1.19v5.58a1.73,1.73,0,0,1-.27,1,1.38,1.38,0,0,1-.72.56l1,4.52h-2.21Zm.92-6.75c0-.13,0-.2-.13-.2h-1.54v5.12h1.54s.05,0,.08-.06a.16.16,0,0,0,.05-.12Z"/><path class="cls-2" d="M148.14,92.63H153v1.91h-2.68V98.3h2.18v1.83h-2.18V104H153v1.9h-4.9Z"/><path class="cls-2" d="M155.18,92.63h4.9v1.91H157.4V98.3h2.19v1.83H157.4V104h2.68v1.9h-4.9Z"/><path class="cls-2" d="M164.74,103.93h2.58c.1,0,.16-.06.16-.18v-3.33a.15.15,0,0,0-.16-.17h-1.24a1.26,1.26,0,0,1-1-.39,1.33,1.33,0,0,1-.38-1V94a1.36,1.36,0,0,1,.37-1,1.27,1.27,0,0,1,1-.39h3.47v1.91h-2.48c-.09,0-.13.07-.13.22V98a.19.19,0,0,0,0,.12.1.1,0,0,0,.09.06h1.25a1.3,1.3,0,0,1,1,.39,1.33,1.33,0,0,1,.38,1v5a1.34,1.34,0,0,1-.38,1,1.3,1.3,0,0,1-1,.38h-3.57Z"/><path class="cls-2" d="M176.47,92.52a1.29,1.29,0,0,1,1,.38,1.31,1.31,0,0,1,.39,1v10.78a1.32,1.32,0,0,1-1.36,1.36h-3.41a1.29,1.29,0,0,1-1.35-1.36V93.87a1.34,1.34,0,0,1,.37-1,1.3,1.3,0,0,1,1-.38Zm-.87,2a.27.27,0,0,0,0-.16.1.1,0,0,0-.08-.05H174a.08.08,0,0,0-.09.07.76.76,0,0,0,0,.14v9.37a.89.89,0,0,0,0,.11.08.08,0,0,0,.08.06h1.45a.08.08,0,0,0,.08,0,.16.16,0,0,0,0-.12Z"/><path class="cls-2" d="M186.21,101v3.46a1.55,1.55,0,0,1-.43,1.15,1.48,1.48,0,0,1-1.14.44h-2.75a1.54,1.54,0,0,1-1.14-.44,1.58,1.58,0,0,1-.45-1.17V94.15a1.58,1.58,0,0,1,.45-1.19,1.51,1.51,0,0,1,1.14-.44h2.75a1.51,1.51,0,0,1,1.14.43,1.62,1.62,0,0,1,.43,1.18v3.4H184V94.64c0-.14,0-.22-.13-.22h-1.22c-.1,0-.14.08-.14.22v9.29c0,.13,0,.19.14.19h1.22s.05-.06.08-.19a1,1,0,0,0,.05-.3V101Z"/><path class="cls-2" d="M195.91,98.32v2.22h-7.74V98.32Z"/><path class="cls-2" d="M200.73,105.91h-2.11V92.63h2.11Z"/><path class="cls-2" d="M206.25,94.54v11.37h-2.18V94.54H202.4V92.63h5.53v1.91Z"/><path class="cls-2" d="M210.6,93.58v5.68h-1.1V93.58h-.85v-1h2.78v1Zm2.5,1.75v3.93h-1V92.61h1l.93,3.15.9-3.15h1v6.65h-1V95.33l-.69,2.14h-.39Z"/></svg>