<?xml version="1.0" encoding="utf-8"?>
<!-- Generator: Adobe Illustrator 26.3.1, SVG Export Plug-In . SVG Version: 6.00 Build 0)  -->
<svg version="1.1" id="Layer_1" xmlns="http://www.w3.org/2000/svg" xmlns:xlink="http://www.w3.org/1999/xlink" x="0px" y="0px"
	 viewBox="0 0 238.5 106" style="enable-background:new 0 0 238.5 106;" xml:space="preserve">
<style type="text/css">
	.st0{fill:#FFFFFF;}
	.st1{fill:#0F0E1A;}
</style>
<path class="st0" d="M12.1,82.3H7.8v-6H4.3v6H0V62.8c0-0.6,0.2-1.2,0.6-1.7c0.4-0.4,1.1-0.7,1.7-0.7h7.4c1.3-0.1,2.3,0.9,2.4,2.2
	c0,0.1,0,0.1,0,0.2V82.3z M7.8,72.6v-8c0-0.1-0.1-0.3-0.2-0.4c-0.1-0.1-0.3-0.1-0.4-0.1H4.9c-0.4,0-0.6,0.2-0.6,0.5v8L7.8,72.6z"/>
<path class="st0" d="M26.7,60.4v3.7h-3.6v18.1h-4.3V64.1h-3.6v-3.7H26.7z"/>
<path class="st0" d="M36,60.4h10.2v3.7h-5.9v6.3h5v3.7h-5v8.2H36V60.4z"/>
<path class="st0" d="M54.3,60.4v17.9c0,0.1,0,0.2,0.1,0.2c0,0,0.1,0.1,0.2,0.1h2.9c0.1,0,0.1,0,0.2-0.1c0.1-0.1,0.1-0.1,0.1-0.2
	V60.4h4.4v19.3c0,0.7-0.3,1.4-0.8,1.9c-0.5,0.5-1.2,0.8-1.9,0.7h-7c-0.7,0-1.4-0.2-1.9-0.7C50.2,81,50,80.4,50,79.7V60.4H54.3z"/>
<path class="st0" d="M67.3,60.4h4.3v18.1h5.2v3.8h-9.5V60.4z"/>
<path class="st0" d="M80.5,60.4h4.3v18.1H90v3.8h-9.5V60.4z"/>
<path class="st0" d="M97.7,60.4v1.9h-1.8v9.1h-2.2v-9.1h-1.8v-1.9H97.7z M100.8,65v6.3h-2v-11h2l1.8,5.2l1.7-5.2h2.1v11h-2.1V65
	l-1.4,3.7h-0.8L100.8,65z"/>
<path class="st0" d="M125.9,60.4c0.7,0,1.4,0.2,1.9,0.7c0.5,0.5,0.8,1.2,0.8,1.9v10.7c0,0.7-0.2,1.4-0.8,1.9
	c-0.5,0.5-1.2,0.8-1.9,0.7h-5.2v5.9h-4.4V60.4H125.9z M123.8,72.7c0.1,0,0.1,0,0.2-0.1c0.1-0.1,0.1-0.1,0.1-0.2v-7.9
	c0-0.2-0.1-0.3-0.3-0.3h-3.1v8.6L123.8,72.7z"/>
<path class="st0" d="M142.5,60.4c0.7,0,1.4,0.2,1.9,0.7c0.5,0.5,0.7,1.2,0.7,1.9v9.5c0,0.6-0.2,1.2-0.5,1.7
	c-0.4,0.4-0.9,0.7-1.4,0.8l2,7.2h-4.3l-2-7.2h-1.7v7.2h-4.3V60.4H142.5z M140.8,64.5c0-0.2-0.1-0.3-0.2-0.3h-3.3v7.4h3.3
	c0.1,0,0.1,0,0.2-0.1c0.1,0,0.1-0.1,0.1-0.2V64.5z"/>
<path class="st0" d="M159.5,60.3c1.2-0.1,2.3,0.9,2.4,2.2c0,0.1,0,0.1,0,0.2V80c0,0.6-0.2,1.2-0.7,1.7c-0.4,0.5-1.1,0.7-1.7,0.7
	h-7.6c-0.6,0-1.3-0.2-1.7-0.7c-0.4-0.5-0.7-1.1-0.6-1.7V62.6c0-0.6,0.2-1.2,0.6-1.7c0.5-0.4,1.1-0.7,1.7-0.7H159.5z M157.5,64.3
	c0-0.1,0-0.2-0.1-0.3c0-0.1-0.1-0.1-0.2-0.1h-3.2c-0.1,0-0.2,0-0.2,0.1c0,0.1,0,0.1-0.1,0.2v14.1c0,0.1,0,0.1,0.1,0.2
	c0,0.1,0.1,0.1,0.2,0.1h3.2c0.1,0,0.1,0,0.2-0.1c0.1,0,0.1-0.1,0.1-0.2L157.5,64.3z"/>
<path class="st0" d="M182.5,60.4v3.7H179v18.1h-4.3V64.1h-3.6v-3.7H182.5z"/>
<path class="st0" d="M195.5,60.4c0.7,0,1.4,0.2,1.9,0.7c0.5,0.5,0.7,1.2,0.7,1.9v9.5c0,0.6-0.2,1.2-0.5,1.7
	c-0.4,0.4-0.9,0.7-1.4,0.8l2,7.2h-4.3l-2-7.2h-1.7v7.2h-4.3V60.4H195.5z M193.8,64.5c0-0.2-0.1-0.3-0.3-0.3h-3.3v7.4h3.3
	c0.1,0,0.1,0,0.2-0.1c0.1,0,0.1-0.1,0.1-0.2V64.5z"/>
<path class="st0" d="M207,82.3h-4.2V60.4h4.2V82.3z"/>
<path class="st0" d="M224,82.3h-4.3v-6h-3.5v6h-4.3V62.8c0-0.6,0.2-1.2,0.6-1.7c0.4-0.4,1.1-0.7,1.7-0.7h7.4c1.3,0,2.3,1,2.3,2.2
	c0,0,0,0.1,0,0.1V82.3z M219.7,72.6v-8c0-0.1-0.1-0.3-0.2-0.4c-0.1-0.1-0.3-0.1-0.4-0.1h-2.3c-0.4,0-0.6,0.2-0.6,0.5v8L219.7,72.6z"
	/>
<path class="st0" d="M229,60.4h4.3v18.1h5.2v3.8H229V60.4z"/>
<path class="st1" d="M53.5,12.3c0.4,0,0.8,0.1,1.1,0.4v0.5c0,3.6,1.7,5.2,3.4,5.2c1,0,1.8-0.9,1.8-2.3c0-0.9-0.2-1.6-2.6-4.7
	c-1.2-1.4-1.9-3.1-1.9-4.9c0-3,2.3-6.1,5.6-6.1c2.9,0,4,1.7,4,3.2c0,0.9-0.4,1.7-1.1,2.2c-1.4-1.2-2.4-1.7-3.4-1.7
	c-0.6,0-1.1,0.6-1.1,1.2c0,0,0,0,0,0.1c0,0.8,0.5,1.9,2,4c2.2,3.2,2.6,4.3,2.6,5.9c-0.2,3.8-3.4,6.7-7.2,6.6c-4.1,0-6.2-2.4-6.2-5.3
	C50.6,14.6,51.6,12.3,53.5,12.3z"/>
<path class="st1" d="M65.9,12.5c0-1.6,2.4-4.4,4-4.4c1.2,0,1.3,0.7,1.3,1.7c-0.1,1-0.5,2-0.9,2.9c-0.5,1-0.9,2.1-1.1,3.3
	c0,0.3,0.1,0.4,0.4,0.4s1.6-0.8,3.4-3.4c0.6,0,1,0.4,1,1c0,1.7-4.2,6.2-6.7,6.2c-1.6,0-2.1-0.7-2.1-2.1c0.1-1.4,0.4-2.7,1-3.9
	C66,13.6,65.9,13,65.9,12.5z M70.9,1.1c1.1,0.1,2,0.9,2.3,2c0,0.6-0.5,1.7-1.8,3.2c-1,0-1.8-0.8-1.8-2.3C69.6,1.9,70.1,1.1,70.9,1.1
	z"/>
<path class="st1" d="M72.9,19.8c1.1,1.7,2.3,3,3.1,3c0.4,0,0.6-0.3,0.8-1c0.1-0.6,0.3-2.4,0.5-4.4c-0.5,1.1-1.6,1.8-2.8,2
	c-1.5,0-2.7-1.1-2.7-3.5c0-3.6,3.3-7.2,5.7-7.2c0.4,0,0.6,0,0.7,0.2c0.1-0.9,0.2-1.8,0.2-2.7c0.3-0.2,0.6-0.4,1-0.4
	c1.7,0,3,1.2,3,2.2c-0.2,1.3-0.5,2.6-0.9,3.9c-0.3,1.5-0.6,3.6-0.8,5.2c1.5-1.1,2.8-2.5,3.8-4.1c0.7,0,1.1,0.4,1.1,0.9
	c0,1.3-2.8,4.3-5.2,6c0,0-0.1,0.6-0.2,1.1c-0.5,3.6-2.8,4.8-4.9,4.8s-4.7-1.5-4.7-3.6C70.7,21,71.7,19.9,72.9,19.8z M75.8,15.2
	c0,1,0.3,1.1,0.6,1.1c0.4,0,0.8-0.2,1.1-0.5c0.2-1.6,0.4-3.8,0.7-5.1C76.7,11.7,75.8,13.4,75.8,15.2z"/>
<path class="st1" d="M84.2,11.9c0-1.6,2.4-4.4,4-4.4c0.9,0,1.2,0.3,1.2,1.1c-0.1,1.3-0.5,2.6-1.1,3.8c2-3.3,3.8-4.5,5-4.5
	c0.9-0.1,1.8,0.6,1.8,1.6c0,0.1,0,0.2,0,0.2c-0.1,1-0.3,2-0.8,2.9c-0.6,1.2-1,2.4-1.3,3.7c0,0.3,0.1,0.4,0.4,0.4
	c0.5,0,2.2-1.4,3.8-3.7c0.5,0,0.9,0.4,1,0.9c0,1.7-4.5,6.2-6.9,6.2c-1.6,0-2.1-0.7-2.1-2.1c0-1.8,1.3-4.4,1.3-5
	c0-0.2-0.1-0.3-0.3-0.3c0,0,0,0-0.1,0c-0.2,0-1.1,0.4-2.2,1.8c-0.3,1.7-0.5,3.4-0.6,5c-0.3,0.3-0.4,0.4-1.1,0.4
	c-1.5-0.1-2.7-1.5-2.6-3c0-1.1,0.3-2.3,0.7-3.3C84.3,13.1,84.2,12.5,84.2,11.9z"/>
<path class="st1" d="M107.7,0c2.5,0,3.7,1.4,3.7,3.3c0,1.7-0.4,3.4-1.9,7.3c-0.7,1.5-1.1,3.1-1.3,4.7c0,1.3,0.6,1.9,1.7,1.9
	c1.8,0,3.9-3.2,5.3-9.2c-0.2-1.1-0.4-2.2-0.4-3.4c0-2,0.6-3.5,2-3.5s3.1,1.5,3.1,2.5s-0.2,1.7-1.1,4c-2,9.4-5.8,13.2-10,13.2
	c-3.2,0-5.2-1.7-5.2-4.6c0.1-1.6,0.4-3.1,1-4.6c1.8-4.5,2.2-6.2,2.2-7c0-0.7-0.3-0.8-0.7-0.8c-1,0.2-1.8,0.8-2.5,1.5
	c-0.8-0.2-1.4-1-1.4-1.8C102.2,1.5,104.6,0,107.7,0z"/>
<path class="st1" d="M118,24.3c0.2-1.4,0.6-2.7,1.4-3.9l0.3-7.7c0.2-4.5,2.6-6.7,4.5-6.7c1.1,0,1.8,0.5,1.8,1.3c0,0.1,0,0.2,0,0.3
	c-1.2,1.2-2.1,2.7-2.4,4.4c1.7-2.5,3.4-3.8,4.5-3.8c1.2,0,2.1,1,2.1,2.1c0,0.1,0,0.2,0,0.3c0,1.6-1.2,3.8-2.9,5.8
	c0.3,0.2,0.6,0.3,1,0.3c0.6,0,2.3-1,4.1-3.5c0.5,0,0.9,0.4,1,0.9c0,1.7-4.4,5.8-6.8,5.8c-1.3,0-2.4-1-2.4-2.3c0-0.1,0-0.2,0-0.4
	c-0.1-0.6,0.4-1.2,1-1.4c0.4-0.7,0.7-1.5,0.8-2.4c0-0.6-0.2-0.8-0.5-0.8s-0.8,0.4-1.9,1.5c-0.3,7.4-0.9,12.4-2.6,12.4
	C119.6,26.6,118,25.6,118,24.3z"/>
<path class="st1" d="M139.3,4.9c0.4-3.7,0.8-4.2,2.2-4.2c1.7,0.2,2.9,1.6,3,3.3c0,0.8-0.6,2.1-2,4.6c0.8,0,3.2-0.1,3.6-0.2
	c0.3,0.3,0.5,0.7,0.5,1.1c0.1,0.9-0.6,1.7-1.5,1.8c0,0,0,0,0,0c-0.6,0-1.1,0-1.7-0.1c1,0.6,1.7,1.9,1.7,3.8c0,4.8-4,11.5-7.6,11.5
	c-1.8,0-2.6-0.9-2.6-2.3c0-1,0.1-1.7,1.6-6.1c0.6-1.9,1.7-5.4,2-7c-0.5,0-0.8-0.2-0.8-0.7c0-0.7,0.5-1.4,1.1-1.6
	C139,7.8,139.2,6,139.3,4.9z M139,22.5c0,0.1,0,0.2,0,0.2c0,0.2,0.1,0.3,0.3,0.3c1,0,3.2-4.6,3.2-7.5c0.1-0.9-0.2-1.9-0.8-2.6
	C141.1,16.2,140.2,19.4,139,22.5z"/>
<path class="st1" d="M156.2,11.1c0,1.3-0.3,2.6-0.8,3.8c0.1,0.1,0.3,0.2,0.5,0.2c0.8,0,1.5-0.6,2.4-2c0.6,0,1,0.4,1,1
	c-0.4,1.9-2,3.4-4,3.6c-0.4,0-0.7-0.1-1.1-0.3c-1.3,1.7-2.7,2.7-4.5,2.7s-3.4-1.3-3.4-3.9c0-4.4,2.9-8.5,5.7-8.5
	c0.7,0,1.5,0.3,1.6,1.2c0.2-0.3,0.6-0.4,0.9-0.4C155.6,8.4,156.2,9.9,156.2,11.1z M151,16.8c0.6,0,1.3-0.6,1.8-1.8
	c-0.2-0.8-0.3-1.5-0.3-2.3c0-1.1,0.2-2.1,0.6-3.1c-1.6,0.8-3,3.4-3,5.5C150.1,16.5,150.6,16.8,151,16.8z"/>
<path class="st1" d="M165.8,11.1c-0.1,0.7-0.3,1.4-0.7,2c-0.5,1-0.9,2.1-1.1,3.2c0,0.4,0.1,0.6,0.4,0.6c0.8,0,2.6-1.6,4-3.9
	c0.5-0.1,1,0.3,1.1,0.8c0,1.7-4.5,6.4-7,6.4c-1.6,0-2.5-0.7-2.5-2.2c0-1.8,1.3-4,1.3-4.7c0-0.3-0.3-0.5-0.9-0.7
	c-0.6,1.3-1.4,2.4-2.3,3.5c-0.6,0-1-0.4-1.1-0.9c0,0,0,0,0-0.1c0-0.2,0.1-0.5,0.2-0.6c0.7-0.8,1.2-1.8,1.6-2.7
	c-0.3-0.3-0.4-0.7-0.4-1.1c0-1.9,2.8-4.5,4.3-4.5c0.9,0,1.5,0.4,1.5,1.1c0,0.2,0,0.4-0.1,0.5c-0.6,0.3-1.2,0.8-1.5,1.3
	c0.4,0.2,0.8,0.4,1.2,0.5C165.5,10.1,165.8,10.5,165.8,11.1z"/>
<path class="st1" d="M175.8,19.8c-1.5,0-2.6-1.2-2.6-3.7c0-4,3.3-8.1,6-8.1c0.2,0,0.5,0,0.7,0.2l0.1-1.5c0.2-0.2,0.6-0.4,0.9-0.3
	c1.4-0.1,2.6,0.8,2.8,2.2c0,0.6-0.1,1.2-0.3,1.8c-0.6,1.9-1,3.8-1.3,5.7c0,0.5,0.1,0.6,0.3,0.6c0.5,0,1.9-1,3.6-3.4
	c0.5-0.1,0.9,0.3,1,0.8c0,0,0,0,0,0.1c0,1.7-4.4,6-6.3,6c-1.2,0-1.9-0.5-1.9-2.2c0-0.3,0-0.7,0.1-1C178,19.1,176.8,19.8,175.8,19.8z
	 M179.7,9.9c-1.6,1.2-2.6,3.1-2.6,5.1c0,1,0.3,1.1,0.7,1.1c0.4-0.1,0.8-0.3,1.1-0.7L179.7,9.9z"/>
<path class="st1" d="M26.7,100.6v3.1h-2.1v-3.1h-2.7v-1.8h2.7v-3h2.1v3h2.7v1.8H26.7z"/>
<path class="st1" d="M35.1,92.6H40v1.9h-2.7v3.8h2.2v1.8h-2.2v3.9H40v1.9h-4.9L35.1,92.6z"/>
<path class="st1" d="M44,98.4v7.5h-1.8V92.6H44l2.5,8v-8h1.9v13.3h-1.8L44,98.4z"/>
<path class="st1" d="M53.9,94.5v11.4h-2.2V94.5h-1.7v-1.9h5.5v1.9H53.9z"/>
<path class="st1" d="M57.3,92.6h4.9v1.9h-2.7v3.8h2.2v1.8h-2.2v3.9h2.7v1.9h-4.9V92.6z"/>
<path class="st1" d="M67.3,101.5h-0.8v4.4h-2.2V92.6h4.5c0.4,0,0.9,0.1,1.2,0.4c0.3,0.3,0.4,0.8,0.4,1.2v5.6c0,0.4-0.1,0.7-0.3,1
	c-0.2,0.3-0.4,0.5-0.7,0.6l1,4.5h-2.2L67.3,101.5z M68.2,94.7c0-0.1,0-0.2-0.1-0.2h-1.5v5.1h1.5c0,0,0.1,0,0.1-0.1c0,0,0-0.1,0-0.1
	L68.2,94.7z"/>
<path class="st1" d="M78.7,94.5v11.4h-2.2V94.5h-1.7v-1.9h5.5v1.9H78.7z"/>
<path class="st1" d="M86.7,92.5c0.7,0,1.3,0.6,1.3,1.3c0,0,0,0,0,0.1v10.8c0,0.4-0.1,0.7-0.4,1c-0.3,0.3-0.6,0.4-1,0.4h-3.4
	c-0.4,0-0.7-0.1-1-0.4c-0.3-0.3-0.4-0.6-0.4-1V93.9c0-0.4,0.1-0.7,0.4-1c0.3-0.3,0.6-0.4,1-0.4L86.7,92.5z M85.8,94.5
	c0-0.1,0-0.1,0-0.2c0,0,0-0.1-0.1-0.1h-1.5c-0.1,0-0.1,0-0.1,0.1c0,0,0,0.1,0,0.1v9.4c0,0,0,0.1,0,0.1c0,0,0,0.1,0.1,0.1h1.4
	c0,0,0,0,0.1,0c0,0,0-0.1,0-0.1L85.8,94.5z"/>
<path class="st1" d="M96.5,105.9h-1.9l-1.7-13.3H95l0.8,8.6l1.1-8.6h1.8l1.1,8.7l0.8-8.7h2l-1.7,13.3h-1.9l-1.3-8.8L96.5,105.9z"/>
<path class="st1" d="M106.7,105.9h-2.1V92.6h2.1V105.9z"/>
<path class="st1" d="M111.3,98.4v7.5h-1.9V92.6h1.8l2.5,8v-8h1.9v13.3h-1.8L111.3,98.4z"/>
<path class="st1" d="M127.3,105.9h-2.2v-3.8h-1.6v3.8h-2.2V94c0-0.4,0.1-0.7,0.4-1c0.3-0.3,0.6-0.4,1-0.4h3.2c0.7,0,1.3,0.5,1.3,1.3
	c0,0,0,0.1,0,0.1V105.9z M125.1,100.2v-5.4c0-0.2-0.1-0.3-0.3-0.3h-1c-0.2,0-0.3,0.1-0.3,0.3v5.4L125.1,100.2z"/>
<path class="st1" d="M132.9,92.6h4.9v1.9h-2.7v4.3h2.3v1.9h-2.3v5.2h-2.2V92.6z"/>
<path class="st1" d="M142.6,101.5h-0.8v4.4h-2.2V92.6h4.5c0.4,0,0.9,0.1,1.2,0.4c0.3,0.3,0.5,0.8,0.4,1.2v5.6c0,0.4-0.1,0.7-0.3,1
	c-0.2,0.3-0.4,0.5-0.7,0.6l1,4.5h-2.2L142.6,101.5z M143.6,94.7c0-0.1,0-0.2-0.1-0.2h-1.5v5.1h1.5c0,0,0.1,0,0.1-0.1
	c0,0,0.1-0.1,0.1-0.1V94.7z"/>
<path class="st1" d="M148.1,92.6h4.9v1.9h-2.7v3.8h2.2v1.8h-2.2v3.9h2.7v1.9h-4.9L148.1,92.6z"/>
<path class="st1" d="M155.2,92.6h4.9v1.9h-2.7v3.8h2.2v1.8h-2.2v3.9h2.7v1.9h-4.9V92.6z"/>
<path class="st1" d="M164.7,103.9h2.6c0.1,0,0.2-0.1,0.2-0.2v-3.3c0-0.1,0-0.2-0.1-0.2c0,0,0,0,0,0h-1.2c-0.4,0-0.7-0.1-1-0.4
	c-0.3-0.3-0.4-0.6-0.4-1V94c0-0.4,0.1-0.7,0.4-1c0.3-0.3,0.6-0.4,1-0.4h3.5v1.9h-2.5c-0.1,0-0.1,0.1-0.1,0.2V98c0,0,0,0.1,0,0.1
	c0,0,0.1,0.1,0.1,0.1h1.2c0.4,0,0.7,0.1,1,0.4c0.3,0.3,0.4,0.6,0.4,1v5c0,0.4-0.1,0.7-0.4,1c-0.3,0.3-0.6,0.4-1,0.4h-3.6
	L164.7,103.9z"/>
<path class="st1" d="M176.5,92.5c0.4,0,0.7,0.1,1,0.4c0.3,0.3,0.4,0.6,0.4,1v10.8c0,0.7-0.6,1.3-1.3,1.4c0,0-0.1,0-0.1,0h-3.4
	c-0.7,0-1.3-0.5-1.4-1.2c0,0,0-0.1,0-0.1V93.9c0-0.4,0.1-0.7,0.4-1c0.3-0.3,0.6-0.4,1-0.4L176.5,92.5z M175.6,94.5
	c0-0.1,0-0.1,0-0.2c0,0,0,0-0.1-0.1H174c0,0-0.1,0-0.1,0.1c0,0,0,0,0,0c0,0,0,0.1,0,0.1v9.4c0,0,0,0.1,0,0.1c0,0,0,0.1,0.1,0.1h1.4
	c0,0,0.1,0,0.1,0c0,0,0-0.1,0-0.1L175.6,94.5z"/>
<path class="st1" d="M186.2,101v3.5c0,0.4-0.1,0.8-0.4,1.2c-0.3,0.3-0.7,0.5-1.1,0.4h-2.8c-0.4,0-0.8-0.1-1.1-0.4
	c-0.3-0.3-0.5-0.7-0.4-1.2V94.2c0-0.4,0.1-0.9,0.4-1.2c0.3-0.3,0.7-0.5,1.1-0.4h2.8c0.4,0,0.8,0.1,1.1,0.4c0.3,0.3,0.5,0.7,0.4,1.2
	v3.4H184v-2.9c0-0.1,0-0.2-0.1-0.2h-1.2c-0.1,0-0.1,0.1-0.1,0.2v9.3c0,0.1,0,0.2,0.1,0.2h1.2c0,0,0.1-0.1,0.1-0.2
	c0-0.1,0-0.2,0.1-0.3V101H186.2z"/>
<path class="st1" d="M195.9,98.3v2.2h-7.7v-2.2H195.9z"/>
<path class="st1" d="M200.7,105.9h-2.1V92.6h2.1V105.9z"/>
<path class="st1" d="M206.2,94.5v11.4h-2.2V94.5h-1.7v-1.9h5.5v1.9H206.2z"/>
<path class="st1" d="M210.6,93.6v5.7h-1.1v-5.7h-0.9v-1h2.8v1H210.6z M213.1,95.3v3.9h-1v-6.7h1l0.9,3.2l0.9-3.2h1v6.7h-1v-3.9
	l-0.7,2.1h-0.4L213.1,95.3z"/>
<g>
	<path class="st0" d="M34.5,32.1h10.2v3.7h-5.9v6.3h5v3.7h-5V54h-4.3V32.1z"/>
	<path class="st0" d="M58.2,32.1c1.5,0,2.6,1.1,2.6,2.6v9.5c0,1.3-0.8,2.3-2,2.5l2,7.2h-4.3l-2-7.2h-1.7V54h-4.4V32.1H58.2z
		 M56.4,36.2c0-0.2-0.1-0.3-0.3-0.3h-3.3v7.5h3.3c0.1,0,0.3-0.2,0.3-0.3V36.2z"/>
	<path class="st0" d="M65.4,32.1h10.3v3.7h-6v5.3h5v3.7h-5v5.5h6V54H65.4V32.1z"/>
	<path class="st0" d="M80,32.1h10.3v3.7h-6v5.3h5v3.7h-5v5.5h6V54H80V32.1z"/>
	<path class="st0" d="M109.9,42.9c1.1,0.4,1.7,1.4,1.7,2.6v6c0,1.4-0.9,2.5-2.3,2.5h-8.7v-3.6h6.2c0.2,0,0.4-0.2,0.4-0.4v-5.1
		c0-0.2-0.2-0.4-0.4-0.4h-5.7v-3.6h5.7c0.2,0,0.4-0.2,0.4-0.4v-4.4c0-0.2-0.2-0.4-0.4-0.4h-6.2v-3.6h8.7c1.4,0,2.3,0.9,2.3,2.4v5.7
		C111.6,41.3,110.8,42.4,109.9,42.9z"/>
	<path class="st0" d="M127.1,41.3V54h-4V32.1h4.1l3.5,10.3l3.4-10.3h4.3V54h-4.2V41.2l-2.8,7.6h-1.6L127.1,41.3z"/>
	<path class="st0" d="M153.4,32c1.4,0,2.4,1,2.4,2.4v17.4c0,1.4-1,2.4-2.4,2.4h-7.7c-1.4,0-2.4-1-2.4-2.4V34.4
		c0-1.4,0.9-2.4,2.4-2.4H153.4z M151.4,36c0-0.2-0.2-0.4-0.3-0.4H148c-0.2,0-0.2,0.2-0.2,0.4v14.1c0,0.1,0.1,0.3,0.2,0.3h3.1
		c0.1,0,0.3-0.1,0.3-0.3V36z"/>
	<path class="st0" d="M164.5,41.9V54h-3.9V32.1h3.8l5,12.6V32.1h3.9V54h-3.9L164.5,41.9z"/>
	<path class="st0" d="M188.2,32.1v3.7h-3.6V54h-4.4V35.9h-3.6v-3.7H188.2z"/>
	<path class="st0" d="M204,54h-4.3v-9h-3.9v9h-4.3V32.1h4.3v9.2h3.9v-9.2h4.3V54z"/>
</g>
</svg>
