<?xml version="1.0" encoding="utf-8"?>
<!-- Generator: Adobe Illustrator 25.3.1, SVG Export Plug-In . SVG Version: 6.00 Build 0)  -->
<svg version="1.1" id="Layer_1" xmlns="http://www.w3.org/2000/svg" xmlns:xlink="http://www.w3.org/1999/xlink" x="0px" y="0px"
	 viewBox="0 0 1635.8 495.1" style="enable-background:new 0 0 1635.8 495.1;" xml:space="preserve">
<style type="text/css">
	.st0{display:none;fill:#282BF6;}
	.st1{fill:#040735;}
	.st2{fill:#282BF6;}
	.st3{fill-rule:evenodd;clip-rule:evenodd;fill:#B28B67;}
	.st4{fill-rule:evenodd;clip-rule:evenodd;fill:#191847;}
	.st5{fill-rule:evenodd;clip-rule:evenodd;fill:#997659;}
	.st6{fill-rule:evenodd;clip-rule:evenodd;fill:#E4E4E4;}
	.st7{fill-rule:evenodd;clip-rule:evenodd;fill:#69A1AC;}
	.st8{fill-rule:evenodd;clip-rule:evenodd;fill:#89C5CC;}
	.st9{fill-rule:evenodd;clip-rule:evenodd;fill:#E87613;}
	.st10{fill-rule:evenodd;clip-rule:evenodd;fill:#DDE3E9;}
	.st11{fill-rule:evenodd;clip-rule:evenodd;fill:#FF9B21;}
	.st12{fill-rule:evenodd;clip-rule:evenodd;fill-opacity:0.1;}
	.st13{fill:none;stroke:#ABAFF4;stroke-width:4;stroke-linecap:round;stroke-miterlimit:10;}
	.st14{fill:none;stroke:#ABAFF4;stroke-width:4;stroke-linecap:round;stroke-miterlimit:10;stroke-dasharray:0,15.9292;}
	.st15{fill:#ABAFF4;}
	.st16{fill:none;stroke:#000000;stroke-width:2;stroke-miterlimit:10;}
	.st17{opacity:0.8;fill:none;stroke:#ABAFF4;stroke-miterlimit:10;}
</style>
<rect x="-142.1" y="-58.3" class="st0" width="1920" height="638.9"/>
<g>
	<g>
		<g>
			<rect x="0.1" y="67.5" class="st1" width="90" height="90"/>
			<path class="st2" d="M90,67.6v89.8H0.2V67.6H90 M90.3,67.4H0v90.3h90.3V67.4L90.3,67.4z"/>
		</g>
		<g>
			<rect x="90.4" y="67.5" class="st1" width="90" height="90"/>
			<path class="st2" d="M180.3,67.6v89.8H90.5V67.6H180.3 M180.5,67.4H90.3v90.3h90.3V67.4L180.5,67.4z"/>
		</g>
		<g>
			<rect x="180.7" y="67.5" class="st1" width="90" height="90"/>
			<path class="st2" d="M270.5,67.6v89.8h-89.8V67.6H270.5 M270.8,67.4h-90.3v90.3h90.3V67.4L270.8,67.4z"/>
		</g>
		<g>
			<rect x="270.9" y="67.5" class="st1" width="90" height="90"/>
			<path class="st2" d="M360.8,67.6v89.8H271V67.6H360.8 M361.1,67.4h-90.3v90.3h90.3V67.4L361.1,67.4z"/>
		</g>
		<g>
			<rect x="361.2" y="67.5" class="st1" width="90" height="90"/>
			<path class="st2" d="M451.1,67.6v89.8h-89.8V67.6H451.1 M451.3,67.4h-90.3v90.3h90.3V67.4L451.3,67.4z"/>
		</g>
		<g>
			<rect x="451.5" y="67.5" class="st1" width="90" height="90"/>
			<g>
				<path class="st2" d="M541.3,67.6v89.8h-89.8V67.6H541.3 M541.6,67.4h-90.3v90.3h90.3V67.4L541.6,67.4z"/>
			</g>
		</g>
		<g>
			<rect x="0.1" y="157.8" class="st1" width="90" height="90"/>
			<path class="st2" d="M90,157.9v89.8H0.2v-89.8H90 M90.3,157.6H0v90.3h90.3V157.6L90.3,157.6z"/>
		</g>
		<g>
			<rect x="90.4" y="157.8" class="st1" width="90" height="90"/>
			<path class="st2" d="M180.3,157.9v89.8H90.5v-89.8H180.3 M180.5,157.6H90.3v90.3h90.3V157.6L180.5,157.6z"/>
		</g>
		<g>
			<rect x="180.7" y="157.8" class="st1" width="90" height="90"/>
			<path class="st2" d="M270.5,157.9v89.8h-89.8v-89.8H270.5 M270.8,157.6h-90.3v90.3h90.3V157.6L270.8,157.6z"/>
		</g>
		<g>
			<rect x="270.9" y="157.8" class="st1" width="90" height="90"/>
			<path class="st2" d="M360.8,157.9v89.8H271v-89.8H360.8 M361.1,157.6h-90.3v90.3h90.3V157.6L361.1,157.6z"/>
		</g>
		<g>
			<rect x="361.2" y="157.8" class="st1" width="90" height="90"/>
			<path class="st2" d="M451.1,157.9v89.8h-89.8v-89.8H451.1 M451.3,157.6h-90.3v90.3h90.3V157.6L451.3,157.6z"/>
		</g>
		<g>
			<rect x="451.5" y="157.8" class="st1" width="90" height="90"/>
			<path class="st2" d="M541.3,157.9v89.8h-89.8v-89.8H541.3 M541.6,157.6h-90.3v90.3h90.3V157.6L541.6,157.6z"/>
		</g>
		<g>
			<rect x="0.1" y="248" class="st1" width="90" height="90"/>
			<path class="st2" d="M90,248.2v89.8H0.2v-89.8H90 M90.3,247.9H0v90.3h90.3V247.9L90.3,247.9z"/>
		</g>
		<g>
			<rect x="90.4" y="248" class="st1" width="90" height="90"/>
			<path class="st2" d="M180.3,248.2v89.8H90.5v-89.8H180.3 M180.5,247.9H90.3v90.3h90.3V247.9L180.5,247.9z"/>
		</g>
		<g>
			<rect x="180.7" y="248" class="st1" width="90" height="90"/>
			<path class="st2" d="M270.5,248.2v89.8h-89.8v-89.8H270.5 M270.8,247.9h-90.3v90.3h90.3V247.9L270.8,247.9z"/>
		</g>
		<g>
			<rect x="270.9" y="248" class="st1" width="90" height="90"/>
			<path class="st2" d="M360.8,248.2v89.8H271v-89.8H360.8 M361.1,247.9h-90.3v90.3h90.3V247.9L361.1,247.9z"/>
		</g>
		<g>
			<rect x="361.2" y="248" class="st1" width="90" height="90"/>
			<path class="st2" d="M451.1,248.2v89.8h-89.8v-89.8H451.1 M451.3,247.9h-90.3v90.3h90.3V247.9L451.3,247.9z"/>
		</g>
		<g>
			<rect x="451.5" y="248" class="st1" width="90" height="90"/>
			<path class="st2" d="M541.3,248.2v89.8h-89.8v-89.8H541.3 M541.6,247.9h-90.3v90.3h90.3V247.9L541.6,247.9z"/>
		</g>
		<g>
			<rect x="0.1" y="338.3" class="st1" width="90" height="90"/>
			<path class="st2" d="M90,338.4v89.8H0.2v-89.8H90 M90.3,338.2H0v90.3h90.3V338.2L90.3,338.2z"/>
		</g>
		<g>
			<rect x="90.4" y="338.3" class="st1" width="90" height="90"/>
			<path class="st2" d="M180.3,338.4v89.8H90.5v-89.8H180.3 M180.5,338.2H90.3v90.3h90.3V338.2L180.5,338.2z"/>
		</g>
		<g>
			<rect x="180.7" y="338.3" class="st1" width="90" height="90"/>
			<path class="st2" d="M270.5,338.4v89.8h-89.8v-89.8H270.5 M270.8,338.2h-90.3v90.3h90.3V338.2L270.8,338.2z"/>
		</g>
		<g>
			<rect x="270.9" y="338.3" class="st1" width="90" height="90"/>
			<path class="st2" d="M360.8,338.4v89.8H271v-89.8H360.8 M361.1,338.2h-90.3v90.3h90.3V338.2L361.1,338.2z"/>
		</g>
		<g>
			<rect x="361.2" y="338.3" class="st1" width="90" height="90"/>
			<path class="st2" d="M451.1,338.4v89.8h-89.8v-89.8H451.1 M451.3,338.2h-90.3v90.3h90.3V338.2L451.3,338.2z"/>
		</g>
		<g>
			<rect x="451.5" y="338.3" class="st1" width="90" height="90"/>
			<path class="st2" d="M541.3,338.4v89.8h-89.8v-89.8H541.3 M541.6,338.2h-90.3v90.3h90.3V338.2L541.6,338.2z"/>
		</g>
		<g id="humaaans_x2F_standing-19">
			<g id="humaaan-3" transform="translate(28.000000, 2.000000)">
				
					<g id="Head_x2F_Front_x2F_Short-Beard" transform="translate(133.219486, 73.532869) rotate(-15.000000) translate(-133.219486, -73.532869) translate(59.569689, 17.301852)">
					<g id="Head" transform="translate(58.494090, 33.282773)">
						<path class="st3" d="M1333.9,507.4l-14.9-8.6l12.8-16.3c-5.4,0.1-10-1-11.6-2.6c-4-3.9,5.3-21,12.8-25.6
							c7.4-4.6,27.6,3.2,21,16.9c-2.3,4.8-6.6,7.7-11.4,9.4L1333.9,507.4z"/>
					</g>
					<path id="Hair" class="st4" d="M1397.3,492.3c-6.6-3.7-6.7-5.3-4.4-9.2c1.5-0.1,6,0.8,10.4,2.8c2.5,0.6,4.9,2.2,6.8,4.6
						c2.5,2.6,4,5.9,3.2,9.9c0.1,9.3-7.2,14.8-12.8,14.8c-0.4-1.9-0.6-3.8-0.8-5.5c1.1-0.3,2.1-1,2.6-2c1.2-2,0.5-4.7-1.6-5.8
						c-0.2-0.1-0.3-0.2-0.5-0.2c-4.4,7-7.6,11.5-9.7,13.3c-3.2,2.9-10.6-0.3-13-1.6c-2.4-1.4-0.5-3.7,0.3-5c0.5-0.8,2.3,1.7,3.1,0.3
						c0.8-1.4-1.8-4-2-5.3c-0.2-1.5,0.4-3.1,1.6-2.5c1.6,0.9,3.4,5,7.1,7.2c2.4,1.4,6.2-1.7,11.4-9.2
						C1398.8,496.2,1398.4,494.1,1397.3,492.3z"/>
				</g>
				<g id="Bottom_x2F_Standing_x2F_Baggy-Pants" transform="translate(0.000000, 218.435876)">
					<polygon id="Leg" class="st5" points="1492.3,39.7 1456.2,203.6 1465.5,203.6 1489.1,128.5 1524.3,39.7 					"/>
					<path id="Leg_1_" class="st3" d="M1496.3,39.7c8.5,29.9,19.1,79.9,22.3,85.3c2.2,3.6,26.6,19,73.4,46.2l6.4-6.8
						c-39.6-31.7-59.8-48.2-60.3-49.5c-0.9-1.9-6.3-44-6.7-75.2H1496.3z"/>
					
						<g id="Accessories_x2F_Shoe_x2F_Flat-Sneaker" transform="translate(55.786030, 203.938854) rotate(50.000000) translate(-55.786030, -203.938854) translate(22.747702, 182.358023)">
						<path id="shoe" class="st6" d="M993.1-1187.8c-0.7,0.5-0.8,1.3-0.4,2h0c1.2,1.7,1.9,3.1,2,4.1c0.2,1.3,0,3.1-0.6,5.3l-2.7,1.7
							c0,0,0,0,0,0c-0.3,0.2-0.4,0.7-0.2,1l11.5,17.1c0.5,1.4,1.1,3.2,1.7,5.4c0.7,2.2,2.6,2.5,5.9,0.8c-4.4-25.1-6.8-38.4-7-39.9
							c-2.5,0-4.4,0.1-5.7,0.3C996.6-1189.6,995.1-1189,993.1-1187.8C993.1-1187.8,993.1-1187.8,993.1-1187.8z"/>
					</g>
					<g id="Accessories_x2F_Shoe_x2F_Flat-Sneaker_1_" transform="translate(225.310568, 214.729269)">
						<path id="shoe_1_" class="st6" d="M1244-14.6c-0.3-0.7-1.2-1-1.9-0.7v0c-1.9,0.9-3.3,1.3-4.4,1.3c-1.3,0-3-0.5-5.1-1.5
							l-1.2-2.9c0,0,0,0,0,0c-0.2-0.4-0.6-0.5-0.9-0.4l-18.8,8.4c-1.5,0.2-3.4,0.5-5.6,0.8c-2.3,0.3-2.9,2.2-1.8,5.6
							c25.5,0,39,0,40.5,0c0.4-2.5,0.6-4.4,0.6-5.7C1245.2-10.8,1244.8-12.4,1244-14.6C1244-14.6,1244-14.6,1244-14.6z"/>
					</g>
					<polygon id="Pant" class="st7" points="1528.9,39.7 1489.2,39.7 1456.3,191.1 1500.6,195.9 					"/>
					<path id="Pant_1_" class="st8" d="M1542.1,101.7c-0.8-1.8-2.3-22.5-4.5-62h-44.7c4.1,44.9,8.6,72.5,13.7,82.6
						c5.1,10.2,23,31.9,53.6,65.3l29.1-34.3C1558.6,120.8,1542.9,103.6,1542.1,101.7z"/>
				</g>
				
					<g id="Body_x2F_Hoodie" transform="translate(161.379703, 207.081536) rotate(-10.000000) translate(-161.379703, -207.081536) translate(22.744790, 105.973841)">
					<path id="Skin" class="st3" d="M1421.3,375.7l-24.5,1c-8.6,4.8-13,6.6-13.3,5.1c-0.4-2.1,2.5-2.9,2.4-4.4
						c-0.1-1.5-4.2-2.8-8.1-3.9c-3.9-1.1-2.2-2.4-1-2.9c4.8-0.9,10.3-1.1,16.8-0.5l27.2-7.9L1421.3,375.7z M1496.3,439
						c0.3,2.3,5.3,10.8,9,16c1.5,2.1,0,3.5-0.9,3.7c-7.5,1.5-9.9-4.4-14.3-8.8c-4.8-4.8-7.1,3-10.9-0.8c2.6-2.6,8-7.3,7.8-11.7
						c-0.1-2,0.6-18.5,2.1-49.6l14.1,5.1C1498.2,420.5,1495.9,435.8,1496.3,439z"/>
					<path id="Coat-Back" class="st9" d="M1398.9,379.1l-3.5-10.2c33.4-9.3,55.3-41.8,83.7-52.5l5.5,3.1
						C1474.2,350.7,1446.9,390.1,1398.9,379.1z"/>
					<path id="Shirt" class="st10" d="M1492.3,318.3l-15.7-3.1c-10.2,28.1-33.3,43.8-44.4,62.1c-1,1.6-2.6,4.8-0.3,5.7
						c11,4,28.2,10.3,51.6,18.8C1492.8,368.2,1497.4,342.4,1492.3,318.3z"/>
					<path id="Coat-Front" class="st11" d="M1496.8,438.4l-11.1-4c-0.8-4.6-1.4-10.1-1.8-16.6l-40.6-14.8
						c-0.5-17.3,14.1-46,43.9-86.2l4.8,1.4c0.4,0.1,0.9,0.2,1.4,0.4c9.3,3.4,15.8,1.6,20.9,5.5c5.2,3.9,5.2,10-3.8,17.8
						c-2.1,1.8-4.3,2.6-6.7,2.5C1512.3,374,1510,405.3,1496.8,438.4z"/>
					<path id="Shade" class="st12" d="M1483.9,417.8l-15.1-5.5c4.6-3.8,9.5-10.7,14.7-20.9C1483.3,401.5,1483.5,410.3,1483.9,417.8z
						"/>
				</g>
			</g>
		</g>
		<g>
			<g>
				<line class="st13" x1="1511.5" y1="163.2" x2="1511.5" y2="163.2"/>
				<line class="st14" x1="1495.6" y1="163.2" x2="595.6" y2="163.2"/>
				<line class="st13" x1="587.6" y1="163.2" x2="587.6" y2="163.2"/>
			</g>
		</g>
		<g>
			<path class="st15" d="M628.2,417.6c-0.2,0-0.3,0.1-0.3,0.3v4h3.9v2.1h-6.5v-7.1c0-0.6,0.2-1,0.5-1.3s0.8-0.5,1.3-0.5h1.8
				c0.2,0,0.3-0.1,0.3-0.3v-4c0-0.2-0.1-0.3-0.3-0.3h-3.4v-2.1h4.5c0.6,0,1,0.2,1.3,0.5s0.5,0.8,0.5,1.3v5.5c0,0.6-0.2,1-0.5,1.3
				s-0.8,0.5-1.3,0.5H628.2z"/>
			<path class="st15" d="M640.9,414.8v9.2h-2.3v-15.5h2.3l2.2,7.3l2.1-7.3h2.4V424H645v-9.2l-1.6,5h-0.9L640.9,414.8z"/>
			<path class="st15" d="M653,414.8v9.2h-2.3v-15.5h2.3l2.2,7.3l2.1-7.3h2.4V424h-2.4v-9.2l-1.6,5h-0.9L653,414.8z"/>
			<path class="st15" d="M666.3,419.2v-2.8l6.6-1.4l-6.6-1.8v-2.6l8.5,2.7v3.4L666.3,419.2z M674.8,423.1h-8.5v-2.4h8.5V423.1z"/>
		</g>
		<g>
			<g>
				<path class="st15" d="M629.8,85v-2.1h3.4c0.2,0,0.3-0.1,0.3-0.3v-4.3c0-0.2-0.1-0.3-0.3-0.3h-3v-2.2h3c0.2,0,0.3-0.1,0.3-0.3
					v-3.6c0-0.2-0.1-0.3-0.3-0.3h-3.4v-2.1h4.5c0.6,0,1,0.2,1.3,0.5s0.5,0.8,0.5,1.3v4c0,0.3-0.1,0.6-0.3,1
					c-0.2,0.3-0.5,0.6-0.7,0.8c0.3,0.1,0.6,0.3,0.8,0.6c0.2,0.3,0.3,0.6,0.3,1v4.5c0,0.6-0.2,1-0.5,1.3c-0.3,0.3-0.8,0.5-1.3,0.5
					H629.8z"/>
				<path class="st15" d="M643.1,69.4h5.8v2.2h-3.2v5h2.6v2.2h-2.6V85h-2.6V69.4z"/>
				<path class="st15" d="M654.3,71.6V85h-2.6V71.6h-2v-2.2h6.5v2.2H654.3z"/>
				<path class="st15" d="M661.7,80.1v-2.8l6.6-1.4l-6.6-1.8v-2.6l8.5,2.7v3.4L661.7,80.1z M670.2,84h-8.5v-2.4h8.5V84z"/>
			</g>
		</g>
		<g>
			<g>
				<path class="st15" d="M741.9,71.6v4.2h2c0.6,0,1,0.2,1.3,0.5c0.3,0.3,0.5,0.8,0.5,1.3v5.6c0,0.6-0.2,1-0.5,1.3
					c-0.3,0.3-0.8,0.5-1.3,0.5h-4.5v-2.1h3.4c0.2,0,0.3-0.1,0.3-0.3v-4.2c0-0.2-0.1-0.3-0.3-0.3h-3.4v-8.7h6.2v2.1H741.9z"/>
				<path class="st15" d="M758,76.1v2.6h-9v-2.6H758z"/>
				<path class="st15" d="M763.9,71.6c-0.2,0-0.3,0.1-0.3,0.3v3.1h2.6c0.6,0,1,0.2,1.3,0.5s0.5,0.8,0.5,1.3v6.6c0,0.6-0.2,1-0.5,1.3
					s-0.8,0.5-1.3,0.5h-3.4c-0.6,0-1-0.2-1.3-0.5s-0.5-0.8-0.5-1.3V71.2c0-0.6,0.2-1,0.5-1.3s0.8-0.5,1.3-0.5h4.8v2.1H763.9z
					 M763.8,77.1c-0.2,0-0.3,0.1-0.3,0.3v5.3c0,0.2,0.1,0.3,0.3,0.3h1.4c0.2,0,0.3-0.1,0.3-0.3v-5.3c0-0.2-0.1-0.3-0.3-0.3H763.8z"
					/>
				<path class="st15" d="M774.4,69.4h5.8v2.2h-3.2v5h2.6v2.2h-2.6V85h-2.6V69.4z"/>
				<path class="st15" d="M785.6,71.6V85H783V71.6h-2v-2.2h6.5v2.2H785.6z"/>
			</g>
		</g>
		<g>
			<g>
				<path class="st15" d="M844.9,69.4v1.9L840.4,85h-2.6l4.6-13.4h-4.8v-2.1H844.9z"/>
				<path class="st15" d="M856.7,76.1v2.6h-9v-2.6H856.7z"/>
				<path class="st15" d="M866.7,75.5c0,0.4-0.2,0.8-0.5,1c-0.4,0.2-0.7,0.3-1.2,0.3c0.2,0,0.4,0,0.6,0.1c0.2,0.1,0.4,0.2,0.5,0.4
					s0.3,0.3,0.4,0.6c0.1,0.2,0.1,0.4,0.1,0.7v4.6c0,0.6-0.2,1-0.5,1.3s-0.8,0.5-1.3,0.5h-3.5c-0.6,0-1-0.2-1.3-0.5
					s-0.5-0.8-0.5-1.3v-4.6c0-0.2,0-0.4,0.1-0.7c0.1-0.2,0.2-0.4,0.4-0.6s0.3-0.3,0.6-0.4c0.2-0.1,0.4-0.1,0.6-0.1
					c-0.4,0-0.8-0.1-1.2-0.3c-0.3-0.2-0.5-0.6-0.5-1v-4.4c0-0.6,0.2-1,0.5-1.3c0.3-0.3,0.8-0.5,1.3-0.5h3.5c0.6,0,1,0.2,1.3,0.5
					c0.3,0.3,0.5,0.8,0.5,1.3V75.5z M864.1,71.8c0-0.2-0.1-0.3-0.3-0.3h-1.3c-0.2,0-0.3,0.1-0.3,0.3v4c0,0.2,0.1,0.3,0.3,0.3h1.3
					c0.2,0,0.3-0.1,0.3-0.3V71.8z M864.1,78.4c0-0.2-0.1-0.3-0.3-0.3h-1.3c-0.2,0-0.3,0.1-0.3,0.3v4.2c0,0.2,0.1,0.3,0.3,0.3h1.3
					c0.2,0,0.3-0.1,0.3-0.3V78.4z"/>
				<path class="st15" d="M873.1,69.4h5.8v2.2h-3.2v5h2.6v2.2h-2.6V85h-2.6V69.4z"/>
				<path class="st15" d="M884.3,71.6V85h-2.6V71.6h-2v-2.2h6.5v2.2H884.3z"/>
			</g>
		</g>
		<g>
			<g>
				<path class="st15" d="M1005.1,85v-2.2h2.9V71.9l-2.3,0.5l-0.5-1.9l3.2-1.1h2v13.3h2.6V85H1005.1z"/>
				<path class="st15" d="M1020.7,69.3c0.6,0,1,0.2,1.3,0.5s0.5,0.8,0.5,1.3v12.2c0,0.6-0.2,1-0.5,1.3s-0.8,0.5-1.3,0.5h-3.8
					c-0.6,0-1-0.2-1.3-0.5s-0.5-0.8-0.5-1.3V71.1c0-0.6,0.2-1,0.5-1.3s0.8-0.5,1.3-0.5H1020.7z M1019.7,82.9c0.2,0,0.3-0.1,0.3-0.3
					V71.7c0-0.2-0.1-0.3-0.3-0.3h-1.6c-0.2,0-0.3,0.1-0.3,0.3v10.9c0,0.2,0.1,0.3,0.3,0.3H1019.7z"/>
				<path class="st15" d="M1034.3,76.1v2.6h-9v-2.6H1034.3z"/>
				<path class="st15" d="M1036.7,85v-2.2h2.9V71.9l-2.3,0.5l-0.5-1.9l3.2-1.1h2v13.3h2.6V85H1036.7z"/>
				<path class="st15" d="M1050,78.6c-0.2,0-0.3,0.1-0.3,0.3v4h3.9V85h-6.5v-7.1c0-0.6,0.2-1,0.5-1.3s0.8-0.5,1.3-0.5h1.8
					c0.2,0,0.3-0.1,0.3-0.3v-4c0-0.2-0.1-0.3-0.3-0.3h-3.4v-2.1h4.5c0.6,0,1,0.2,1.3,0.5s0.5,0.8,0.5,1.3v5.5c0,0.6-0.2,1-0.5,1.3
					s-0.8,0.5-1.3,0.5H1050z"/>
				<path class="st15" d="M1060.3,69.4h5.8v2.2h-3.2v5h2.6v2.2h-2.6V85h-2.6V69.4z"/>
				<path class="st15" d="M1071.6,71.6V85h-2.6V71.6h-2v-2.2h6.5v2.2H1071.6z"/>
			</g>
		</g>
		<g>
			<g>
				<path class="st15" d="M1140.1,85v-2.2h2.9V71.9l-2.3,0.5l-0.5-1.9l3.2-1.1h2v13.3h2.6V85H1140.1z"/>
				<path class="st15" d="M1153.4,78.6c-0.2,0-0.3,0.1-0.3,0.3v4h3.9V85h-6.5v-7.1c0-0.6,0.2-1,0.5-1.3s0.8-0.5,1.3-0.5h1.8
					c0.2,0,0.3-0.1,0.3-0.3v-4c0-0.2-0.1-0.3-0.3-0.3h-3.4v-2.1h4.5c0.6,0,1,0.2,1.3,0.5s0.5,0.8,0.5,1.3v5.5c0,0.6-0.2,1-0.5,1.3
					s-0.8,0.5-1.3,0.5H1153.4z"/>
				<path class="st15" d="M1169.3,76.1v2.6h-9v-2.6H1169.3z"/>
				<path class="st15" d="M1171.6,85v-2.2h2.9V71.9l-2.3,0.5l-0.5-1.9l3.2-1.1h2v13.3h2.6V85H1171.6z"/>
				<path class="st15" d="M1184.7,71.6v4.2h2c0.6,0,1,0.2,1.3,0.5c0.3,0.3,0.5,0.8,0.5,1.3v5.6c0,0.6-0.2,1-0.5,1.3
					c-0.3,0.3-0.8,0.5-1.3,0.5h-4.5v-2.1h3.4c0.2,0,0.3-0.1,0.3-0.3v-4.2c0-0.2-0.1-0.3-0.3-0.3h-3.4v-8.7h6.2v2.1H1184.7z"/>
				<path class="st15" d="M1195.3,69.4h5.8v2.2h-3.2v5h2.6v2.2h-2.6V85h-2.6V69.4z"/>
				<path class="st15" d="M1206.5,71.6V85h-2.6V71.6h-2v-2.2h6.5v2.2H1206.5z"/>
			</g>
		</g>
		<g>
			<g>
				<path class="st15" d="M1263.7,78.6c-0.2,0-0.3,0.1-0.3,0.3v4h3.9V85h-6.5v-7.1c0-0.6,0.2-1,0.5-1.3s0.8-0.5,1.3-0.5h1.8
					c0.2,0,0.3-0.1,0.3-0.3v-4c0-0.2-0.1-0.3-0.3-0.3h-3.4v-2.1h4.5c0.6,0,1,0.2,1.3,0.5s0.5,0.8,0.5,1.3v5.5c0,0.6-0.2,1-0.5,1.3
					s-0.8,0.5-1.3,0.5H1263.7z"/>
				<path class="st15" d="M1275.7,69.3c0.6,0,1,0.2,1.3,0.5s0.5,0.8,0.5,1.3v12.2c0,0.6-0.2,1-0.5,1.3s-0.8,0.5-1.3,0.5h-3.8
					c-0.6,0-1-0.2-1.3-0.5s-0.5-0.8-0.5-1.3V71.1c0-0.6,0.2-1,0.5-1.3s0.8-0.5,1.3-0.5H1275.7z M1274.6,82.9c0.2,0,0.3-0.1,0.3-0.3
					V71.7c0-0.2-0.1-0.3-0.3-0.3h-1.6c-0.2,0-0.3,0.1-0.3,0.3v10.9c0,0.2,0.1,0.3,0.3,0.3H1274.6z"/>
				<path class="st15" d="M1283.7,69.4h5.8v2.2h-3.2v5h2.6v2.2h-2.6V85h-2.6V69.4z"/>
				<path class="st15" d="M1294.9,71.6V85h-2.6V71.6h-2v-2.2h6.5v2.2H1294.9z"/>
			</g>
		</g>
		<g>
			<g>
				<path class="st15" d="M1347.8,78.6c-0.2,0-0.3,0.1-0.3,0.3v4h3.9V85h-6.5v-7.1c0-0.6,0.2-1,0.5-1.3s0.8-0.5,1.3-0.5h1.8
					c0.2,0,0.3-0.1,0.3-0.3v-4c0-0.2-0.1-0.3-0.3-0.3h-3.4v-2.1h4.5c0.6,0,1,0.2,1.3,0.5s0.5,0.8,0.5,1.3v5.5c0,0.6-0.2,1-0.5,1.3
					s-0.8,0.5-1.3,0.5H1347.8z"/>
				<path class="st15" d="M1357.2,71.6v4.2h2c0.6,0,1,0.2,1.3,0.5c0.3,0.3,0.5,0.8,0.5,1.3v5.6c0,0.6-0.2,1-0.5,1.3
					c-0.3,0.3-0.8,0.5-1.3,0.5h-4.5v-2.1h3.4c0.2,0,0.3-0.1,0.3-0.3v-4.2c0-0.2-0.1-0.3-0.3-0.3h-3.4v-8.7h6.2v2.1H1357.2z"/>
				<path class="st15" d="M1367.8,69.4h5.8v2.2h-3.2v5h2.6v2.2h-2.6V85h-2.6V69.4z"/>
				<path class="st15" d="M1379,71.6V85h-2.6V71.6h-2v-2.2h6.5v2.2H1379z"/>
			</g>
		</g>
		<g>
			<path class="st15" d="M741.2,417.6c-0.2,0-0.3,0.1-0.3,0.3v4h3.9v2.1h-6.5v-7.1c0-0.6,0.2-1,0.5-1.3s0.8-0.5,1.3-0.5h1.8
				c0.2,0,0.3-0.1,0.3-0.3v-4c0-0.2-0.1-0.3-0.3-0.3h-3.4v-2.1h4.5c0.6,0,1,0.2,1.3,0.5s0.5,0.8,0.5,1.3v5.5c0,0.6-0.2,1-0.5,1.3
				s-0.8,0.5-1.3,0.5H741.2z"/>
			<path class="st15" d="M750.4,424h-2.9v-3.6h2.9V424z"/>
			<path class="st15" d="M755.6,410.6v4.2h2c0.6,0,1,0.2,1.3,0.5c0.3,0.3,0.5,0.8,0.5,1.3v5.6c0,0.6-0.2,1-0.5,1.3
				c-0.3,0.3-0.8,0.5-1.3,0.5h-4.5v-2.1h3.4c0.2,0,0.3-0.1,0.3-0.3v-4.2c0-0.2-0.1-0.3-0.3-0.3h-3.4v-8.7h6.2v2.1H755.6z"/>
			<path class="st15" d="M768.6,414.8v9.2h-2.3v-15.5h2.3l2.2,7.3l2.1-7.3h2.4V424h-2.4v-9.2l-1.6,5h-0.9L768.6,414.8z"/>
			<path class="st15" d="M780.7,414.8v9.2h-2.3v-15.5h2.3l2.2,7.3l2.1-7.3h2.4V424h-2.4v-9.2l-1.6,5h-0.9L780.7,414.8z"/>
		</g>
		<g>
			<path class="st15" d="M840,417.6c-0.2,0-0.3,0.1-0.3,0.3v4h3.9v2.1h-6.5v-7.1c0-0.6,0.2-1,0.5-1.3s0.8-0.5,1.3-0.5h1.8
				c0.2,0,0.3-0.1,0.3-0.3v-4c0-0.2-0.1-0.3-0.3-0.3h-3.4v-2.1h4.5c0.6,0,1,0.2,1.3,0.5s0.5,0.8,0.5,1.3v5.5c0,0.6-0.2,1-0.5,1.3
				s-0.8,0.5-1.3,0.5H840z"/>
			<path class="st15" d="M849.1,424h-2.9v-3.6h2.9V424z"/>
			<path class="st15" d="M855.5,422c0.2,0,0.3-0.1,0.3-0.3v-3.1h-2.6c-0.6,0-1-0.2-1.3-0.5c-0.3-0.3-0.5-0.8-0.5-1.3v-6.6
				c0-0.6,0.2-1,0.5-1.3c0.3-0.3,0.8-0.5,1.3-0.5h3.4c0.6,0,1,0.2,1.3,0.5s0.5,0.8,0.5,1.3v12.1c0,0.6-0.2,1-0.5,1.3
				s-0.8,0.5-1.3,0.5h-4.8V422H855.5z M855.7,416.5c0.2,0,0.3-0.1,0.3-0.3V411c0-0.2-0.1-0.3-0.3-0.3h-1.4c-0.2,0-0.3,0.1-0.3,0.3
				v5.3c0,0.2,0.1,0.3,0.3,0.3H855.7z"/>
			<path class="st15" d="M867.3,414.8v9.2H865v-15.5h2.3l2.2,7.3l2.1-7.3h2.4V424h-2.4v-9.2l-1.6,5h-0.9L867.3,414.8z"/>
			<path class="st15" d="M879.4,414.8v9.2h-2.3v-15.5h2.3l2.2,7.3l2.1-7.3h2.4V424h-2.4v-9.2l-1.6,5H881L879.4,414.8z"/>
		</g>
		<g>
			<path class="st15" d="M1014.6,424v-2.1h3.4c0.2,0,0.3-0.1,0.3-0.3v-4.3c0-0.2-0.1-0.3-0.3-0.3h-3v-2.2h3c0.2,0,0.3-0.1,0.3-0.3
				v-3.6c0-0.2-0.1-0.3-0.3-0.3h-3.4v-2.1h4.5c0.6,0,1,0.2,1.3,0.5s0.5,0.8,0.5,1.3v4c0,0.3-0.1,0.6-0.3,1c-0.2,0.3-0.5,0.6-0.7,0.8
				c0.3,0.1,0.6,0.3,0.8,0.6s0.3,0.6,0.3,1v4.5c0,0.6-0.2,1-0.5,1.3c-0.3,0.3-0.8,0.5-1.3,0.5H1014.6z"/>
			<path class="st15" d="M1026.7,424h-2.9v-3.6h2.9V424z"/>
			<path class="st15" d="M1033.1,422c0.2,0,0.3-0.1,0.3-0.3v-3.1h-2.6c-0.6,0-1-0.2-1.3-0.5s-0.5-0.8-0.5-1.3v-6.6
				c0-0.6,0.2-1,0.5-1.3s0.8-0.5,1.3-0.5h3.4c0.6,0,1,0.2,1.3,0.5s0.5,0.8,0.5,1.3v12.1c0,0.6-0.2,1-0.5,1.3s-0.8,0.5-1.3,0.5h-4.8
				V422H1033.1z M1033.3,416.5c0.2,0,0.3-0.1,0.3-0.3V411c0-0.2-0.1-0.3-0.3-0.3h-1.4c-0.2,0-0.3,0.1-0.3,0.3v5.3
				c0,0.2,0.1,0.3,0.3,0.3H1033.3z"/>
			<path class="st15" d="M1044.9,414.8v9.2h-2.3v-15.5h2.3l2.2,7.3l2.1-7.3h2.4V424h-2.4v-9.2l-1.6,5h-0.9L1044.9,414.8z"/>
			<path class="st15" d="M1057,414.8v9.2h-2.3v-15.5h2.3l2.2,7.3l2.1-7.3h2.4V424h-2.4v-9.2l-1.6,5h-0.9L1057,414.8z"/>
		</g>
		<g>
			<path class="st15" d="M1157,420.5h-1.3v3.5h-2.6v-3.5h-4v-12h2.3v9.9h1.7v-9.9h2.4v9.9h1.3V420.5z"/>
			<path class="st15" d="M1161.7,424h-2.9v-3.6h2.9V424z"/>
			<path class="st15" d="M1171.1,414.6c0,0.4-0.2,0.8-0.5,1c-0.4,0.2-0.7,0.3-1.2,0.3c0.2,0,0.4,0,0.6,0.1c0.2,0.1,0.4,0.2,0.5,0.4
				s0.3,0.3,0.4,0.6c0.1,0.2,0.1,0.4,0.1,0.7v4.6c0,0.6-0.2,1-0.5,1.3s-0.8,0.5-1.3,0.5h-3.5c-0.6,0-1-0.2-1.3-0.5s-0.5-0.8-0.5-1.3
				v-4.6c0-0.2,0-0.4,0.1-0.7c0.1-0.2,0.2-0.4,0.4-0.6s0.3-0.3,0.6-0.4c0.2-0.1,0.4-0.1,0.6-0.1c-0.4,0-0.8-0.1-1.2-0.3
				c-0.3-0.2-0.5-0.6-0.5-1v-4.4c0-0.6,0.2-1,0.5-1.3c0.3-0.3,0.8-0.5,1.3-0.5h3.5c0.6,0,1,0.2,1.3,0.5c0.3,0.3,0.5,0.8,0.5,1.3
				V414.6z M1168.5,410.8c0-0.2-0.1-0.3-0.3-0.3h-1.3c-0.2,0-0.3,0.1-0.3,0.3v4c0,0.2,0.1,0.3,0.3,0.3h1.3c0.2,0,0.3-0.1,0.3-0.3
				V410.8z M1168.5,417.5c0-0.2-0.1-0.3-0.3-0.3h-1.3c-0.2,0-0.3,0.1-0.3,0.3v4.2c0,0.2,0.1,0.3,0.3,0.3h1.3c0.2,0,0.3-0.1,0.3-0.3
				V417.5z"/>
			<path class="st15" d="M1179.9,414.8v9.2h-2.3v-15.5h2.3l2.2,7.3l2.1-7.3h2.4V424h-2.4v-9.2l-1.6,5h-0.9L1179.9,414.8z"/>
			<path class="st15" d="M1192,414.8v9.2h-2.3v-15.5h2.3l2.2,7.3l2.1-7.3h2.4V424h-2.4v-9.2l-1.6,5h-0.9L1192,414.8z"/>
		</g>
		<g>
			<path class="st15" d="M1263.9,410.6c-0.2,0-0.3,0.1-0.3,0.3v3.1h2.6c0.6,0,1,0.2,1.3,0.5s0.5,0.8,0.5,1.3v6.6
				c0,0.6-0.2,1-0.5,1.3s-0.8,0.5-1.3,0.5h-3.4c-0.6,0-1-0.2-1.3-0.5s-0.5-0.8-0.5-1.3v-12.1c0-0.6,0.2-1,0.5-1.3s0.8-0.5,1.3-0.5
				h4.8v2.1H1263.9z M1263.8,416.1c-0.2,0-0.3,0.1-0.3,0.3v5.3c0,0.2,0.1,0.3,0.3,0.3h1.4c0.2,0,0.3-0.1,0.3-0.3v-5.3
				c0-0.2-0.1-0.3-0.3-0.3H1263.8z"/>
			<path class="st15" d="M1276.7,414.8v9.2h-2.3v-15.5h2.3l2.2,7.3l2.1-7.3h2.4V424h-2.4v-9.2l-1.6,5h-0.9L1276.7,414.8z"/>
			<path class="st15" d="M1288.8,414.8v9.2h-2.3v-15.5h2.3l2.2,7.3l2.1-7.3h2.4V424h-2.4v-9.2l-1.6,5h-0.9L1288.8,414.8z"/>
		</g>
		<g>
			<path class="st15" d="M1350.3,414.6c0,0.4-0.2,0.8-0.5,1c-0.4,0.2-0.7,0.3-1.2,0.3c0.2,0,0.4,0,0.6,0.1c0.2,0.1,0.4,0.2,0.5,0.4
				c0.2,0.2,0.3,0.3,0.4,0.6c0.1,0.2,0.2,0.4,0.2,0.7v4.6c0,0.6-0.2,1-0.5,1.3s-0.8,0.5-1.3,0.5h-3.5c-0.6,0-1-0.2-1.3-0.5
				c-0.3-0.3-0.5-0.8-0.5-1.3v-4.6c0-0.2,0-0.4,0.1-0.7c0.1-0.2,0.2-0.4,0.4-0.6s0.3-0.3,0.6-0.4c0.2-0.1,0.4-0.1,0.6-0.1
				c-0.4,0-0.8-0.1-1.2-0.3c-0.3-0.2-0.5-0.6-0.5-1v-4.4c0-0.6,0.2-1,0.5-1.3c0.3-0.3,0.8-0.5,1.3-0.5h3.5c0.6,0,1,0.2,1.3,0.5
				c0.3,0.3,0.5,0.8,0.5,1.3V414.6z M1347.7,410.8c0-0.2-0.1-0.3-0.3-0.3h-1.3c-0.2,0-0.3,0.1-0.3,0.3v4c0,0.2,0.1,0.3,0.3,0.3h1.3
				c0.2,0,0.3-0.1,0.3-0.3V410.8z M1347.7,417.5c0-0.2-0.1-0.3-0.3-0.3h-1.3c-0.2,0-0.3,0.1-0.3,0.3v4.2c0,0.2,0.1,0.3,0.3,0.3h1.3
				c0.2,0,0.3-0.1,0.3-0.3V417.5z"/>
			<path class="st15" d="M1359,414.8v9.2h-2.3v-15.5h2.3l2.2,7.3l2.1-7.3h2.4V424h-2.4v-9.2l-1.6,5h-0.9L1359,414.8z"/>
			<path class="st15" d="M1371.1,414.8v9.2h-2.3v-15.5h2.3l2.2,7.3l2.1-7.3h2.4V424h-2.4v-9.2l-1.6,5h-0.9L1371.1,414.8z"/>
		</g>
		<line class="st16" x1="650" y1="99.2" x2="650" y2="387.2"/>
		<line class="st16" x1="762.8" y1="99.2" x2="762.8" y2="387.2"/>
		<line class="st16" x1="861.5" y1="99.2" x2="861.5" y2="387.2"/>
		<line class="st16" x1="1039.1" y1="99.2" x2="1039.1" y2="387.2"/>
		<line class="st16" x1="1174.1" y1="99.2" x2="1174.1" y2="387.2"/>
		<line class="st16" x1="1281.4" y1="99.2" x2="1281.4" y2="387.2"/>
		<line class="st16" x1="1360" y1="99.2" x2="1360" y2="387.2"/>
	</g>
	<g>
		<path d="M202.6,467h4.4l5,15.7l5-15.7h4.4l-6.9,20.4h-5L202.6,467z"/>
		<path d="M222.1,468.8c0-1.3,1.1-2.3,2.3-2.3c1.3,0,2.3,1.1,2.3,2.3s-1.1,2.3-2.3,2.3C223.2,471.1,222.1,470,222.1,468.8z
			 M222.6,472.8h3.8v14.6h-3.8V472.8z"/>
		<path d="M244.6,467v20.4h-3.8v-1.7c-1.1,1.3-2.6,2.1-4.7,2.1c-3.9,0-7.1-3.4-7.1-7.7s3.2-7.7,7.1-7.7c2.1,0,3.7,0.8,4.7,2.1V467
			H244.6z M240.9,480.1c0-2.5-1.7-4.1-4-4.1c-2.3,0-4.1,1.7-4.1,4.1c0,2.5,1.7,4.1,4.1,4.1C239.1,484.2,240.9,482.6,240.9,480.1z"/>
		<path d="M255.4,484.4c1.5,0,2.6-0.6,3.3-1.5l3,1.8c-1.4,2-3.6,3.1-6.4,3.1c-4.9,0-8-3.4-8-7.7s3.1-7.7,7.7-7.7
			c4.3,0,7.4,3.4,7.4,7.7c0,0.6-0.1,1.1-0.1,1.5h-11C251.8,483.6,253.4,484.4,255.4,484.4z M258.6,478.7c-0.5-2.1-2-3-3.6-3
			c-2,0-3.4,1.1-3.8,3H258.6z"/>
		<path d="M264.2,480.1c0-4.4,3.4-7.7,7.7-7.7c4.3,0,7.7,3.4,7.7,7.7s-3.4,7.7-7.7,7.7C267.6,487.8,264.2,484.5,264.2,480.1z
			 M275.8,480.1c0-2.4-1.7-4-4-4c-2.2,0-3.9,1.7-3.9,4c0,2.4,1.7,4,3.9,4C274.1,484.1,275.8,482.5,275.8,480.1z"/>
		<path d="M288.3,467h4.2l3.9,15.2l4.3-15.2h3.4l4.3,15.2l3.9-15.2h4.2l-5.7,20.4h-4.6l-3.9-13.5l-3.8,13.5H294L288.3,467z"/>
		<path d="M331.9,472.8v14.6h-3.8v-1.7c-1.1,1.3-2.6,2.1-4.8,2.1c-3.9,0-7.1-3.4-7.1-7.7s3.2-7.7,7.1-7.7c2.1,0,3.7,0.8,4.8,2.1
			v-1.7H331.9z M328.1,480.1c0-2.5-1.7-4.1-4.1-4.1c-2.3,0-4,1.7-4,4.1c0,2.5,1.7,4.1,4,4.1C326.4,484.2,328.1,482.6,328.1,480.1z"
			/>
		<path d="M335.3,466.1h3.8v21.3h-3.8V466.1z"/>
		<path d="M342.5,466.1h3.8v21.3h-3.8V466.1z"/>
	</g>
	<g>
		<path d="M951.9,473.8c0,3.8-3,6.9-7,6.9h-3.6v6.7h-4V467h7.6C948.9,467,951.9,470,951.9,473.8z M947.9,473.8c0-1.8-1.3-3.1-3-3.1
			h-3.6v6.2h3.6C946.7,476.9,947.9,475.6,947.9,473.8z"/>
		<path d="M953.9,468.8c0-1.3,1.1-2.3,2.3-2.3c1.3,0,2.3,1.1,2.3,2.3s-1.1,2.3-2.3,2.3C955,471.1,953.9,470,953.9,468.8z
			 M954.4,472.8h3.8v14.6h-3.8V472.8z"/>
		<path d="M970.7,487.4l-3.2-4.4l-3.2,4.4H960l5.3-7.4l-5.1-7.2h4.4l3,4.1l2.9-4.1h4.3l-5.1,7.1l5.3,7.5H970.7z"/>
		<path d="M983.2,484.4c1.5,0,2.6-0.6,3.3-1.5l3,1.8c-1.4,2-3.6,3.1-6.4,3.1c-4.9,0-8-3.4-8-7.7s3.1-7.7,7.7-7.7
			c4.3,0,7.4,3.4,7.4,7.7c0,0.6-0.1,1.1-0.1,1.5h-11C979.6,483.6,981.2,484.4,983.2,484.4z M986.5,478.7c-0.5-2.1-2-3-3.6-3
			c-2,0-3.4,1.1-3.8,3H986.5z"/>
		<path d="M992.9,466.1h3.8v21.3h-3.8V466.1z"/>
		<path d="M1022.2,473.8c0,3.8-3,6.9-7,6.9h-3.6v6.7h-4V467h7.6C1019.1,467,1022.2,470,1022.2,473.8z M1018.2,473.8
			c0-1.8-1.3-3.1-3-3.1h-3.6v6.2h3.6C1016.9,476.9,1018.2,475.6,1018.2,473.8z"/>
		<path d="M1024.2,468.8c0-1.3,1.1-2.3,2.3-2.3c1.3,0,2.3,1.1,2.3,2.3s-1.1,2.3-2.3,2.3C1025.2,471.1,1024.2,470,1024.2,468.8z
			 M1024.6,472.8h3.8v14.6h-3.8V472.8z"/>
		<path d="M1036.9,476.4v6.1c0,1.6,1.1,1.6,3.3,1.5v3.4c-5.3,0.6-7.1-1-7.1-4.9v-6.1h-2.5v-3.6h2.5v-3l3.8-1.1v4.1h3.3v3.6H1036.9z"
			/>
		<path d="M1041.6,480.1c0-4.4,3.3-7.7,7.7-7.7c2.9,0,5.3,1.5,6.5,3.8l-3.2,1.9c-0.6-1.2-1.8-2-3.3-2c-2.2,0-3.9,1.7-3.9,4
			c0,2.3,1.7,4,3.9,4c1.5,0,2.8-0.7,3.4-1.9l3.3,1.9c-1.3,2.3-3.7,3.8-6.6,3.8C1044.9,487.8,1041.6,484.5,1041.6,480.1z"/>
		<path d="M1071.6,478.5v9h-3.8v-8.5c0-2-1.2-3-2.9-3c-1.8,0-3.2,1.1-3.2,3.6v7.9h-3.8V467h3.8v7.5c0.9-1.3,2.4-2,4.4-2
			C1069.2,472.4,1071.6,474.6,1071.6,478.5z"/>
	</g>
	<g>
		<path d="M880.2,4.4h4.4l5,15.7l5-15.7h4.4l-6.9,20.4h-5L880.2,4.4z"/>
		<path d="M899.7,6.2c0-1.3,1.1-2.3,2.3-2.3c1.3,0,2.3,1.1,2.3,2.3s-1.1,2.3-2.3,2.3C900.8,8.5,899.7,7.4,899.7,6.2z M900.1,10.2
			h3.8v14.6h-3.8V10.2z"/>
		<path d="M914.7,21.8c1.5,0,2.6-0.6,3.3-1.5l3,1.8c-1.4,2-3.6,3.1-6.4,3.1c-4.9,0-8-3.4-8-7.7s3.1-7.7,7.7-7.7
			c4.3,0,7.4,3.4,7.4,7.7c0,0.6-0.1,1.1-0.1,1.5h-11C911.1,21,912.7,21.8,914.7,21.8z M917.9,16.2c-0.5-2.1-2-3-3.6-3
			c-2,0-3.4,1.1-3.8,3H917.9z"/>
		<path d="M944.2,10.2l-4.6,14.6h-3.6l-2.7-8.8l-2.7,8.8H927l-4.6-14.6h4l2.5,9l2.7-9h3.6l2.7,9l2.5-9H944.2z"/>
		<path d="M945.8,6.2c0-1.3,1.1-2.3,2.3-2.3c1.3,0,2.3,1.1,2.3,2.3s-1.1,2.3-2.3,2.3C946.8,8.5,945.8,7.4,945.8,6.2z M946.2,10.2
			h3.8v14.6h-3.8V10.2z"/>
		<path d="M967.1,15.9v9h-3.8v-8.5c0-2-1.2-3-2.9-3c-1.8,0-3.2,1.1-3.2,3.6v7.9h-3.8V10.2h3.8v1.6c0.9-1.3,2.4-2,4.4-2
			C964.7,9.8,967.1,12,967.1,15.9z"/>
		<path d="M985.2,10.2v13.9c0,4.8-3.8,7-7.6,7c-3.1,0-5.6-1.2-6.9-3.6l3.2-1.8c0.6,1.1,1.6,2,3.8,2c2.4,0,3.8-1.3,3.8-3.6v-1.6
			c-1,1.4-2.6,2.2-4.7,2.2c-4.1,0-7.3-3.4-7.3-7.5c0-4.1,3.1-7.5,7.3-7.5c2.1,0,3.7,0.8,4.7,2.2v-1.8H985.2z M981.5,17.3
			c0-2.3-1.7-4-4.1-4c-2.4,0-4.1,1.7-4.1,4c0,2.3,1.7,4,4.1,4C979.8,21.3,981.5,19.6,981.5,17.3z"/>
		<path d="M1014,14.6c0,5.8-4.2,10.2-9.8,10.2h-8.1V4.4h8.1C1009.8,4.4,1014,8.8,1014,14.6z M1010.2,14.6c0-3.8-2.5-6.4-6-6.4h-4.1
			V21h4.1C1007.7,21,1010.2,18.4,1010.2,14.6z"/>
		<path d="M1016.3,6.2c0-1.3,1.1-2.3,2.3-2.3c1.3,0,2.3,1.1,2.3,2.3s-1.1,2.3-2.3,2.3C1017.3,8.5,1016.3,7.4,1016.3,6.2z
			 M1016.7,10.2h3.8v14.6h-3.8V10.2z"/>
		<path d="M1034.8,20.6c0,3.2-2.7,4.7-5.9,4.7c-2.9,0-5.1-1.2-6.1-3.5l3.3-1.8c0.4,1.2,1.4,1.9,2.9,1.9c1.2,0,2-0.4,2-1.3
			c0-2.1-7.5-1-7.5-6.1c0-3,2.5-4.6,5.5-4.6c2.4,0,4.4,1.1,5.5,3.1l-3.2,1.8c-0.4-0.9-1.3-1.5-2.3-1.5c-0.9,0-1.7,0.4-1.7,1.2
			C1027.3,16.5,1034.8,15.2,1034.8,20.6z"/>
		<path d="M1041.8,13.8v6.1c0,1.6,1.1,1.6,3.3,1.5v3.4c-5.3,0.6-7.1-1-7.1-4.9v-6.1h-2.5v-3.6h2.5v-3l3.8-1.1v4.1h3.3v3.6H1041.8z"
			/>
		<path d="M1062.2,10.2v14.6h-3.8v-1.7c-1.1,1.3-2.6,2.1-4.8,2.1c-3.9,0-7.1-3.4-7.1-7.7s3.2-7.7,7.1-7.7c2.1,0,3.7,0.8,4.8,2.1
			v-1.7H1062.2z M1058.5,17.5c0-2.5-1.7-4.1-4.1-4.1c-2.3,0-4,1.7-4,4.1c0,2.5,1.7,4.1,4,4.1C1056.7,21.6,1058.5,20,1058.5,17.5z"/>
		<path d="M1079.3,15.9v9h-3.8v-8.5c0-2-1.2-3-2.9-3c-1.8,0-3.2,1.1-3.2,3.6v7.9h-3.8V10.2h3.8v1.6c0.9-1.3,2.4-2,4.4-2
			C1076.9,9.8,1079.3,12,1079.3,15.9z"/>
		<path d="M1081.7,17.5c0-4.4,3.3-7.7,7.7-7.7c2.9,0,5.3,1.5,6.5,3.8l-3.2,1.9c-0.6-1.2-1.8-2-3.3-2c-2.2,0-3.9,1.7-3.9,4
			c0,2.3,1.7,4,3.9,4c1.5,0,2.8-0.7,3.4-1.9l3.3,1.9c-1.3,2.3-3.7,3.8-6.6,3.8C1085,25.2,1081.7,21.9,1081.7,17.5z"/>
		<path d="M1105.1,21.8c1.5,0,2.6-0.6,3.3-1.5l3,1.8c-1.4,2-3.6,3.1-6.4,3.1c-4.9,0-8-3.4-8-7.7s3.1-7.7,7.7-7.7
			c4.3,0,7.4,3.4,7.4,7.7c0,0.6-0.1,1.1-0.1,1.5h-11C1101.5,21,1103.1,21.8,1105.1,21.8z M1108.4,16.2c-0.5-2.1-2-3-3.6-3
			c-2,0-3.4,1.1-3.8,3H1108.4z"/>
	</g>
	<polyline class="st17" points="610,431.1 610,446.1 1398.5,446.1 1398.5,431.1 	"/>
	<polyline class="st17" points="1398.5,60.8 1398.5,45.8 610,45.8 610,60.8 	"/>
</g>
</svg>
