<?xml version="1.0" encoding="utf-8"?>
<!-- Generator: Adobe Illustrator 21.0.0, SVG Export Plug-In . SVG Version: 6.00 Build 0)  -->
<svg version="1.1" id="Layer_1" xmlns="http://www.w3.org/2000/svg" xmlns:xlink="http://www.w3.org/1999/xlink" x="0px" y="0px"
	 viewBox="0 0 333.9 104.1" style="enable-background:new 0 0 333.9 104.1;" xml:space="preserve">
<style type="text/css">
	.st0{fill:#FFFFFF;}
	.st1{fill:#0976A8;}
	.st2{fill-rule:evenodd;clip-rule:evenodd;fill:#0976A8;}
</style>
<g>
	<path class="st0" d="M111.3,65.6V5.4l10.5-5.3v18.2c0.5-1.7,1.3-3,2.4-3.9c1.1-0.9,2.5-1.4,4.1-1.4h3.3c2.9,0,5,0.7,6.2,2.1
		c1.3,1.4,1.9,3.7,1.9,7v34.5c0,3.2-0.6,5.5-1.9,6.9c-1.3,1.4-3.3,2.1-6.2,2.1h-3.3c-1.6,0-3-0.5-4.1-1.4c-1.1-0.9-1.9-2.2-2.4-3.9
		v5.3H111.3z M129.3,23.5h-7.5v32.1h7.5V23.5z"/>
	<path class="st0" d="M146.8,5.3L157.3,0v65.6h-10.5V5.3z"/>
	<path class="st0" d="M164.3,14.1V5.3L174.8,0v8.8L164.3,14.1z M164.3,18.3l10.5-5.3v52.6h-10.5V18.3z"/>
	<path class="st0" d="M180.4,65.6v-10L194,23.1h-13.5V13h24.8v10.1l-13.5,32.5h13.5v10H180.4z"/>
	<path class="st0" d="M209.6,65.6v-10l13.5-32.5h-13.5V13h24.8v10.1l-13.5,32.5h13.5v10H209.6z"/>
	<path class="st0" d="M240,22.1c0-2.9,0.8-5.1,2.3-6.7c1.5-1.6,3.7-2.4,6.5-2.4h10.9c2.8,0,4.9,0.8,6.5,2.4c1.5,1.6,2.3,3.8,2.3,6.7
		v43.5H258v-5.3c-0.5,1.7-1.3,3-2.4,3.9c-1.1,0.9-2.5,1.4-4.1,1.4h-3.3c-2.9,0-5-0.7-6.2-2.1c-1.3-1.4-1.9-3.7-1.9-6.9V39.7
		l18.1-9.1v-7.9h-7.8v4.7L240,32.6V22.1z M258.2,40.8l-7.8,3.9v11.1h7.8V40.8z"/>
	<path class="st0" d="M275.5,13H286v5.3c0.5-1.7,1.3-3,2.4-3.9c1.1-0.9,2.4-1.4,4-1.4h1.6c2.6,0,4.6,0.8,5.9,2.3
		c1.3,1.5,2,3.8,2,6.8v4.8l-10.5,5.3v-9.1H286v42.5h-10.5V13z"/>
	<path class="st0" d="M333.9,65.6h-10.5v-5.3c-0.5,1.7-1.3,3-2.4,3.9c-1.1,0.9-2.5,1.4-4.1,1.4h-3.3c-2.9,0-5-0.7-6.2-2.1
		c-1.3-1.4-1.9-3.7-1.9-6.9V22.1c0-3.2,0.6-5.6,1.9-7c1.3-1.4,3.3-2.1,6.2-2.1h3.3c1.6,0,3,0.5,4.1,1.4c1.1,0.9,1.9,2.2,2.4,3.9V5.3
		L333.9,0V65.6z M315.9,23.5v32.1h7.5V23.5H315.9z"/>
	<path class="st0" d="M111.7,70.1h3.3V100h12.7v3.2h-16V70.1z"/>
	<path class="st0" d="M135.5,70.1h3.3v33.1h-3.3V70.1z"/>
	<path class="st0" d="M181.3,75.7l-2.6,2.4c-1.8-1.8-3.9-3.2-6.1-4.1c-2.2-0.9-4.3-1.4-6.4-1.4c-2.6,0-5.1,0.6-7.4,1.9
		c-2.3,1.3-4.2,3-5.4,5.2c-1.3,2.2-1.9,4.5-1.9,6.9c0,2.5,0.7,4.9,2,7.1c1.3,2.2,3.2,4,5.5,5.3c2.4,1.3,4.9,1.9,7.7,1.9
		c3.4,0,6.3-1,8.6-2.9c2.4-1.9,3.7-4.4,4.2-7.5H169v-3.2h14.2c0,5.1-1.5,9.2-4.6,12.2c-3,3-7,4.5-12.1,4.5c-6.1,0-11-2.1-14.5-6.2
		c-2.7-3.2-4.1-6.9-4.1-11.1c0-3.1,0.8-6,2.4-8.7c1.6-2.7,3.7-4.8,6.5-6.3c2.7-1.5,5.8-2.3,9.3-2.3c2.8,0,5.4,0.5,7.9,1.5
		C176.5,71.8,178.9,73.4,181.3,75.7z"/>
	<path class="st0" d="M192.4,70.1h3.3V84h16.8V70.1h3.3v33.1h-3.3v-16h-16.8v16h-3.3V70.1z"/>
	<path class="st0" d="M223.6,73.3v-3.2h18.1v3.2h-7.4v29.8H231V73.3H223.6z"/>
	<path class="st0" d="M249,70.1h3.3v33.1H249V70.1z"/>
	<path class="st0" d="M262.9,103.2V70.1h0.7l22,25.3V70.1h3.3v33.1h-0.7l-21.8-25v25H262.9z"/>
	<path class="st0" d="M331.8,75.7l-2.6,2.4c-1.8-1.8-3.9-3.2-6.1-4.1c-2.2-0.9-4.3-1.4-6.4-1.4c-2.6,0-5.1,0.6-7.4,1.9
		c-2.3,1.3-4.2,3-5.4,5.2c-1.3,2.2-1.9,4.5-1.9,6.9c0,2.5,0.7,4.9,2,7.1c1.3,2.2,3.2,4,5.5,5.3c2.4,1.3,4.9,1.9,7.7,1.9
		c3.4,0,6.3-1,8.6-2.9c2.4-1.9,3.7-4.4,4.2-7.5h-10.5v-3.2h14.2c0,5.1-1.5,9.2-4.6,12.2c-3,3-7,4.5-12.1,4.5c-6.1,0-11-2.1-14.5-6.2
		c-2.7-3.2-4.1-6.9-4.1-11.1c0-3.1,0.8-6,2.4-8.7c1.6-2.7,3.7-4.8,6.5-6.3c2.7-1.5,5.8-2.3,9.3-2.3c2.8,0,5.4,0.5,7.9,1.5
		C327.1,71.8,329.5,73.4,331.8,75.7z"/>
	<g>
		<g>
			<path class="st1" d="M102.4,1.7v101.4H1V1.7H102.4 M103.4,0.7H0v103.4h103.4V0.7L103.4,0.7z"/>
		</g>
	</g>
	<polygon class="st2" points="101.4,10.2 100.4,10.2 98.9,12.8 101.4,17.1 	"/>
	<polyline class="st2" points="59.1,102 64.8,92.2 66.1,94.5 69.1,94.5 70.6,91.9 67.8,87 74.2,75.9 77.1,81 80.1,81 81.6,78.4 
		77.3,70.6 80.5,65 89.1,65 92.3,70.7 88,78.3 89.5,80.9 92.5,80.9 95.3,75.9 101.4,86.3 101.4,75.9 99.9,73.3 101.4,73.3 
		101.4,68.1 96.8,68 93.6,62.4 97.9,55 101.4,55 101.4,49.8 97.9,49.8 93.6,42.3 96.8,36.7 101.4,36.7 101.4,31.4 99.9,31.5 
		101.4,28.9 101.4,18.4 95.3,28.9 92.5,23.8 89.4,23.8 87.9,26.4 92.3,34.1 89.1,39.7 80.5,39.7 77.2,34.1 81.6,26.4 80.1,23.8 
		77,23.8 74.2,28.8 67.8,17.8 70.6,12.9 69.1,10.2 66.1,10.2 64.8,12.5 58.9,2.4 52.9,2.4 60.3,15.1 57.6,15.1 56.1,17.7 57.6,20.4 
		63.3,20.4 69.7,31.5 63.9,31.4 62.3,34 63.9,36.7 72.7,36.7 76,42.3 71.7,49.8 65.2,49.8 60.7,42.2 57.7,42.2 56.2,44.8 59.1,49.8 
		46.3,49.8 43.5,44.9 40.4,44.9 38.9,47.5 40.2,49.8 24.8,49.8 23.3,52.4 24.8,55 40.3,55 38.9,57.3 40.4,59.9 43.5,59.9 46.3,55 
		59.1,55 56.2,60 57.7,62.6 60.7,62.6 65.2,55 71.7,55 76,62.4 72.7,68 63.9,68.1 62.4,70.7 63.9,73.4 69.7,73.3 63.3,84.4 
		57.6,84.4 56.1,87 57.6,89.7 60.2,89.6 53.1,102 	"/>
	<polygon class="st2" points="101.4,87.7 99,91.9 100.5,94.5 101.4,94.5 	"/>
</g>
</svg>
