<?xml version="1.0" encoding="utf-8"?>
<!-- Generator: Adobe Illustrator 19.2.1, SVG Export Plug-In . SVG Version: 6.00 Build 0)  -->
<svg version="1.1" id="Layer_1" xmlns="http://www.w3.org/2000/svg" xmlns:xlink="http://www.w3.org/1999/xlink" x="0px" y="0px"
	 viewBox="0 0 864 192.3" style="enable-background:new 0 0 864 192.3;" xml:space="preserve">
<style type="text/css">
	.st0{fill:#FFFFFF;}
	.st1{fill:#0476A8;}
</style>
<g>
	<path class="st0" d="M212.6,192V15.7l30.7-15.4v53.4c1.4-5,3.7-8.8,7-11.5c3.3-2.7,7.3-4.1,12-4.1h9.7c8.5,0,14.5,2.1,18.2,6.2
		c3.7,4.1,5.5,10.9,5.5,20.4v100.9c0,9.5-1.8,16.2-5.5,20.3c-3.7,4.1-9.8,6.1-18.2,6.1h-9.7c-4.7,0-8.7-1.4-12-4.1
		c-3.3-2.7-5.7-6.5-7-11.5V192H212.6z M265.1,68.6h-21.9v94h21.9V68.6z"/>
	<path class="st0" d="M316.3,15.4L347,0v192h-30.7V15.4z"/>
	<path class="st0" d="M367.5,41.2V15.4L398.2,0v25.7L367.5,41.2z M367.5,53.6l30.7-15.5V192h-30.7V53.6z"/>
	<path class="st0" d="M414.8,192v-29.3l39.6-95h-39.6V38.1h72.6v29.6l-39.6,95h39.6V192H414.8z"/>
	<path class="st0" d="M500.1,192v-29.3l39.6-95h-39.6V38.1h72.6v29.6l-39.6,95h39.6V192H500.1z"/>
	<path class="st0" d="M589.3,64.7c0-8.4,2.3-14.9,6.8-19.6c4.5-4.7,10.8-7,18.9-7h31.9c8.1,0,14.4,2.3,18.9,7
		c4.5,4.7,6.8,11.2,6.8,19.6V192h-30.7v-15.5c-1.4,5-3.7,8.8-7,11.5c-3.3,2.7-7.3,4.1-12,4.1h-9.7c-8.5,0-14.5-2-18.2-6.1
		c-3.7-4.1-5.5-10.8-5.5-20.3v-49.5l53.1-26.6V66.3h-23V80l-30.1,15.4V64.7z M642.4,119.5l-23,11.3v32.4h23V119.5z"/>
	<path class="st0" d="M693.1,38.1h30.7v15.5c1.4-5,3.8-8.9,7-11.6c3.2-2.7,7.1-4,11.8-4h4.7c7.7,0,13.4,2.2,17.2,6.7
		c3.8,4.5,5.7,11.1,5.7,19.9v14.1l-30.7,15.5V67.7h-15.8V192h-30.7V38.1z"/>
	<path class="st0" d="M864,192h-30.7v-15.5c-1.4,5-3.7,8.8-7,11.5c-3.3,2.7-7.3,4.1-12,4.1h-9.7c-8.5,0-14.5-2-18.2-6.1
		c-3.7-4.1-5.5-10.8-5.5-20.3V64.7c0-9.5,1.8-16.3,5.5-20.4c3.7-4.1,9.8-6.2,18.2-6.2h9.7c4.7,0,8.7,1.4,12,4.1
		c3.3,2.7,5.7,6.5,7,11.5V15.4L864,0V192z M811.4,68.6v94h21.9v-94H811.4z"/>
</g>
<path class="st1" d="M0,0.3v192h192V0.3H0z M187.3,18.4l-2.2,3.8l2.2,3.9v10.6l-9,15.5l-5.4-9.5h-5.7l-2.8,4.9l8.2,14.5l-6.1,10.5
	h-16.1l-6.1-10.6l8.2-14.4l-2.8-4.9h-5.7l-5.4,9.4l-12-20.8l5.2-9.2l-2.8-4.9l-5.7,0l-2.4,4.3L111.3,5h76V18.4z M181.1,126
	l-6.1-10.5l8.1-13.9l4.2,0v24.5L181.1,126z M187.3,135.9v0.8l-0.5-0.8L187.3,135.9z M183.1,91.7l-8.1-13.9l6.1-10.6l6.1-0.1v24.6
	H183.1z M186.9,57.3l0.4-0.7v0.7L186.9,57.3z M4.7,5h95.2l12.5,21.6l-5,0l-2.8,4.9l2.8,4.9l10.7,0.1l12,20.8l-10.9-0.1l-2.8,4.9
	l2.8,4.9l16.6,0.1l6.1,10.5l-8.1,13.9h-12.2l-8.4-14.3h-5.7l-2.8,4.9l5.5,9.4h-24l-5.4-9.1h-5.7l-2.8,4.9l2.5,4.2h-29l-2.8,4.9
	l2.8,4.9h29.1l-2.5,4.3l2.8,4.9h5.7l5.4-9.2h24l-5.5,9.4l2.8,4.9h5.7l8.4-14.4h12.2l8.1,13.9l-6.1,10.6l-16.6,0.1l-2.8,4.9l2.8,4.9
	l10.9-0.1l-12,20.8l-10.6,0.1l-2.8,4.9l2.8,4.9l4.9,0l-12.1,21H4.7V5z M111.6,187.6l9.3-16.1l2.5,4.3h5.7l2.8-4.9l-5.3-9.3l12-20.8
	l5.4,9.5h5.7l2.8-4.9l-8.2-14.5l6.1-10.6h16.1l6.1,10.6l-8.2,14.4l2.8,4.9h5.7l5.3-9.4l9,15.5v10.7l-2.2,3.8l2.2,3.7v13H111.6z"/>
</svg>
