<svg id="ab190b6f-7ce6-4dea-97ab-f667aecb560f" data-name="Layer 1" xmlns="http://www.w3.org/2000/svg" viewBox="0 0 179.16 182.18"><defs><style>.bef99b17-9893-4439-9051-316eacac1e65{fill:#2fcad6;}.b786224d-9d28-4a17-b811-e001c3c2ae09{fill:#282bf6;}</style></defs><path class="bef99b17-9893-4439-9051-316eacac1e65" d="M176.89,108.72,147.17,90.57l29.72-18.16A4.74,4.74,0,0,0,172,64.32l-36.34,22.2a4.74,4.74,0,0,0,0,8.09L172,116.81a4.74,4.74,0,1,0,4.94-8.09Z"/><path class="bef99b17-9893-4439-9051-316eacac1e65" d="M45.82,90.57a4.75,4.75,0,0,0-2.27-4L7.21,64.32a4.74,4.74,0,0,0-4.94,8.09L32,90.57,2.27,108.72a4.74,4.74,0,0,0,4.94,8.09l36.34-22.2A4.73,4.73,0,0,0,45.82,90.57Z"/><path class="bef99b17-9893-4439-9051-316eacac1e65" d="M111.47,52.67a4.7,4.7,0,0,0,4.63.06l37.41-20.37A4.74,4.74,0,0,0,149,24L118.38,40.7l-.85-34.82a4.74,4.74,0,1,0-9.47.23l1,42.58A4.72,4.72,0,0,0,111.47,52.67Z"/><path class="bef99b17-9893-4439-9051-316eacac1e65" d="M67.69,128.46a4.72,4.72,0,0,0-4.63-.06L25.65,148.77a4.74,4.74,0,0,0,4.54,8.32l30.59-16.66.85,34.82a4.73,4.73,0,0,0,4.73,4.62h.12A4.72,4.72,0,0,0,71.1,175l-1-42.57A4.72,4.72,0,0,0,67.69,128.46Z"/><path class="bef99b17-9893-4439-9051-316eacac1e65" d="M153.56,148.71l-37.42-20.33a4.73,4.73,0,0,0-7,4.05l-1,42.57a4.74,4.74,0,0,0,4.62,4.85h.12a4.74,4.74,0,0,0,4.73-4.62l.82-34.83L149,157a4.73,4.73,0,0,0,4.52-8.32Z"/><path class="bef99b17-9893-4439-9051-316eacac1e65" d="M25.6,32.43,63,52.76a4.74,4.74,0,0,0,7-4.06L71,6.13a4.74,4.74,0,1,0-9.47-.22l-.82,34.82L30.12,24.1a4.74,4.74,0,0,0-4.52,8.33Z"/><path class="b786224d-9d28-4a17-b811-e001c3c2ae09" d="M169.07,133.53a4.73,4.73,0,0,0-2.21-2.92l-38.08-22.33V73.84l38-22.35A4.79,4.79,0,1,0,162,43.23L124.27,65.39h0l0,0-.25.15L94.15,48.34V4.79a4.79,4.79,0,0,0-9.58,0V48.32h0L55.32,65.22,18,43.32a4.79,4.79,0,1,0-4.85,8.26L49.93,73.16v35.92L13.16,130.7a4.79,4.79,0,0,0-1.7,6.56A4.8,4.8,0,0,0,18,139l37.35-22,29.19,16.86h0v43.53a4.79,4.79,0,1,0,9.58,0V133.85L124,116.6h0l38,22.27a4.78,4.78,0,0,0,6.55-1.71A4.71,4.71,0,0,0,169.07,133.53ZM75.33,94.15,60.09,103.1v-24l20.43,12Zm26.89-1.43-2.77-1.63L105,87.83l13.62-8v22.5Zm11.67-21.24L94.15,83.09v-23ZM84.56,82.35,65.4,71.13,84.56,60.07Zm0,39.78-19.11-11L84.56,99.86Zm9.59-23,7.24,4.24,12.55,7.36L94.15,122.12Z"/><polygon class="bef99b17-9893-4439-9051-316eacac1e65" points="118.62 79.83 99.45 91.09 118.62 102.33 128.77 108.28 128.77 113.86 124.69 116.23 124.03 116.6 113.95 110.69 94.14 99.08 94.14 133.86 89.35 136.62 84.56 133.86 84.56 99.83 55.38 116.99 49.93 113.86 49.93 109.08 60.08 103.1 80.51 91.11 80.53 91.09 49.93 73.16 49.93 68.34 54.82 65.5 55.31 65.22 65.39 71.12 84.56 82.36 84.56 48.32 89.39 45.54 89.89 45.89 94.14 48.34 94.14 83.1 113.9 71.48 123.97 65.56 124.26 65.38 125.08 66.2 128.72 68.31 128.77 68.91 128.77 73.85 118.62 79.83"/></svg>