<svg id="Layer_1" data-name="Layer 1" xmlns="http://www.w3.org/2000/svg" viewBox="0 0 426.66 319.11"><defs><style>.cls-1{fill:#abb1ef;}.cls-2{fill:#fff;}</style></defs><title>mask</title><path class="cls-1" d="M213.32,276.45A211.93,211.93,0,0,1,62.48,214,211.93,211.93,0,0,1,0,63.13,214.42,214.42,0,0,1,5.55,14.61L9,0,38.17,6.8l-3.4,14.61A183.85,183.85,0,0,0,30,63.13c0,101.08,82.24,183.32,183.32,183.32S396.66,164.21,396.66,63.13a184.42,184.42,0,0,0-4.77-41.72L388.49,6.8,417.71,0l3.4,14.61a214.42,214.42,0,0,1,5.55,48.52C426.66,180.75,331,276.45,213.32,276.45Z"/><path class="cls-2" d="M215.4,319.08c19.57-.52,38.9-7.63,56.14-17.22,36.37-20.24,59.86-55.36,74.09-93.62,4.61-12.38,8.13-25.07,12-37.68,11-36.16-3.38-58.08-3.38-58.08-14-23.66-39.17-39.34-61.15-54.74C272.37,43.23,249,29.1,223.71,24.66,194,19.44,160.85,41.57,137.77,57.74c-22,15.4-47.2,31.08-61.14,54.74,0,0-14.42,21.92-3.39,58.08,10.19,33.38,20.66,66.33,42.7,94.14,19.35,24.4,47.1,44.22,77.46,52A80.36,80.36,0,0,0,215.4,319.08Z"/><path class="cls-1" d="M286.84,90.3a5.79,5.79,0,0,1-3.95-1.55h0c-.38-.34-37.7-34.59-67.87-34.59h-.91c-30.17,0-67.49,34.25-67.87,34.59a5.82,5.82,0,0,1-7.91-8.54c1.66-1.54,41-37.7,75.78-37.7H215c34.75,0,74.13,36.16,75.78,37.7a5.82,5.82,0,0,1-4,10.09Z"/><path class="cls-1" d="M109.43,185.2c17.95-2.69,35.91-4,53.86-5s35.91-1.39,53.87-1.39,35.91.43,53.87,1.37,35.91,2.36,53.86,5.06c-17.95,2.7-35.91,4.06-53.86,5.06s-35.91,1.38-53.87,1.37-35.91-.44-53.87-1.39S127.38,187.89,109.43,185.2Z"/><path class="cls-1" d="M146,223.22a242.37,242.37,0,0,1,34.27-5q17.13-1.41,34.27-1.39t34.27,1.37a239.77,239.77,0,0,1,34.27,5.06,237,237,0,0,1-34.27,5.06c-11.43.95-22.85,1.39-34.27,1.38s-22.85-.45-34.27-1.39A241,241,0,0,1,146,223.22Z"/><path class="cls-1" d="M172.33,263.15a98.48,98.48,0,0,1,21.36-5,161.28,161.28,0,0,1,21.36-1.39,159.58,159.58,0,0,1,21.36,1.37,98,98,0,0,1,21.36,5.06,96.82,96.82,0,0,1-21.36,5.06,159.59,159.59,0,0,1-21.36,1.38,161.3,161.3,0,0,1-21.36-1.4A97.9,97.9,0,0,1,172.33,263.15Z"/></svg>