<svg id="Layer_1" data-name="Layer 1" xmlns="http://www.w3.org/2000/svg" viewBox="0 0 160.34 42.48"><defs><style>.cls-1{fill:#470a33;}.cls-2{fill:#e73d5b;}.cls-3{fill:#afd2bc;}.cls-4{fill:#ffde4b;}</style></defs><path class="cls-1" d="M35.84,8.11a3.85,3.85,0,0,0-4-2.61H23.28q-.57,0-.57.48v.57c0,.22.16.42.47.61a4,4,0,0,1,1.07,1,1.73,1.73,0,0,1,.31,1,4.14,4.14,0,0,1-.43,1.47l-.8,1.76L21.48,8.11a4.07,4.07,0,0,0-1.64-2,5.79,5.79,0,0,0-2.91-.6H7.82q-.57,0-.57.48v.57c0,.22.16.42.48.61A5.82,5.82,0,0,1,9.22,8.44a2.32,2.32,0,0,1,.4,1.38A3,3,0,0,1,9.34,11q-5,12-7.18,17.66T0,35.32a1.62,1.62,0,0,0,.5,1.26A2.07,2.07,0,0,0,1.94,37H43.62a1.36,1.36,0,0,0,1.56-1.52,13.68,13.68,0,0,0-.9-3.31Z"/><path class="cls-2" d="M79.22,32.2,70.08,8.11a3.87,3.87,0,0,0-1.5-2A4.68,4.68,0,0,0,66,5.5H55c-.38,0-.56.16-.56.48v.57c0,.22.15.42.47.61a5.47,5.47,0,0,1,1.49,1.28,2.32,2.32,0,0,1,.41,1.38A3,3,0,0,1,56.56,11q-5.22,12.13-7.39,17.69C47.71,32.38,47,34.6,47,35.33a1.61,1.61,0,0,0,.5,1.25,2.1,2.1,0,0,0,1.45.45H78.56c1,0,1.57-.5,1.57-1.52A10.9,10.9,0,0,0,79.22,32.2Zm-10-5.33-1.82-1.15a.81.81,0,0,0-1.1.25.8.8,0,0,0,.25,1.1l1.76,1.11a6.49,6.49,0,0,1-4.13,2.17V28.24a.8.8,0,0,0-.8-.8.79.79,0,0,0-.79.8v2.11A6.5,6.5,0,0,1,58,27.59l1.87-.89a.8.8,0,0,0-.69-1.44l-1.94.93a6.69,6.69,0,0,1-.44-2.37,6.5,6.5,0,0,1,.52-2.58L59,22.35a.75.75,0,0,0,.43.13A.8.8,0,0,0,59.89,21l-1.81-1.15a6.57,6.57,0,0,1,4.47-2.58v2.11a.79.79,0,0,0,.79.8.8.8,0,0,0,.8-.8V17.28A6.57,6.57,0,0,1,69,20.51l-1.94.93A.79.79,0,0,0,67.45,23a.83.83,0,0,0,.34-.07l1.88-.9a6.6,6.6,0,0,1-.49,4.89Z"/><path class="cls-3" d="M119.43,35.56a9.58,9.58,0,0,1-1.49-1,7.9,7.9,0,0,1-1.07-1.25l-9.25-12.62,6.78-8q3.51-4.12,3.51-5.64c0-1.05-.61-1.57-1.85-1.57H100.61a.42.42,0,0,0-.48.48V6.5a1.3,1.3,0,0,0,.05.38,3.66,3.66,0,0,0,.28.52L106.15,16a2.05,2.05,0,0,1,.48,1.09,1,1,0,0,1-1,1L99.8,9.44a10.15,10.15,0,0,0-2.87-3.15,7.3,7.3,0,0,0-3.77-.79h-11q-.57,0-.57.48v.57a.45.45,0,0,0,.24.42,10.11,10.11,0,0,1,1.49,1,8.12,8.12,0,0,1,1.07,1.26L92.59,21.1l-7,8.73A38.6,38.6,0,0,0,83,33.4a4.36,4.36,0,0,0-.81,2.07,1.46,1.46,0,0,0,.45,1.18A2.11,2.11,0,0,0,84,37h15.7a.42.42,0,0,0,.47-.47V36a1.56,1.56,0,0,0-.33-.9L93.78,26a2,2,0,0,1-.47-1.09,1,1,0,0,1,.3-.73,1,1,0,0,1,.74-.31l6.16,9.25a10.15,10.15,0,0,0,2.87,3.15,7.44,7.44,0,0,0,3.77.78H119.1c.38,0,.57-.16.57-.47V36A.47.47,0,0,0,119.43,35.56Z"/><rect class="cls-2" x="123.37" y="5.5" width="31.47" height="31.47" rx="2.45" transform="translate(55.76 -92.14) rotate(45)"/><path class="cls-4" d="M138.55,12.13a.88.88,0,0,1,.64.2,1,1,0,0,1,.19.69V27.49a.52.52,0,0,0,.46.21c.28,0,.43-.19.43-.56V22.31a.74.74,0,0,1,.88-.89h3.11a2.7,2.7,0,0,1,2.11.77,3.53,3.53,0,0,1,.68,2.37v3.52a1,1,0,0,1-.19.68.89.89,0,0,1-.65.2H133.43a.86.86,0,0,1-.64-.2,1,1,0,0,1-.19-.68V15a3.42,3.42,0,0,0-.1-.93,1.39,1.39,0,0,0-.36-.53,6.74,6.74,0,0,0-.86-.64.26.26,0,0,1-.12-.23v-.3c0-.17.1-.26.3-.26Z"/></svg>