<svg id="Layer_1" data-name="Layer 1" xmlns="http://www.w3.org/2000/svg" viewBox="0 0 164.52 49.38"><defs><style>.cls-1{fill:#f4d90b;}.cls-2{fill:#e17126;}.cls-3{fill:#d43439;}.cls-4{fill:#c71f49;}.cls-5{fill:#7a1648;}</style></defs><path class="cls-1" d="M17.6,48.9V41.22c0-2.23-.72-3-2.18-3-1.62,0-2.36,1-2.36,2.85V48.9H8.8V41c0-1.84-.67-2.87-2.13-2.87-1.67,0-2.41,1.08-2.41,3V48.9H0V34.66H4v1.51H4a4.15,4.15,0,0,1,3.92-2,4.5,4.5,0,0,1,4.11,2.54,5.16,5.16,0,0,1,4.52-2.54c3.18,0,5.28,1.95,5.28,5.93v8.8Z"/><path class="cls-1" d="M23.32,33.14V29.91h4.26v3.23Zm0,15.76V34.66h4.26V48.9Z"/><path class="cls-2" d="M37.74,48.9l-4-6.85h-.05V48.9H29.4v-19h4.26v9.9h.05l4-5.15h5l-5.36,6.26,5.21,8Z"/><path class="cls-2" d="M42.85,48.9V34.66h4v1.51h0a3.51,3.51,0,0,1,3.57-2v4.28c-2.54,0-3.36,1-3.36,2.59V48.9Z"/><path class="cls-3" d="M57.45,49.33a7.57,7.57,0,1,1,7.67-7.62A7.44,7.44,0,0,1,57.45,49.33Zm3.41-7.57a3.42,3.42,0,1,0-3.41,3.6A3.5,3.5,0,0,0,60.86,41.76Z"/><path class="cls-3" d="M74.23,48.9l-4-6.85h0V48.9H65.89v-19h4.26v9.9h0l4-5.15h5.06l-5.37,6.26,5.21,8Z"/><path class="cls-4" d="M89.29,48.9V47.36h-.05c-.62,1.25-2.31,2-4.19,2-4.2,0-7.13-3.31-7.13-7.62a7.28,7.28,0,0,1,7.13-7.59,4.83,4.83,0,0,1,4.19,2h.05V34.66h4.26V48.9Zm0-7.14a3.61,3.61,0,0,0-3.62-3.61,3.63,3.63,0,1,0,3.62,3.61Z"/><path class="cls-4" d="M101.17,38.66c0-.82-.62-1.08-1.31-1.08s-1.23.41-1.23,1c0,.77.69,1.15,2.67,1.67,3.38.9,4.49,2.26,4.49,4.33,0,3-2.57,4.85-5.8,4.85s-5.49-1.82-5.8-4.72h4.23A1.47,1.47,0,0,0,100,46c.74,0,1.49-.43,1.49-1.1S101,43.66,98.91,43c-3.59-1.1-4.54-2.51-4.54-4.18,0-2.82,2.64-4.64,5.52-4.64,3.07,0,5.26,1.69,5.46,4.49Z"/><path class="cls-4" d="M113.46,38.66c0-.82-.62-1.08-1.31-1.08s-1.23.41-1.23,1c0,.77.69,1.15,2.67,1.67,3.38.9,4.49,2.26,4.49,4.33,0,3-2.57,4.85-5.8,4.85s-5.49-1.82-5.8-4.72h4.23A1.47,1.47,0,0,0,112.33,46c.74,0,1.49-.43,1.49-1.1s-.49-1.21-2.62-1.88c-3.59-1.1-4.54-2.51-4.54-4.18,0-2.82,2.64-4.64,5.52-4.64,3.07,0,5.26,1.69,5.46,4.49Z"/><path class="cls-4" d="M123.13,43.07a3.19,3.19,0,0,0,3.34,2.7,3,3,0,0,0,2.59-1.34h4.36a7.51,7.51,0,1,1-7-10.26,7.51,7.51,0,0,1,7.52,7.77,5.94,5.94,0,0,1-.1,1.13Zm6.52-2.87a3.36,3.36,0,0,0-6.47,0Z"/><path class="cls-4" d="M135.58,48.9v-11h-2.11V34.66h2.11V29.91h4.25v4.75h2.06v3.23h-2.06v11Z"/><path class="cls-5" d="M143,48.9v-11h-2.1V34.66H143V29.91h4.26v4.75h2v3.23h-2v11Z"/><path class="cls-5" d="M153.74,43.07a3.19,3.19,0,0,0,3.34,2.7,3,3,0,0,0,2.59-1.34H164a7.51,7.51,0,1,1-7-10.26,7.51,7.51,0,0,1,7.52,7.77,5.94,5.94,0,0,1-.1,1.13Zm6.52-2.87a3.36,3.36,0,0,0-6.47,0Z"/><circle class="cls-3" cx="65.17" cy="15.49" r="4.65"/><path class="cls-2" d="M65.34,1.45l-1.47.85,8.35,14.46a10.19,10.19,0,0,0,13.91,3.73l2-1.15-8-13.94A10.79,10.79,0,0,0,65.34,1.45Z"/><path class="cls-4" d="M102,20.49l2-1.15L96,5.4A10.79,10.79,0,0,0,86.59,0V3.83a6.79,6.79,0,0,1,2.07.32,7,7,0,0,1,4,3.16l6,10.46a5,5,0,0,1-.87.19,6.51,6.51,0,0,1-.88.06,6.43,6.43,0,0,1-3.39-1,6.5,6.5,0,0,1-2.13-2.2L85.13,4a7,7,0,0,1,1.11-.15h.35V0h0a10.74,10.74,0,0,0-5.38,1.45l-1.47.85,8.35,14.46A10.17,10.17,0,0,0,102,20.49Z"/></svg>