<svg id="Layer_1" data-name="Layer 1" xmlns="http://www.w3.org/2000/svg" viewBox="0 0 104.22 43.03"><defs><style>.cls-1{fill:#ea7123;}.cls-2{fill:#e62a34;}.cls-3{fill:#71161a;}.cls-4{fill:#fce4ca;}.cls-5{fill:#f29721;}</style></defs><polygon class="cls-1" points="97.97 29.91 6.44 29.91 8.74 25.23 95.73 25.23 97.97 29.91"/><polygon class="cls-2" points="100.95 36.16 3.37 36.16 5.92 30.96 98.47 30.96 100.95 36.16"/><polygon class="cls-3" points="104.22 43.03 0 43.03 2.88 37.21 101.34 37.21 104.22 43.03"/><path class="cls-4" d="M25.44,15.5h-1l-.91-.86-.18.12,1.69,2-1.1,3.34-2.59,2.17h-11l3.23-6.81h.84l.68.87.14-.14-1-2.07,1.38-2.89,2.4-1.67h9.46Z"/><path class="cls-4" d="M32.59,9.6l.91,1.18L34.93,9.6h4.39l-.78,4.55L34.15,18l-4.86,4.27H24.15l1.71-5.38,3.39-2.71-.05-.07-1.79,1.13-.69-1.06L28.19,9.6Z"/><path class="cls-4" d="M51.11,15.5h-1l-1.18-.86-.15.12,2.34,2-.05,3.34-1.91,2.17h-11l1.1-6.81H40l1,.87.08-.14L39.4,14.16l.46-2.89L41.74,9.6H51.2Z"/><path class="cls-4" d="M54,15.35h-.19l-.05,2.3H52l0-8H63l1.13,8H62.32L62,15.35h-.18l.81,7H54.17Z"/><path class="cls-4" d="M74.58,9.6l1.07,3.63H74l.08.31h1.71l1.16,4H75.11l.09.34H77l1.31,4.47H65.74L63.81,9.6Z"/><path class="cls-4" d="M82.27,10.78,83,9.6h5.27l6,12.71H87.8l-.39-1,.39-1.55-.11-.08-1,2.3-2.86-2.3,0,.08,1.59,1.55.37,1H79.24L75.37,9.6h5.3Z"/><path class="cls-4" d="M50,.89a2.56,2.56,0,0,1,.73,1.95V6.67H48.9V3.19c0-.87-.47-1.33-1.16-1.33a1.26,1.26,0,0,0-1.28,1.39V6.67H44.65V3.2a1.18,1.18,0,0,0-1.18-1.34,1.27,1.27,0,0,0-1.27,1.4V6.67H40.4V.38h1.75v.89A2.14,2.14,0,0,1,44.09.21a1.88,1.88,0,0,1,1.8,1.06A2.65,2.65,0,0,1,48.12.21,2.61,2.61,0,0,1,50,.89Z"/><path class="cls-4" d="M53.61,6.67h-1.8V.38h1.8Z"/><path class="cls-4" d="M54.74,6.67V.38h1.75v.87a2.25,2.25,0,0,1,2-1,2.41,2.41,0,0,1,1.73.67,2.57,2.57,0,0,1,.71,1.94V6.67h-1.8V3.29c0-.92-.48-1.43-1.23-1.43a1.34,1.34,0,0,0-1.35,1.48V6.67Z"/><path class="cls-4" d="M63.83,6.67H62V.38h1.81Z"/><polygon class="cls-5" points="23.37 0 21.13 0 17.8 7.62 20.28 7.62 23.37 0"/><polygon class="cls-5" points="22.98 0 19.89 7.62 17.41 7.62 17.55 7.29 17.57 7.25 21.13 0 22.98 0"/><polygon class="cls-5" points="26.38 0 24.14 0 21.13 7.62 23.61 7.62 26.38 0"/><polygon class="cls-5" points="29.39 0 27.15 0 24.46 7.62 26.94 7.62 29.39 0"/><polygon class="cls-1" points="32.4 0 30.16 0 27.79 7.62 30.27 7.62 32.4 0"/><polygon class="cls-1" points="35.41 0 33.17 0 31.12 7.62 33.6 7.62 35.41 0"/><polygon class="cls-1" points="38.42 0 36.17 0 34.45 7.62 36.93 7.62 38.42 0"/><polygon class="cls-2" points="68.5 0 66.26 0 67.75 7.62 70.23 7.62 68.5 0"/><polygon class="cls-2" points="71.51 0 69.27 0 71.08 7.62 73.56 7.62 71.51 0"/><polygon class="cls-2" points="74.52 0 72.28 0 74.41 7.62 76.89 7.62 74.52 0"/><polygon class="cls-3" points="77.53 0 75.29 0 77.74 7.62 80.22 7.62 77.53 0"/><polygon class="cls-3" points="80.54 0 78.3 0 81.07 7.62 83.55 7.62 80.54 0"/><polygon class="cls-3" points="83.69 0 81.31 0 84.59 7.62 87.23 7.62 83.69 0"/></svg>