<svg id="Layer_1" data-name="Layer 1" xmlns="http://www.w3.org/2000/svg" viewBox="0 0 373.99 43.85"><defs><style>.cls-1{fill:#ea7024;}.cls-2{fill:#ed2530;}.cls-3{fill:#721011;}.cls-4{fill:#140a0a;}.cls-5{fill:#fff1e6;}.cls-6{fill:#f7991c;}</style></defs><path class="cls-1" d="M150.75,20.66h-3.5l-4.14-2.8-.46.41,8.1,6.52v10l-5.89,6.12H110.18V20.66H113l3.67,2.79.23-.46-6.76-6.71v-10L116.07.14h34.68Z"/><path class="cls-2" d="M169.87.14l4.37,4.37L178.43.14h16.09V16.23l-12.3,12.38q-6.06,6.09-12.35,12.33H153.72V25.2l8.74-8.74-.23-.23-5,3.73-3.5-3.5V.14Z"/><path class="cls-1" d="M238.06,20.66h-3.49l-4.14-2.8-.47.41,8.1,6.52v10l-5.88,6.12H197.49V20.66h2.86L204,23.45l.24-.46-6.77-6.71v-10L203.38.14h34.68Z"/><path class="cls-3" d="M248,20.19h-.64L247,27.42h-6V.14h40.33V27.42h-6.06L275,20.19h-.64V40.94H248Z"/><path class="cls-2" d="M323.75.14v13H317.8v1h5.95V27H317.8V28h5.95V40.94H284.29V.14Z"/><path class="cls-1" d="M350.27,4.51,354.64.14H374v40.8H353.53V38.2l3.27-4.43-.24-.23-6.29,6.53-6.36-6.53-.17.23L347,38.2v2.74H326.66V.14h19.41Z"/><rect class="cls-4" width="102.5" height="43.85" rx="5.92"/><path class="cls-5" d="M42.78,17.43c1.79,1.66,2.66,4,2.66,7.07V38.35H38.91V25.75c0-3.16-1.7-4.83-4.2-4.83-2.7,0-4.66,1.92-4.66,5V38.35H23.52V25.79c0-3-1.74-4.87-4.28-4.87S14.62,22.84,14.62,26V38.35H8.09V15.56h6.36V18.8a7.73,7.73,0,0,1,7-3.86A6.83,6.83,0,0,1,28,18.8a9.67,9.67,0,0,1,8.07-3.86A9.42,9.42,0,0,1,42.78,17.43Z"/><path class="cls-5" d="M56,38.35H49.47V15.56H56Z"/><path class="cls-5" d="M60.08,38.35V15.56h6.36v3.16a8.16,8.16,0,0,1,7.2-3.78,8.85,8.85,0,0,1,6.28,2.45,9.31,9.31,0,0,1,2.58,7V38.35H76V26.12c0-3.32-1.75-5.2-4.45-5.2-3,0-4.91,2.17-4.91,5.37V38.35Z"/><path class="cls-5" d="M93,38.35H86.49V15.56H93Z"/><polyline class="cls-2" points="49.47 14.19 56 14.19 56 8.19"/><polyline class="cls-6" points="86.49 8.19 86.49 14.19 93.02 14.19"/></svg>