<?xml version="1.0" encoding="utf-8"?>
<!-- Generator: Adobe Illustrator 21.0.0, SVG Export Plug-In . SVG Version: 6.00 Build 0)  -->
<svg version="1.1" id="Layer_1" xmlns="http://www.w3.org/2000/svg" xmlns:xlink="http://www.w3.org/1999/xlink" x="0px" y="0px"
	 viewBox="0 0 293.2 293.2" style="enable-background:new 0 0 293.2 293.2;" xml:space="preserve">
<style type="text/css">
	.st0{fill:#0976A8;}
	.st1{fill-rule:evenodd;clip-rule:evenodd;fill:#0976A8;}
</style>
<g>
	<path class="st0" d="M290.3,290.3H2.8V2.8h287.5V290.3 M293.2,293.2V0H0v293.2H293.2L293.2,293.2z"/>
	<polygon class="st1" points="266.1,287.3 266.1,284.7 258.6,280.4 246.4,287.3 	"/>
	<polyline class="st1" points="5.9,167.6 33.6,183.6 27.1,187.3 27.1,195.9 34.5,200.2 48.6,192.2 79.9,210.3 65.6,218.5 65.6,227 
		73,231.3 94.8,218.9 110.7,228.1 110.7,252.4 94.8,261.6 73.1,249.3 65.6,253.6 65.6,262.2 79.9,270.2 50.4,287.3 80,287.3 
		87.3,283 87.3,287.3 102.1,287.3 102.3,274.4 118.2,265.2 139.2,277.4 139.2,287.3 154,287.3 154,277.4 175,265.3 191,274.5 
		191.1,287.3 205.9,287.3 205.9,283.1 213.2,287.3 242.8,287.3 213.3,270.2 227.6,262.1 227.6,253.5 220.2,249.2 198.3,261.6 
		182.4,252.4 182.4,228.1 198.4,218.9 220.1,231.2 227.5,226.9 227.5,218.4 213.3,210.3 244.7,192.2 258.6,200 266,195.8 266,187.2 
		259.6,183.6 288.2,167 288.2,149.9 252.1,170.8 252.2,163.2 244.8,159 237.3,163.2 237.2,179.4 205.8,197.5 206,181 198.6,176.7 
		191.1,181 190.9,206.1 175,215.3 154,203.1 154,184.7 175.5,172 175.5,163.5 168.1,159.2 154,167.5 154,131.3 167.8,123.1 
		167.8,114.6 160.4,110.3 154,114 154,70.3 146.6,66 139.2,70.3 139.2,114.1 132.7,110.3 125.3,114.6 125.3,123.1 139.2,131.3 
		139.2,167.5 125,159.2 117.5,163.5 117.5,172 139.2,184.8 139.2,203.1 118.2,215.3 102.2,206.1 102,181.1 94.6,176.8 87.1,181.1 
		87.3,197.4 55.9,179.3 55.8,163.4 48.4,159.1 40.9,163.4 41,170.7 5.9,150.4 	"/>
	<polygon class="st1" points="46.6,287.3 34.6,280.5 27.2,284.8 27.2,287.3 	"/>
</g>
</svg>
