<svg id="f8cebdb8-7769-4130-8fdb-b2c8193470a2" data-name="Layer 1" xmlns="http://www.w3.org/2000/svg" viewBox="0 0 18.42 21.57"><defs><style>.fa97578f-f913-4c27-9b4b-409eea5ac353{fill:#fff;}</style></defs><path class="fa97578f-f913-4c27-9b4b-409eea5ac353" d="M7,17a24.11,24.11,0,0,0-7-5.43L4.71,8.57l2.1,4.33C9.18,7.68,13,3.76,17.29,0a13.36,13.36,0,0,0,1.13,6.13A30,30,0,0,0,7,17Z"/><path class="fa97578f-f913-4c27-9b4b-409eea5ac353" d="M3.64,19.45,5,21.39a1.1,1.1,0,0,1-1.51-.57,4.33,4.33,0,0,0-.82-1.09c-.16-.15-.47-.14-.81-.23v1.94H1v-4.5c.82,0,1.62,0,2.42,0a1.17,1.17,0,0,1,1.25,1,1.25,1.25,0,0,1-.86,1.43Zm-1.79-.63a6.69,6.69,0,0,0,1.36,0,.73.73,0,0,0,.45-.57c0-.18-.31-.46-.52-.51a6.89,6.89,0,0,0-1.29,0Z"/><path class="fa97578f-f913-4c27-9b4b-409eea5ac353" d="M12.19,19.5H10.37v1.95H9.48V17h.85v1.72h1.79L12.21,17H13v4.5h-.85Z"/><path class="fa97578f-f913-4c27-9b4b-409eea5ac353" d="M17.49,18.15c-.59.1-.95.19-1.22-.31A1,1,0,0,0,15,17.75c-.3.28-.19.52.13.66s.75.23,1.12.35c.91.27,1.31.76,1.24,1.5s-.62,1.21-1.55,1.29a1.74,1.74,0,0,1-2.14-1.5l.78-.12c.47.79.93,1.05,1.51.79a.86.86,0,0,0,.44-.55c0-.15-.23-.4-.41-.49-.34-.15-.71-.19-1.07-.31-.76-.25-1.13-.73-1.08-1.36a1.26,1.26,0,0,1,1.36-1.14,2.91,2.91,0,0,1,1.43.28C17.08,17.3,17.23,17.75,17.49,18.15Z"/><path class="fa97578f-f913-4c27-9b4b-409eea5ac353" d="M8.71,19.84A1.65,1.65,0,0,1,7,21.56a1.73,1.73,0,0,1,0-3.45A1.64,1.64,0,0,1,8.71,19.84Zm-.89,0c0-.63-.32-1.06-.82-1.05s-.79.41-.8,1,.33,1.05.83,1.05S7.81,20.47,7.82,19.86Z"/></svg>