<?xml version="1.0" encoding="utf-8"?>
<!-- Generator: Adobe Illustrator 21.0.0, SVG Export Plug-In . SVG Version: 6.00 Build 0)  -->
<svg version="1.1" id="Layer_1" xmlns="http://www.w3.org/2000/svg" xmlns:xlink="http://www.w3.org/1999/xlink" x="0px" y="0px"
	 viewBox="0 0 100 100" style="enable-background:new 0 0 100 100;" xml:space="preserve">
<style type="text/css">
	.st0{fill:#717375;}
</style>
<path class="st0" d="M88.5,75.4c0-0.1,0-0.2,0-0.3c0-0.1,0-0.2,0-0.3c0-0.1,0-0.2-0.1-0.2c0-0.1-0.1-0.2-0.1-0.3c0,0,0-0.1,0-0.1
	L75.6,50.3c-0.5-0.9-1.4-1.5-2.4-1.5h-9.8l7.9-11.5H59.9V2.2H40.1v35.2H28.7l7.9,11.5h-9.8c-1,0-2,0.6-2.4,1.5L11.8,74.2
	c0,0,0,0.1,0,0.1c-0.1,0.1-0.1,0.3-0.2,0.4c0,0.1,0,0.1,0,0.2c0,0.2-0.1,0.4-0.1,0.6v19.6c0,1.5,1.2,2.8,2.8,2.8h71.5
	c1.5,0,2.8-1.2,2.8-2.8V75.5C88.5,75.5,88.5,75.4,88.5,75.4z M24.1,72.7h-5.3l5.3-10.1V72.7z M75.9,72.7V62.7l5.3,10.1H75.9z
	 M50,68.1l9.5-13.8h10.9v18.4H29.6V54.3h10.9L50,68.1z M83,92.3H17V78.2h66V92.3z"/>
<g>
	<path class="st0" d="M120.2-137.4l-3.9-3.9c-0.3-0.3-0.7-0.5-1.1-0.5c-0.4,0-0.8,0.2-1.1,0.5c-1,1-2.8,1-3.9,0
		c-1.1-1.1-1.1-2.8,0-3.9c0.3-0.3,0.5-0.7,0.5-1.1s-0.2-0.8-0.5-1.1l-2.6-2.6c-0.6-0.6-1.7-0.6-2.3,0c-1,1-2.8,1-3.9,0
		c-0.5-0.5-0.8-1.2-0.8-1.9c0-0.7,0.3-1.4,0.8-1.9c0.3-0.3,0.5-0.7,0.5-1.1s-0.2-0.8-0.5-1.1l-2.6-2.6c-0.3-0.3-0.7-0.5-1.1-0.5
		c-0.4,0-0.8,0.2-1.1,0.5c-1,1-2.8,1-3.9,0c-0.5-0.5-0.8-1.2-0.8-1.9c0-0.7,0.3-1.4,0.8-1.9c0.3-0.3,0.5-0.7,0.5-1.1
		c0-0.4-0.2-0.8-0.5-1.1l-3.9-3.9c-0.6-0.6-1.7-0.6-2.3,0l-60.4,60.4c-0.3,0.3-0.5,0.7-0.5,1.1c0,0.4,0.2,0.8,0.5,1.1l3.9,3.9
		c0.6,0.6,1.7,0.6,2.3,0c1-1,2.8-1,3.9,0c0.5,0.5,0.8,1.2,0.8,1.9s-0.3,1.4-0.8,1.9c-0.6,0.6-0.6,1.7,0,2.3l2.6,2.6
		c0.6,0.6,1.7,0.6,2.3,0c1-1,2.8-1,3.9,0c0.5,0.5,0.8,1.2,0.8,1.9c0,0.7-0.3,1.4-0.8,1.9c-0.6,0.6-0.6,1.7,0,2.3l2.6,2.6
		c0.6,0.6,1.7,0.6,2.3,0c1-1,2.8-1,3.9,0c1.1,1.1,1.1,2.8,0,3.9c-0.6,0.6-0.6,1.7,0,2.3l3.9,3.9c0.3,0.3,0.7,0.5,1.1,0.5
		s0.8-0.2,1.1-0.5l60.4-60.4C120.8-135.8,120.8-136.8,120.2-137.4z M58.6-78.2l-1.8-1.8c1.3-2.3,0.9-5.2-1-7.1
		c-1.1-1.1-2.6-1.7-4.2-1.7c-1,0-2,0.3-2.9,0.8l-0.6-0.6c0.5-0.9,0.8-1.9,0.8-2.9c0-1.6-0.6-3.1-1.7-4.2c-1.1-1.1-2.6-1.7-4.2-1.7
		c-1,0-2,0.3-2.9,0.8l-0.6-0.6c0.5-0.9,0.8-1.9,0.8-2.9c0-1.6-0.6-3.1-1.7-4.2c-1.1-1.1-2.6-1.7-4.2-1.7c-1,0-2,0.3-2.9,0.8
		l-1.8-1.8l58.1-58.1l1.8,1.8c-0.5,0.9-0.8,1.9-0.8,2.9c0,1.6,0.6,3.1,1.7,4.2c1.1,1.1,2.6,1.7,4.2,1.7c1,0,2-0.3,2.9-0.8l0.6,0.6
		c-0.5,0.9-0.8,1.9-0.8,2.9c0,1.6,0.6,3.1,1.7,4.2c1.1,1.1,2.6,1.7,4.2,1.7c1,0,2-0.3,2.9-0.8l0.6,0.6c-1.3,2.3-0.9,5.2,1,7.1
		c1.1,1.1,2.6,1.7,4.2,1.7c1,0,2-0.3,2.9-0.8l1.8,1.8L58.6-78.2z M59.8-120.4c-3.2,0-6.2,1.3-8.5,3.5c-2.3,2.3-3.5,5.3-3.5,8.5
		c0,3.2,1.3,6.2,3.5,8.5c2.3,2.3,5.3,3.5,8.5,3.5c3.2,0,6.2-1.3,8.5-3.5s3.5-5.3,3.5-8.5c0-3.2-1.3-6.2-3.5-8.5
		C66-119.2,63-120.4,59.8-120.4z M66-102.2c-1.7,1.7-3.9,2.6-6.2,2.6s-4.6-0.9-6.2-2.6c-1.7-1.7-2.6-3.9-2.6-6.2
		c0-2.3,0.9-4.6,2.6-6.2c1.7-1.7,3.9-2.6,6.2-2.6s4.6,0.9,6.2,2.6c1.7,1.7,2.6,3.9,2.6,6.2C68.6-106.1,67.6-103.8,66-102.2z
		 M66-131.7c0.4,0,0.8-0.2,1.1-0.5l17.7-17.7c0.6-0.6,0.6-1.7,0-2.3c-0.6-0.6-1.7-0.6-2.3,0l-17.7,17.7c-0.6,0.6-0.6,1.7,0,2.3
		C65.1-131.9,65.5-131.7,66-131.7z M91.1-146c-0.6-0.6-1.7-0.6-2.3,0l-17.7,17.7c-0.6,0.6-0.6,1.7,0,2.3c0.3,0.3,0.7,0.5,1.1,0.5
		c0.4,0,0.8-0.2,1.1-0.5l17.7-17.7C91.7-144.3,91.7-145.4,91.1-146z M97.3-139.7c-0.6-0.6-1.7-0.6-2.3,0L77.3-122
		c-0.6,0.6-0.6,1.7,0,2.3c0.3,0.3,0.7,0.5,1.1,0.5c0.4,0,0.8-0.2,1.1-0.5l17.7-17.7C98-138.1,98-139.1,97.3-139.7z M101.3-133.5
		l-17.7,17.7c-0.6,0.6-0.6,1.7,0,2.3c0.3,0.3,0.7,0.5,1.1,0.5c0.4,0,0.8-0.2,1.1-0.5l17.7-17.7c0.6-0.6,0.6-1.7,0-2.3
		C103-134.1,101.9-134.1,101.3-133.5z"/>
</g>
</svg>
