<?xml version="1.0" encoding="utf-8"?>
<!-- Generator: Adobe Illustrator 21.0.0, SVG Export Plug-In . SVG Version: 6.00 Build 0)  -->
<svg version="1.1" id="Layer_1" xmlns="http://www.w3.org/2000/svg" xmlns:xlink="http://www.w3.org/1999/xlink" x="0px" y="0px"
	 viewBox="0 0 100 100" style="enable-background:new 0 0 100 100;" xml:space="preserve">
<style type="text/css">
	.st0{fill:#717375;}
</style>
<path class="st0" d="M-192.7,75.9c0-0.1,0-0.2,0-0.3c0-0.1,0-0.2-0.1-0.3c0-0.1-0.1-0.2-0.1-0.3c0-0.1-0.1-0.2-0.1-0.3
	c0,0,0-0.1,0-0.1l-14.7-27.9c-0.6-1.1-1.7-1.7-2.8-1.7h-11.5l9.3-13.4h-13.3v-41h-23.1v41h-13.3l9.3,13.4h-11.5
	c-1.2,0-2.3,0.7-2.8,1.7l-14.7,27.9c0,0,0,0.1,0,0.1c-0.1,0.2-0.1,0.3-0.2,0.5c0,0.1,0,0.1-0.1,0.2c-0.1,0.2-0.1,0.5-0.1,0.7v22.9
	c0,1.8,1.4,3.2,3.2,3.2h83.5c1.8,0,3.2-1.4,3.2-3.2V76C-192.7,76-192.7,75.9-192.7,75.9z M-267.8,72.8h-6.2l6.2-11.7V72.8z
	 M-207.4,72.8V61.1l6.2,11.7H-207.4z M-237.6,67.4l11.1-16.1h12.7v21.5h-47.6V51.3h12.7L-237.6,67.4z M-199.1,95.7h-77.1V79.2h77.1
	V95.7z"/>
<path class="st0" d="M376.9,67.8l14.3-15.2l-14.3-15.2l2.7-20.7L359,12.9L349-5.4l-18.8,8.9l-18.9-8.9l-10,18.3l-20.5,3.9l2.7,20.7
	l-14.3,15.2l14.3,15.2l-2.7,20.7l20.5,3.8l10,18.3l18.8-8.9l18.9,8.9l10-18.3l20.5-3.9l-0.3-2.1L376.9,67.8z M330.2,92.6
	c-22.1,0-40-17.9-40-40s17.9-40,40-40c22.1,0,40,17.9,40,40S352.3,92.6,330.2,92.6z"/>
<g>
	<path class="st0" d="M860,76.1c-1-3.7-1.6-7.7-1.6-11.9c0-24.4,19.3-44.4,43.6-45.3c-6.4-13.6-20.1-23.1-36.3-23.1
		c-22.1,0-40.1,17.9-40.1,40c0,10.4,4,20,10.6,27.3L821.9,76L860,76.1z"/>
	<path class="st0" d="M908.2,109.4c-23.1,0-42-18.9-42.1-42c0-11.3,4.3-21.8,12.3-29.8c8-8,18.4-12.4,29.7-12.4
		c23.3,0,42.1,18.9,42.1,42c0,9.6-3.1,18.7-9,26.1l18,16L908.2,109.4z M908.2,31.7c-9.6,0-18.6,3.7-25.3,10.4
		c-6.7,6.7-10.4,15.7-10.4,25.1c0,19.6,16,35.6,35.6,35.6h0.1h34.1l-10-9l2.3-2.4c6.1-6.6,9.4-15.1,9.4-24.1
		C943.7,47.7,927.9,31.7,908.2,31.7z"/>
	<path class="st0" d="M908.9,52.3c-5.3,0-9.7,4.3-9.7,9.7h5.6c0-2.3,1.9-4.1,4.1-4.1s4.1,1.9,4.1,4.1c0,2.3-1.9,4.1-4.1,4.1h-2.7V74
		h5.6v-2.7c4-1.1,6.9-4.9,6.9-9.3C918.6,56.7,914.3,52.3,908.9,52.3z"/>
</g>
<g>
	<path class="st0" d="M29.5,65.8c-0.7-2.5-1.1-5.2-1.1-8c0-16.4,13-29.9,29.3-30.5c-4.3-9.1-13.6-15.6-24.4-15.6
		c-14.9,0-27,12-27,26.9c0,7,2.7,13.5,7.1,18.4l-9.6,8.7L29.5,65.8z"/>
	<path class="st0" d="M61.9,88.2c-15.6,0-28.3-12.7-28.4-28.3c0-7.6,2.9-14.7,8.3-20.1c5.4-5.4,12.4-8.4,20-8.4
		c15.7,0,28.4,12.7,28.4,28.3c0,6.4-2.1,12.6-6.1,17.6l12.1,10.8L61.9,88.2z M61.9,35.9c-6.4,0-12.5,2.5-17,7s-7,10.6-7,16.9
		c0,13.2,10.8,23.9,23.9,23.9h0.1h23l-6.7-6.1l1.5-1.6c4.1-4.4,6.3-10.2,6.3-16.3C85.8,46.7,75.1,35.9,61.9,35.9z"/>
	<path class="st0" d="M62.4,49.8c-3.6,0-6.5,2.9-6.5,6.5h3.8c0-1.5,1.3-2.8,2.8-2.8c1.5,0,2.8,1.3,2.8,2.8s-1.3,2.8-2.8,2.8h-1.8
		v5.3h3.8v-1.8c2.7-0.8,4.6-3.3,4.6-6.3C68.9,52.7,66,49.8,62.4,49.8z"/>
	<rect x="60.5" y="66.7" class="st0" width="3.7" height="3.2"/>
</g>
</svg>
