<?xml version="1.0" encoding="utf-8"?>
<!-- Generator: Adobe Illustrator 21.0.0, SVG Export Plug-In . SVG Version: 6.00 Build 0)  -->
<svg version="1.1" id="Layer_1" xmlns="http://www.w3.org/2000/svg" xmlns:xlink="http://www.w3.org/1999/xlink" x="0px" y="0px"
	 viewBox="0 0 100 100" style="enable-background:new 0 0 100 100;" xml:space="preserve">
<style type="text/css">
	.st0{fill:#717375;}
</style>
<path class="st0" d="M-192.7,75.9c0-0.1,0-0.2,0-0.3c0-0.1,0-0.2-0.1-0.3c0-0.1-0.1-0.2-0.1-0.3c0-0.1-0.1-0.2-0.1-0.3
	c0,0,0-0.1,0-0.1l-14.7-27.9c-0.6-1.1-1.7-1.7-2.8-1.7h-11.5l9.3-13.4h-13.3v-41h-23.1v41h-13.3l9.3,13.4h-11.5
	c-1.2,0-2.3,0.7-2.8,1.7l-14.7,27.9c0,0,0,0.1,0,0.1c-0.1,0.2-0.1,0.3-0.2,0.5c0,0.1,0,0.1-0.1,0.2c-0.1,0.2-0.1,0.5-0.1,0.7v22.9
	c0,1.8,1.4,3.2,3.2,3.2h83.5c1.8,0,3.2-1.4,3.2-3.2V76C-192.7,76-192.7,75.9-192.7,75.9z M-267.8,72.8h-6.2l6.2-11.7V72.8z
	 M-207.4,72.8V61.1l6.2,11.7H-207.4z M-237.6,67.4l11.1-16.1h12.7v21.5h-47.6V51.3h12.7L-237.6,67.4z M-199.1,95.7h-77.1V79.2h77.1
	V95.7z"/>
<path class="st0" d="M376.9,67.8l14.3-15.2l-14.3-15.2l2.7-20.7L359,12.9L349-5.4l-18.8,8.9l-18.9-8.9l-10,18.3l-20.5,3.9l2.7,20.7
	l-14.3,15.2l14.3,15.2l-2.7,20.7l20.5,3.8l10,18.3l18.8-8.9l18.9,8.9l10-18.3l20.5-3.9l-0.3-2.1L376.9,67.8z M330.2,92.6
	c-22.1,0-40-17.9-40-40s17.9-40,40-40c22.1,0,40,17.9,40,40S352.3,92.6,330.2,92.6z"/>
<g>
	<path class="st0" d="M860,76.1c-1-3.7-1.6-7.7-1.6-11.9c0-24.4,19.3-44.4,43.6-45.3c-6.4-13.6-20.1-23.1-36.3-23.1
		c-22.1,0-40.1,17.9-40.1,40c0,10.4,4,20,10.6,27.3L821.9,76L860,76.1z"/>
	<path class="st0" d="M908.2,109.4c-23.1,0-42-18.9-42.1-42c0-11.3,4.3-21.8,12.3-29.8c8-8,18.4-12.4,29.7-12.4
		c23.3,0,42.1,18.9,42.1,42c0,9.6-3.1,18.7-9,26.1l18,16L908.2,109.4z M908.2,31.7c-9.6,0-18.6,3.7-25.3,10.4
		c-6.7,6.7-10.4,15.7-10.4,25.1c0,19.6,16,35.6,35.6,35.6h0.1h34.1l-10-9l2.3-2.4c6.1-6.6,9.4-15.1,9.4-24.1
		C943.7,47.7,927.9,31.7,908.2,31.7z"/>
	<path class="st0" d="M908.9,52.3c-5.3,0-9.7,4.3-9.7,9.7h5.6c0-2.3,1.9-4.1,4.1-4.1s4.1,1.9,4.1,4.1c0,2.3-1.9,4.1-4.1,4.1h-2.7V74
		h5.6v-2.7c4-1.1,6.9-4.9,6.9-9.3C918.6,56.7,914.3,52.3,908.9,52.3z"/>
</g>
<g>
	<path class="st0" d="M86.4,61.8L97.6,50L86.4,38.1L88.5,22l-16-3L64.7,4.8l-14.7,7L35.3,4.8L27.5,19l-16,3l2.1,16.1L2.4,50
		l11.2,11.8L11.5,78l16,3l7.8,14.3l14.7-7l14.7,6.9L72.5,81l16-3l-0.2-1.7L86.4,61.8z M50,81.2c-17.2,0-31.2-14-31.2-31.2
		s14-31.2,31.2-31.2c17.2,0,31.2,14,31.2,31.2S67.2,81.2,50,81.2z"/>
	<path class="st0" d="M50,24.7C36,24.7,24.7,36,24.7,50S36,75.3,50,75.3S75.3,64,75.3,50S64,24.7,50,24.7z M49.5,61.7L37.8,52
		l-2.3-1.9l3.8-4.5l9.3,7.8l13.2-16.3l4.6,3.7L49.5,61.7z"/>
</g>
</svg>
