<?xml version="1.0" encoding="utf-8"?>
<!-- Generator: Adobe Illustrator 16.0.0, SVG Export Plug-In . SVG Version: 6.00 Build 0)  -->
<!DOCTYPE svg PUBLIC "-//W3C//DTD SVG 1.1//EN" "http://www.w3.org/Graphics/SVG/1.1/DTD/svg11.dtd">
<svg version="1.1" id="Layer_1" xmlns="http://www.w3.org/2000/svg" xmlns:xlink="http://www.w3.org/1999/xlink" x="0px" y="0px"
	 width="25.982px" height="25.993px" viewBox="-1116.798 921.099 25.982 25.993"
	 enable-background="new -1116.798 921.099 25.982 25.993" xml:space="preserve">
<g>
	<path fill="#FFFFFF" d="M-1091.396,935.43l-14.626-4.866c-0.383-0.137-0.793-0.027-1.066,0.246
		c-0.273,0.273-0.382,0.684-0.246,1.066l4.866,14.625c0.246,0.739,1.258,0.794,1.586,0.11l2.979-6.206
		c0.082-0.164,0.219-0.328,0.41-0.41l6.206-2.979C-1090.603,936.688-1090.685,935.676-1091.396,935.43z"/>
	<path fill="#FFFFFF" d="M-1113.567,925.615l4.237,3.308c0.082,0.082,0.219,0.082,0.301,0c0.109-0.082,0.137-0.245,0.055-0.355
		l-3.308-4.237c-0.055-0.055-0.109-0.109-0.164-0.164c-0.383-0.301-0.957-0.245-1.257,0.164
		C-1114.004,924.74-1113.949,925.314-1113.567,925.615z"/>
	<path fill="#FFFFFF" d="M-1110.231,931.903c0.027-0.137-0.082-0.273-0.219-0.273l-5.331-0.656c-0.082,0-0.137,0-0.219,0
		c-0.492,0.055-0.848,0.52-0.792,1.012c0.054,0.492,0.519,0.847,1.011,0.792l5.331-0.655
		C-1110.341,932.122-1110.231,932.04-1110.231,931.903z"/>
	<path fill="#FFFFFF" d="M-1109.33,934.828l-4.237,3.309c-0.055,0.054-0.109,0.108-0.164,0.163c-0.3,0.383-0.246,0.957,0.164,1.258
		c0.383,0.301,0.957,0.246,1.257-0.164l3.309-4.237c0.082-0.082,0.082-0.219,0-0.301
		C-1109.056,934.773-1109.22,934.746-1109.33,934.828z"/>
	<path fill="#FFFFFF" d="M-1102.714,928.923l4.238-3.308c0.055-0.055,0.109-0.109,0.164-0.164c0.3-0.383,0.246-0.957-0.164-1.257
		c-0.383-0.302-0.957-0.246-1.257,0.163l-3.308,4.237c-0.082,0.083-0.082,0.219,0,0.301
		C-1102.987,928.978-1102.823,929.005-1102.714,928.923z"/>
	<path fill="#FFFFFF" d="M-1106.268,927.447c0.027,0.109,0.109,0.218,0.219,0.218c0.137,0.027,0.273-0.081,0.273-0.218l0.656-5.331
		c0-0.082,0-0.137,0-0.219c-0.055-0.492-0.52-0.848-1.012-0.793s-0.848,0.52-0.793,1.012L-1106.268,927.447z"/>
</g>
</svg>
