<?xml version="1.0" encoding="utf-8"?>
<!-- Generator: Adobe Illustrator 21.0.0, SVG Export Plug-In . SVG Version: 6.00 Build 0)  -->
<svg version="1.1" id="Layer_1" xmlns="http://www.w3.org/2000/svg" xmlns:xlink="http://www.w3.org/1999/xlink" x="0px" y="0px"
	 viewBox="0 0 88 68" style="enable-background:new 0 0 88 68;" xml:space="preserve">
<style type="text/css">
	.st0{fill:#010101;}
</style>
<path class="st0" d="M0,2v64c0,1,1,2,2,2h84c1,0,2-1,2-2V2c0-1-1-2-2-2H2C0.9,0,0,1.1,0,2z M4,4h80v60H4V4z M11.8,13
	c-1,0.1-1.8,1-1.8,2v38c0,1.1,0.9,2,2,2s2-1,2-2V15C14,13.9,12.9,12.8,11.8,13z M29.8,13c-1,0.1-1.8,1-1.8,2v38c0,1.1,0.9,2,2,2
	s2-1,2-2V15C32,13.9,30.9,12.8,29.8,13z M47.8,13c-1,0.1-1.8,1-1.8,2v38c0,1.1,0.9,2,2,2s2-1,2-2V15C50,13.9,48.9,12.8,47.8,13z
	 M74.8,13c-1,0.1-1.8,1-1.8,2v38c0,1.1,0.9,2,2,2s2-1,2-2V15C77,13.9,75.9,12.8,74.8,13z M20.8,19c-1,0.1-1.8,1-1.8,2v32
	c0,1.1,0.9,2,2,2s2-1,2-2V21C23,19.9,21.9,18.8,20.8,19z M38.8,19c-1,0.1-1.8,1-1.8,2v32c0,1.1,0.9,2,2,2s2-1,2-2V21
	C41,19.9,39.9,18.8,38.8,19z M56.8,19c-1,0.1-1.8,1-1.8,2v32c0,1.1,0.9,2,2,2s2-1,2-2V21C59,19.9,57.9,18.8,56.8,19z M65.8,19
	c-1,0.1-1.8,1-1.8,2v32c0,1.1,0.9,2,2,2s2-1,2-2V21C68,19.9,66.9,18.8,65.8,19z"/>
</svg>
