<?xml version="1.0" encoding="utf-8"?>
<!-- Generator: Adobe Illustrator 21.0.0, SVG Export Plug-In . SVG Version: 6.00 Build 0)  -->
<svg version="1.1" id="Layer_1" xmlns="http://www.w3.org/2000/svg" xmlns:xlink="http://www.w3.org/1999/xlink" x="0px" y="0px"
	 viewBox="0 0 88.2 88.2" style="enable-background:new 0 0 88.2 88.2;" xml:space="preserve">
<style type="text/css">
	.st0{fill:#F3F4F4;}
	.st1{fill:#C7C8CA;}
	.st2{fill:#010101;}
	.st3{fill:none;stroke:#000000;stroke-width:4.261;stroke-miterlimit:10;}
	.st4{fill:none;stroke:#000000;stroke-width:5;stroke-miterlimit:10;}
</style>
<polygon class="st4" points="44.1,40 44.1,40 44.1,40 "/>
<path d="M73.6,39.9h-1.8h-2.7c-1.5-10-8.4-18.4-17.9-21.9v-6c-6.2-1.8-12.8-1.8-19,0V18c-9.2,3.4-16,11.4-17.8,21
	c-2.8,15.1,7.2,29.5,22.2,32.3c15.1,2.8,29.5-7.2,32.3-22.2l4.8-0.1C74.2,45.9,74.6,42.9,73.6,39.9z M41.6,64.6
	c-11.3,0-20.5-9.2-20.5-20.5c0-11.3,9.2-20.5,20.5-20.5v12c-2.3,0-4.4,0.9-6,2.5c-3.3,3.3-3.3,8.7,0,12c3.3,3.3,8.7,3.3,12,0
	c3.3-3.3,3.3-8.7,0-12l8.5-8.5c3.8,3.8,6,9.1,6,14.5C62.1,55.4,53,64.6,41.6,64.6z"/>
<circle class="st4" cx="44.1" cy="44.1" r="41.6"/>
</svg>
