<?xml version="1.0" encoding="utf-8"?>
<!-- Generator: Adobe Illustrator 21.0.0, SVG Export Plug-In . SVG Version: 6.00 Build 0)  -->
<svg version="1.1" id="Layer_1" xmlns="http://www.w3.org/2000/svg" xmlns:xlink="http://www.w3.org/1999/xlink" x="0px" y="0px"
	 viewBox="0 0 84 90" style="enable-background:new 0 0 84 90;" xml:space="preserve">
<style type="text/css">
	.st0{fill:#F3F4F4;}
	.st1{fill:#C7C8CA;}
	.st2{fill:#010101;}
	.st3{fill:none;stroke:#000000;stroke-width:4.261;stroke-miterlimit:10;}
	.st4{fill:none;stroke:#000000;stroke-width:5;stroke-miterlimit:10;}
</style>
<g>
	<path class="st2" d="M41.9,0c-0.3,0-0.5,0.1-0.7,0.1l-40,16C0.5,16.4,0,17.2,0,18v54c0,0.8,0.5,1.5,1.2,1.8l40,16
		c0.5,0.2,1,0.2,1.5,0l40-16c0.7-0.3,1.2-1.1,1.2-1.8V18c0-0.8-0.5-1.6-1.2-1.9l-40-16C42.5,0,42.2,0,41.9,0L41.9,0z M42,4.2
		L76.6,18L62,23.8L27.4,10L42,4.2z M22,12.2L56.6,26L42,31.8L7.4,18L22,12.2z M4,20.9l36,14.4V85L4,70.6V20.9L4,20.9z M80,20.9v49.7
		L44,85V35.3l16-6.4V42c0,1.1,0.9,2,2,2s2-0.9,2-2c0,0,0,0,0-0.1V27.3L80,20.9L80,20.9z"/>
</g>
</svg>
