<?xml version="1.0" encoding="utf-8"?>
<!-- Generator: Adobe Illustrator 21.0.0, SVG Export Plug-In . SVG Version: 6.00 Build 0)  -->
<svg version="1.1" id="Layer_1" xmlns="http://www.w3.org/2000/svg" xmlns:xlink="http://www.w3.org/1999/xlink" x="0px" y="0px"
	 viewBox="0 0 73.4 73.4" style="enable-background:new 0 0 73.4 73.4;" xml:space="preserve">
<style type="text/css">
	.st0{fill:#F3F4F4;}
	.st1{fill:#C7C8CA;}
	.st2{fill:#010101;}
	.st3{fill:none;stroke:#000000;stroke-width:4.261;stroke-miterlimit:10;}
	.st4{fill:none;stroke:#000000;stroke-width:5;stroke-miterlimit:10;}
</style>
<g>
	<path class="st2" d="M36.7,0C16.4,0,0,16.4,0,36.7s16.4,36.7,36.7,36.7S73.4,57,73.4,36.7S57,0,36.7,0z M36.7,69.1
		c-17.9,0-32.3-14.5-32.3-32.3S18.8,4.4,36.7,4.4s32.3,14.5,32.3,32.3S54.6,69.1,36.7,69.1z"/>
	<path class="st2" d="M57.3,37.4c0-2.9-2.3-5.2-5.2-5.2H19.9c-2.9,0-5.2,2.3-5.2,5.2v0.1c0,2.9,2.3,5.2,5.2,5.2h32.2
		C55,42.7,57.3,40.4,57.3,37.4L57.3,37.4z"/>
	<path class="st2" d="M41.6,21c0-2.9-2.3-5.2-5.2-5.2h-0.1c-2.9,0-5.2,2.3-5.2,5.2v32.2c0,2.9,2.3,5.2,5.2,5.2h0.1
		c2.9,0,5.2-2.3,5.2-5.2V21z"/>
</g>
</svg>
