<?xml version="1.0" encoding="utf-8"?>
<!-- Generator: Adobe Illustrator 21.0.0, SVG Export Plug-In . SVG Version: 6.00 Build 0)  -->
<svg version="1.1" id="Layer_1" xmlns="http://www.w3.org/2000/svg" xmlns:xlink="http://www.w3.org/1999/xlink" x="0px" y="0px"
	 viewBox="0 0 59.4 75.2" style="enable-background:new 0 0 59.4 75.2;" xml:space="preserve">
<style type="text/css">
	.st0{fill:#F3F4F4;}
	.st1{fill:#C7C8CA;}
	.st2{fill:#010101;}
	.st3{fill:none;stroke:#000000;stroke-width:4.261;stroke-miterlimit:10;}
	.st4{fill:none;stroke:#000000;stroke-width:5;stroke-miterlimit:10;}
</style>
<g>
	<path class="st2" d="M46.9,3.3c-1-1.1-2-2.3-3-3.3l-3.3,3c1.1,1.1,2.1,2.2,3,3.3c7.1,8.5,11.4,19.3,11.4,31.2
		c0,11.9-4.3,22.8-11.5,31.3l-5-4.6c6-7.3,9.7-16.6,9.7-26.7c0-10.1-3.6-19.4-9.6-26.6c-1-1.2-2-2.3-3.1-3.3l-3.3,3l-5,4.6l-3.3,3
		c1.1,1,2.1,2.1,3,3.3c3.4,4.4,5.5,10,5.5,16c0,6-2.1,11.6-5.5,16.1l-5-4.6c2.4-3.2,3.7-7.2,3.7-11.5c0-4.3-1.4-8.2-3.7-11.4
		c-0.9-1.2-1.9-2.3-3-3.3l-3.4,3.1c1.2,0.9,2.2,2.1,3.1,3.3c1.6,2.4,2.6,5.3,2.6,8.3c0,3.1-1,6-2.6,8.4c-0.8,1.3-1.9,2.4-3.1,3.3
		l3.4,3.1l5,4.6l3.3,3.1c1.1-1,2.1-2.1,3.1-3.3c4.2-5.3,6.7-11.9,6.7-19.1c0-7.2-2.5-13.8-6.6-19l5-4.6c5.2,6.4,8.4,14.7,8.4,23.6
		c0,9-3.2,17.2-8.5,23.7c-1,1.2-2,2.3-3.1,3.3l3.3,3.1l5,4.6l3.3,3.1c1.1-1.1,2.1-2.2,3.1-3.3c7.9-9.3,12.6-21.3,12.6-34.4
		C59.4,24.5,54.7,12.6,46.9,3.3z"/>
	<circle class="st2" cx="6" cy="37.6" r="6"/>
</g>
</svg>
