<?xml version="1.0" encoding="utf-8"?>
<!-- Generator: Adobe Illustrator 21.0.0, SVG Export Plug-In . SVG Version: 6.00 Build 0)  -->
<svg version="1.1" id="Layer_1" xmlns="http://www.w3.org/2000/svg" xmlns:xlink="http://www.w3.org/1999/xlink" x="0px" y="0px"
	 viewBox="0 0 44 100" style="enable-background:new 0 0 44 100;" xml:space="preserve">
<style type="text/css">
	.st0{fill:#F3F4F4;}
	.st1{fill:#C7C8CA;}
	.st2{fill:#010101;}
	.st3{fill:none;stroke:#000000;stroke-width:4.261;stroke-miterlimit:10;}
	.st4{fill:none;stroke:#000000;stroke-width:5;stroke-miterlimit:10;}
</style>
<g>
	<path class="st2" d="M22,0l-6.3,11.1h4.5v56.8L8.6,56.8c-0.7-0.9-1.3-2.2-1.3-3.4c0-5.1,0-8.2,0-9.3c2.1-0.8,3.7-2.8,3.7-5.2
		c0-3.1-2.5-5.6-5.5-5.6c-3,0-5.5,2.5-5.5,5.6c0,2.4,1.5,4.5,3.7,5.2l0,9.2c0,2.5,1.3,5.1,2.9,6.8c0,0-0.1-0.1,0,0
		c0,0,12.3,11.7,12.3,11.7c0.7,0.9,1.3,2.2,1.3,3.4v6.4c-4.2,0.9-7.4,4.6-7.4,9.1c0,5.1,4.1,9.3,9.2,9.3s9.2-4.2,9.2-9.3
		c0-4.5-3.2-8.2-7.4-9.1v-6.3c0,0,0,0,0,0v-14c0-1.3,0.6-2.5,1.3-3.4c0,0,12.2-11.7,12.3-11.7c0.1-0.1,0,0,0,0
		c1.6-1.7,2.9-4.3,2.9-6.8l0-8.8H44V19.4H33v11.1h3.7c0,0,0,2.3,0,9c0,1.3-0.5,2.5-1.3,3.4L23.8,54V11.1h4.5L22,0z"/>
</g>
</svg>
