<?xml version="1.0" encoding="utf-8"?>
<!-- Generator: Adobe Illustrator 21.0.0, SVG Export Plug-In . SVG Version: 6.00 Build 0)  -->
<svg version="1.1" id="Layer_1" xmlns="http://www.w3.org/2000/svg" xmlns:xlink="http://www.w3.org/1999/xlink" x="0px" y="0px"
	 viewBox="0 0 108 108" style="enable-background:new 0 0 108 108;" xml:space="preserve">
<style type="text/css">
	.st0{fill:#010101;}
	.st1{fill:none;}
</style>
<g>
	<circle class="st0" cx="23.1" cy="70.9" r="2.5"/>
	<path class="st0" d="M53.6,63.3c-4.6,0-8.3-3.7-8.3-8.3s3.7-8.3,8.3-8.3s8.3,3.7,8.3,8.3S58.2,63.3,53.6,63.3z M53.6,51.6
		c-1.9,0-3.4,1.5-3.4,3.4s1.5,3.4,3.4,3.4c1.9,0,3.4-1.5,3.4-3.4C57,53.1,55.5,51.6,53.6,51.6z"/>
	<path class="st0" d="M53.5,75.8c-4.3,0-8.6-1.4-11.9-4.2c-2-1.7-3.7-3.6-4.9-5.7c-1.2-2.1-2.1-4.6-2.4-7.1
		c-0.3-2.3-0.1-4.9,0.5-7.5c0.4-1.7,1.1-3.2,1.8-4.7c0.3-0.6,0.6-1.2,0.8-1.8c0.5-1.2,2-1.8,3.2-1.3c1.2,0.5,1.8,2,1.3,3.2
		c-0.3,0.7-0.6,1.3-0.9,1.9c-0.6,1.3-1.2,2.5-1.5,3.7c-0.5,2-0.6,4-0.4,5.7c0.2,1.8,0.8,3.7,1.7,5.2c0.9,1.5,2.2,3.1,3.8,4.4
		c4.9,4.1,12.5,4.1,17.8,0c2.8-2.2,4.6-5,5.3-8.3c0.9-4.3,0-8.4-2.8-12.3c-0.8-1.1-0.5-2.6,0.6-3.4c1.1-0.8,2.6-0.5,3.4,0.6
		c3.6,5.1,4.8,10.5,3.6,16.2c-1,4.5-3.4,8.2-7,11.1C62,74.5,57.7,75.8,53.5,75.8z"/>
	<path class="st0" d="M83.2,72.9c-0.9,0-1.8-0.5-2.2-1.4c-0.6-1.2-0.1-2.7,1.1-3.3c5.8-2.8,11.8-6.5,18.3-11.3
		c0.6-0.4,0.7-0.7,0.7-0.7l0,0c0,0-0.1-0.3-0.6-0.8c-1-1-2.1-2.1-3.4-3.1c-14.7-11.7-31.7-16.7-50.5-15C33,38.6,20.7,43.5,10.1,52
		c-1.1,0.9-2,1.7-2.8,2.6c-0.3,0.4-0.4,0.7-0.4,0.8c0,0.2,0.2,0.4,0.4,0.6c3.2,2.4,6.6,4.8,10,7.3c1.1,0.8,1.3,2.3,0.6,3.4
		c-0.8,1.1-2.3,1.3-3.4,0.6c-3.5-2.5-6.9-5-10.1-7.4c-1.4-1-2.2-2.5-2.4-4c-0.2-1.6,0.4-3.2,1.7-4.6c1-1,2-2.1,3.4-3.1
		c11.3-9.1,24.5-14.3,39.2-15.7c20.1-1.8,38.2,3.6,54,16c1.4,1.1,2.8,2.3,3.9,3.5c1.4,1.5,2,3,1.9,4.6c-0.1,1.6-1,3-2.6,4.2
		c-6.7,5-13,8.8-19.1,11.8C84,72.8,83.6,72.9,83.2,72.9z"/>
</g>
</svg>
