<?xml version="1.0" encoding="utf-8"?>
<!-- Generator: Adobe Illustrator 21.0.0, SVG Export Plug-In . SVG Version: 6.00 Build 0)  -->
<svg version="1.1" id="Layer_1" xmlns="http://www.w3.org/2000/svg" xmlns:xlink="http://www.w3.org/1999/xlink" x="0px" y="0px"
	 viewBox="0 0 88 68.5" style="enable-background:new 0 0 88 68.5;" xml:space="preserve">
<style type="text/css">
	.st0{fill:#010101;}
</style>
<g>
	<g>
		<path class="st0" d="M79.2,56c0.1-0.1,0.3-0.2,0.4-0.3"/>
	</g>
	<g>
		<path class="st0" d="M46.1,51.6L35.4,40.9l5.5-5.5l10.7,10.7c2.9,2.9,6.9,4.7,11,4.9l7,7C61.2,60.2,52.3,57.8,46.1,51.6z"/>
	</g>
	<g>
		<path class="st0" d="M16.1,46.9l21.2-21.2l5.5,5.5L24.6,49.4C21.6,49.4,18.7,48.5,16.1,46.9z"/>
	</g>
	<g>
		<path class="st0" d="M71.8,21.7L50.6,42.9l-5.5-5.5l18.2-18.2C66.3,19.1,69.3,20,71.8,21.7z"/>
	</g>
	<g>
		<path class="st0" d="M41.9,51.6l1-1l-5.5-5.5l-1,1c-0.3,0.3-0.7,0.6-1,0.9c-7,6-17.6,5.1-23.5-2c-6-7-5.1-17.6,2-23.6L8.2,16
			c-10.1,9-11,24.5-2,34.6c9,10.1,24.5,11,34.6,2C41.2,52.3,41.6,51.9,41.9,51.6z"/>
	</g>
	<g>
		<path class="st0" d="M41.9,16.9l10.7,10.7l-5.5,5.5L36.4,22.4c-2.9-2.9-6.9-4.7-11-4.9l-7-7C26.7,8.3,35.7,10.7,41.9,16.9z"/>
	</g>
	<g>
		<path class="st0" d="M46.1,16.9l-1,1l5.5,5.5l1-1c0.3-0.3,0.7-0.6,1-0.9c7-6,17.6-5.1,23.5,2c6,7,5.1,17.6-2,23.6l5.5,5.5
			c10.1-9,11-24.5,2-34.6c-9-10.1-24.5-11-34.6-2C46.7,16.3,46.4,16.6,46.1,16.9z"/>
	</g>
	<g>
		<path class="st0" d="M1.1,6.7l26.5,26.5l5.5-5.5L6.7,1.1c-1.5-1.5-4-1.5-5.5,0C-0.4,2.7-0.4,5.2,1.1,6.7z"/>
	</g>
	<g>
		<path class="st0" d="M79.7,13.8l7.1-7.1c1.5-1.5,1.5-4,0-5.5c-1.5-1.5-4-1.5-5.5,0l-8.7,8.7C75.2,10.8,77.5,12.1,79.7,13.8z"/>
	</g>
	<g>
		<path class="st0" d="M8.3,54.7l-7.1,7.1c-1.5,1.5-1.5,4,0,5.5c1.5,1.5,4,1.5,5.5,0l8.7-8.7C12.8,57.7,10.4,56.4,8.3,54.7z"/>
	</g>
	<g>
		<path class="st0" d="M86.8,61.8L60.3,35.4l-5.5,5.5l26.5,26.5c1.5,1.5,4,1.5,5.5,0C88.3,65.8,88.3,63.4,86.8,61.8z"/>
	</g>
</g>
</svg>
