<?xml version="1.0" encoding="utf-8"?>
<!-- Generator: Adobe Illustrator 21.0.0, SVG Export Plug-In . SVG Version: 6.00 Build 0)  -->
<svg version="1.1" id="Layer_1" xmlns="http://www.w3.org/2000/svg" xmlns:xlink="http://www.w3.org/1999/xlink" x="0px" y="0px"
	 viewBox="0 0 50 91.8" style="enable-background:new 0 0 50 91.8;" xml:space="preserve">
<style type="text/css">
	.st0{fill:#010101;}
</style>
<g>
	<path class="st0" d="M44.5,10.1h-7V5.5C37.5,2.5,35,0,32,0H18c-3,0-5.5,2.5-5.5,5.5v4.6h-7c-3,0-5.5,2.5-5.5,5.5v70.7
		c0,3,2.5,5.5,5.5,5.5h39c3,0,5.5-2.5,5.5-5.5V15.6C50,12.6,47.5,10.1,44.5,10.1z M45,86.2c0,0.3-0.2,0.5-0.5,0.5h-39
		c-0.3,0-0.5-0.2-0.5-0.5V15.6c0-0.3,0.2-0.5,0.5-0.5h39c0.3,0,0.5,0.2,0.5,0.5V86.2z M31.3,26.7l-0.3-0.2l-16.5,19l9.6,3.1
		l-5.4,16.4l0.2,0.2l16.6-19.1L26,43L31.3,26.7z"/>
</g>
</svg>
