<?xml version="1.0" encoding="utf-8"?>
<!-- Generator: Adobe Illustrator 21.0.0, SVG Export Plug-In . SVG Version: 6.00 Build 0)  -->
<svg version="1.1" id="Layer_1" xmlns="http://www.w3.org/2000/svg" xmlns:xlink="http://www.w3.org/1999/xlink" x="0px" y="0px"
	 viewBox="0 0 108 108" style="enable-background:new 0 0 108 108;" xml:space="preserve">
<style type="text/css">
	.st0{fill:#010101;}
	.st1{fill:none;}
</style>
<g>
	<path class="st0" d="M75.4,11.8L11.8,75.4l20.9,20.9l63.6-63.6L75.4,11.8z M17.4,75.4l8.5-8.5l4.5,4.5l2.8-2.8l-4.5-4.5l4.8-4.8
		l4.5,4.5l2.8-2.8l-4.5-4.5l4.8-4.8l4.5,4.5l2.8-2.8L44,48.8l4.8-4.8l4.5,4.5l2.8-2.8l-4.5-4.5l4.8-4.8l4.6,4.5l2.8-2.8l-4.5-4.5
		l4.8-4.8l4.5,4.5l2.8-2.8l-4.6-4.5l8.5-8.5l15.2,15.2l-58,58L17.4,75.4z"/>
</g>
</svg>
