<?xml version="1.0" encoding="utf-8"?>
<!-- Generator: Adobe Illustrator 21.0.0, SVG Export Plug-In . SVG Version: 6.00 Build 0)  -->
<svg version="1.1" id="Layer_1" xmlns="http://www.w3.org/2000/svg" xmlns:xlink="http://www.w3.org/1999/xlink" x="0px" y="0px"
	 viewBox="0 0 84.2 84.2" style="enable-background:new 0 0 84.2 84.2;" xml:space="preserve">
<style type="text/css">
	.st0{fill:#010101;stroke:#010101;stroke-width:0.9132;stroke-miterlimit:10;}
</style>
<g>
	<path class="st0" d="M67.7,83.7H16.5c-8.9,0-16.1-7.2-16.1-16.1V16.5c0-8.9,7.2-16.1,16.1-16.1h51.1c8.9,0,16.1,7.2,16.1,16.1v51.1
		C83.7,76.5,76.5,83.7,67.7,83.7z M16.5,4C9.6,4,4,9.6,4,16.5v51.1c0,6.9,5.6,12.5,12.5,12.5h51.1c6.9,0,12.5-5.6,12.5-12.5V16.5
		C80.1,9.6,74.5,4,67.7,4H16.5z"/>
	<rect x="23.8" y="34.1" class="st0" width="30.3" height="3.2"/>
	<rect x="23.8" y="40.5" class="st0" width="20.7" height="3.2"/>
	<rect x="23.8" y="46.9" class="st0" width="33.5" height="3.2"/>
	<rect x="23.8" y="53.2" class="st0" width="27.1" height="3.2"/>
	<g>
		<rect x="23.8" y="27.7" class="st0" width="5.3" height="3.2"/>
		<rect x="35.4" y="27.7" class="st0" width="25" height="3.2"/>
	</g>
</g>
</svg>
