<?xml version="1.0" encoding="utf-8"?>
<!-- Generator: Adobe Illustrator 21.0.0, SVG Export Plug-In . SVG Version: 6.00 Build 0)  -->
<svg version="1.1" id="Layer_1" xmlns="http://www.w3.org/2000/svg" xmlns:xlink="http://www.w3.org/1999/xlink" x="0px" y="0px"
	 viewBox="0 0 93.2 82" style="enable-background:new 0 0 93.2 82;" xml:space="preserve">
<style type="text/css">
	.st0{fill:#F3F4F4;}
	.st1{fill:#C7C8CA;}
	.st2{fill:#010101;}
	.st3{fill:none;stroke:#000000;stroke-width:4.261;stroke-miterlimit:10;}
	.st4{fill:none;stroke:#000000;stroke-width:5;stroke-miterlimit:10;}
</style>
<g>
	<path class="st2" d="M67.3,28.2L62.1,28c-0.2-0.6-0.5-1.2-0.8-1.8l3.4-3.8c0.6-0.7,0.6-1.8-0.1-2.5L60,15.2
		c-0.7-0.7-1.7-0.7-2.5-0.1l-3.8,3.4c-0.6-0.3-1.2-0.5-1.8-0.8l-0.3-5.1c0-0.9-0.8-1.7-1.8-1.7h-6.7c-0.9,0-1.7,0.7-1.8,1.7
		l-0.3,5.1c-0.6,0.2-1.2,0.5-1.8,0.8l-3.8-3.4c-0.7-0.6-1.8-0.6-2.5,0.1l-4.7,4.7c-0.7,0.7-0.7,1.7-0.1,2.5l3.4,3.8
		c-0.3,0.6-0.5,1.2-0.8,1.8l-5.1,0.3c-0.9,0-1.7,0.8-1.7,1.8v6.7c0,0.9,0.7,1.7,1.7,1.8l5.1,0.3c0.2,0.6,0.5,1.2,0.8,1.8l-3.4,3.8
		c-0.6,0.7-0.6,1.8,0.1,2.5l4.7,4.7c0.7,0.7,1.7,0.7,2.5,0.1l3.8-3.4c0.6,0.3,1.2,0.5,1.8,0.8l0.3,5.1c0,0.9,0.8,1.7,1.8,1.7h6.7
		c0.9,0,1.7-0.7,1.8-1.7l0.3-5.1c0.6-0.2,1.2-0.5,1.8-0.8l3.8,3.4c0.7,0.6,1.8,0.6,2.5-0.1l4.7-4.7c0.7-0.7,0.7-1.7,0.1-2.5
		l-3.4-3.8c0.3-0.6,0.5-1.2,0.8-1.8l5.1-0.3c0.9,0,1.7-0.8,1.7-1.8V30C69,29.1,68.2,28.3,67.3,28.2z M65.4,35l-4.7,0.2
		c-0.8,0-1.4,0.6-1.6,1.3c-0.3,1.2-0.8,2.3-1.4,3.3c-0.4,0.7-0.3,1.5,0.2,2.1l3.1,3.5l-2.3,2.3l-3.5-3.1c-0.6-0.5-1.4-0.6-2.1-0.2
		c-1.1,0.6-2.2,1.1-3.3,1.4c-0.8,0.2-1.3,0.9-1.3,1.6l-0.2,4.7H45l-0.2-4.7c0-0.8-0.6-1.4-1.3-1.6c-1.2-0.3-2.3-0.8-3.3-1.4
		c-0.7-0.4-1.5-0.3-2.1,0.2l-3.5,3.1l-2.3-2.3l3.1-3.5c0.5-0.6,0.6-1.4,0.2-2.1c-0.6-1.1-1.1-2.2-1.4-3.3c-0.2-0.8-0.9-1.3-1.6-1.3
		L27.8,35v-3.3l4.7-0.2c0.8,0,1.4-0.6,1.6-1.3c0.3-1.1,0.8-2.3,1.4-3.3c0.4-0.7,0.3-1.5-0.2-2.1l-3.1-3.5l2.3-2.3l3.5,3.1
		c0.6,0.5,1.4,0.6,2.1,0.2c1-0.6,2.2-1.1,3.3-1.4c0.8-0.2,1.3-0.9,1.3-1.6l0.2-4.7h3.3l0.2,4.7c0,0.8,0.6,1.4,1.3,1.6
		c1.2,0.3,2.3,0.8,3.3,1.4c0.7,0.4,1.5,0.3,2.1-0.2l3.5-3.1l2.3,2.3l-3.1,3.5c-0.5,0.6-0.6,1.4-0.2,2.1c0.6,1,1.1,2.2,1.4,3.3
		c0.2,0.8,0.9,1.3,1.6,1.3l4.7,0.2V35z M46.6,24.5c-4.9,0-8.9,4-8.9,8.9s4,8.9,8.9,8.9c4.9,0,8.9-4,8.9-8.9S51.5,24.5,46.6,24.5z
		 M46.6,38.7c-2.9,0-5.3-2.4-5.3-5.3s2.4-5.3,5.3-5.3c2.9,0,5.3,2.4,5.3,5.3S49.5,38.7,46.6,38.7z M89,0H4.2C1.9,0,0,1.9,0,4.2v58.3
		c0,2.3,1.9,4.2,4.2,4.2h34.5l-0.7,7.5c0,0.4-0.5,4.3-7.8,4.3c-1,0-1.8,0.8-1.8,1.8c0,1,0.8,1.8,1.8,1.8h32.9c1,0,1.8-0.8,1.8-1.8
		c0-1-0.8-1.8-1.8-1.8c-7.3,0-7.8-3.9-7.8-4.4l-0.7-7.4H89c2.3,0,4.2-1.9,4.2-4.2V4.2C93.2,1.9,91.3,0,89,0z M39.7,78.5
		c1.7-2,1.8-4,1.8-4l0.7-7.8H51l0.7,7.7c0,0,0.1,2.1,1.8,4.1H39.7z M89.6,62.5c0,0.3-0.3,0.6-0.6,0.6H4.2c-0.3,0-0.6-0.3-0.6-0.6
		V4.2c0-0.3,0.3-0.6,0.6-0.6H89c0.3,0,0.6,0.3,0.6,0.6L89.6,62.5L89.6,62.5z"/>
</g>
</svg>
