<?xml version="1.0" encoding="utf-8"?>
<!-- Generator: Adobe Illustrator 21.0.0, SVG Export Plug-In . SVG Version: 6.00 Build 0)  -->
<svg version="1.1" id="Layer_1" xmlns="http://www.w3.org/2000/svg" xmlns:xlink="http://www.w3.org/1999/xlink" x="0px" y="0px"
	 viewBox="0 0 108 108" style="enable-background:new 0 0 108 108;" xml:space="preserve">
<style type="text/css">
	.st0{fill:#010101;}
	.st1{fill:none;}
</style>
<g transform="translate(0,-952.36218)">
	<path class="st0" d="M24,972c-6.6,0-12,5.4-12,12v42c0,6.6,5.4,12,12,12h64c6.6,0,12-5.4,12-12v-42c0-6.6-5.4-12-12-12H24z M24,976
		h64c4.5,0,8,3.5,8,8v42c0,4.5-3.5,8-8,8H24c-4.5,0-8-3.5-8-8v-42C16,979.6,19.5,976,24,976z M32,983c-1.1,0-2,0.9-2,2v5.3
		c-2.9,0.9-5,3.5-5,6.7s2.1,5.8,5,6.7v21.3c0,1.1,0.9,2,2,2c1.1,0,2-0.9,2-2v-21.3c2.9-0.9,5-3.5,5-6.7s-2.1-5.8-5-6.7V985
		C34,983.9,33.1,983,32,983z M56,983c-1.1,0-2,0.9-2,2v21.3c-2.9,0.9-5,3.5-5,6.7s2.1,5.8,5,6.7v5.3c0,1.1,0.9,2,2,2s2-0.9,2-2v-5.3
		c2.9-0.9,5-3.5,5-6.7s-2.1-5.8-5-6.7V985C58,983.9,57.1,983,56,983z M80,983c-1.1,0-2,0.9-2,2v10.3c-2.9,0.9-5,3.5-5,6.7
		s2.1,5.8,5,6.7v16.3c0,1.1,0.9,2,2,2s2-0.9,2-2v-16.3c2.9-0.9,5-3.5,5-6.7s-2.1-5.8-5-6.7V985C82,983.9,81.1,983,80,983z M32,994
		c1.7,0,3,1.3,3,3c0,1.7-1.3,3-3,3c-1.7,0-3-1.3-3-3C29,995.4,30.3,994,32,994z M80,999c1.7,0,3,1.3,3,3c0,1.7-1.3,3-3,3
		c-1.7,0-3-1.3-3-3C77,1000.4,78.3,999,80,999z M56,1010c1.7,0,3,1.3,3,3c0,1.7-1.3,3-3,3c-1.7,0-3-1.3-3-3
		C53,1011.4,54.3,1010,56,1010z"/>
</g>
<rect class="st1" width="108" height="108"/>
</svg>
