<?xml version="1.0" encoding="utf-8"?>
<!-- Generator: Adobe Illustrator 21.0.0, SVG Export Plug-In . SVG Version: 6.00 Build 0)  -->
<svg version="1.1" id="Layer_1" xmlns="http://www.w3.org/2000/svg" xmlns:xlink="http://www.w3.org/1999/xlink" x="0px" y="0px"
	 viewBox="0 0 79.4 79.4" style="enable-background:new 0 0 79.4 79.4;" xml:space="preserve">
<style type="text/css">
	.st0{fill:#F3F4F4;}
	.st1{fill:#C7C8CA;}
	.st2{fill:#010101;}
	.st3{fill:none;stroke:#000000;stroke-width:4.261;stroke-miterlimit:10;}
	.st4{fill:none;stroke:#000000;stroke-width:5;stroke-miterlimit:10;}
</style>
<g>
	<path class="st2" d="M73.2,79.4h-67c-3.4,0-6.2-2.8-6.2-6.2V31c0-3.4,2.8-6.2,6.2-6.2h67c3.4,0,6.2,2.8,6.2,6.2v42.2
		C79.4,76.6,76.6,79.4,73.2,79.4z M6.2,29.8C5.5,29.8,5,30.3,5,31v42.2c0,0.7,0.6,1.2,1.2,1.2h67c0.7,0,1.2-0.6,1.2-1.2V31
		c0-0.7-0.6-1.2-1.2-1.2L6.2,29.8z M59.6,47.2h-7.4c-1.4,0-2.5-1.1-2.5-2.5s1.1-2.5,2.5-2.5h7.4c1.4,0,2.5,1.1,2.5,2.5
		S60.9,47.2,59.6,47.2z M59.6,62.1h-7.4c-1.4,0-2.5-1.1-2.5-2.5c0-1.4,1.1-2.5,2.5-2.5h7.4c1.4,0,2.5,1.1,2.5,2.5
		C62.1,60.9,60.9,62.1,59.6,62.1z M62.1,54.6H49.6c-1.4,0-2.5-1.1-2.5-2.5c0-1.4,1.1-2.5,2.5-2.5h12.4c1.4,0,2.5,1.1,2.5,2.5
		C64.5,53.5,63.4,54.6,62.1,54.6z M5,30c-1,0-1.9-0.6-2.3-1.6c-0.5-1.3,0.1-2.7,1.4-3.2l64.5-25c1.3-0.5,2.7,0.1,3.2,1.4
		c0.5,1.3-0.1,2.7-1.4,3.2l-64.5,25C5.6,29.9,5.3,30,5,30z M27.3,64.5c-6.8,0-12.4-5.6-12.4-12.4s5.6-12.4,12.4-12.4
		s12.4,5.6,12.4,12.4S34.1,64.5,27.3,64.5z M27.3,44.7c-4.1,0-7.4,3.3-7.4,7.4s3.3,7.4,7.4,7.4s7.4-3.3,7.4-7.4S31.4,44.7,27.3,44.7
		z"/>
</g>
</svg>
