<?xml version="1.0" encoding="utf-8"?>
<!-- Generator: Adobe Illustrator 21.0.0, SVG Export Plug-In . SVG Version: 6.00 Build 0)  -->
<svg version="1.1" id="Layer_1" xmlns="http://www.w3.org/2000/svg" xmlns:xlink="http://www.w3.org/1999/xlink" x="0px" y="0px"
	 viewBox="0 0 62.3 74.7" style="enable-background:new 0 0 62.3 74.7;" xml:space="preserve">
<style type="text/css">
	.st0{fill:#F3F4F4;}
	.st1{fill:#C7C8CA;}
	.st2{fill:#010101;}
	.st3{fill:none;stroke:#000000;stroke-width:4.261;stroke-miterlimit:10;}
	.st4{fill:none;stroke:#000000;stroke-width:5;stroke-miterlimit:10;}
</style>
<g>
	<path class="st3" d="M53.1,72.5H9.2c-3.9,0-7.1-3.2-7.1-7.1V9.2c0-3.9,3.2-7.1,7.1-7.1h43.8c3.9,0,7.1,3.2,7.1,7.1v56.2
		C60.2,69.3,57,72.5,53.1,72.5z"/>
	<path class="st3" d="M31.2,59.2L31.2,59.2c-4.9,0-8.9-4-8.9-8.9V25.2c0-4.9,4-8.9,8.9-8.9h0c4.9,0,8.9,4,8.9,8.9v25.2
		C40,55.2,36,59.2,31.2,59.2z"/>
	<circle cx="31.2" cy="28.9" r="4.4"/>
</g>
</svg>
