<?xml version="1.0" encoding="utf-8"?>
<!-- Generator: Adobe Illustrator 21.0.0, SVG Export Plug-In . SVG Version: 6.00 Build 0)  -->
<svg version="1.1" id="Layer_1" xmlns="http://www.w3.org/2000/svg" xmlns:xlink="http://www.w3.org/1999/xlink" x="0px" y="0px"
	 viewBox="0 0 87.9 77.8" style="enable-background:new 0 0 87.9 77.8;" xml:space="preserve">
<style type="text/css">
	.st0{fill:#F3F4F4;}
	.st1{fill:#C7C8CA;}
	.st2{fill:#010101;}
	.st3{fill:none;stroke:#000000;stroke-width:4.261;stroke-miterlimit:10;}
	.st4{fill:none;stroke:#000000;stroke-width:5;stroke-miterlimit:10;}
</style>
<path class="st2" d="M41.4,17.7C31.2,17.7,23,26,23,36.1s8.2,18.4,18.4,18.4s18.4-8.2,18.4-18.4S51.5,17.7,41.4,17.7z M41.4,45.6
	c-5.2,0-9.5-4.2-9.5-9.5c0-5.2,4.2-9.5,9.5-9.5c5.2,0,9.5,4.2,9.5,9.5C50.8,41.3,46.6,45.6,41.4,45.6z"/>
<path class="st2" d="M20.6,0c1.1,1.3,2.2,2.5,3.3,3.8"/>
<path class="st2" d="M87.9,55.1L83,34L67.2,48.8l8.3,2.5c-0.1,0-0.2,0-0.3,0c-5.8,12.6-18.6,21.3-33.4,21.3C21.5,72.7,5,56.2,5,35.9
	c0-13.8,7.6-25.8,18.8-32.1c-1.1-1.3-2.2-2.6-3.3-3.8C8.3,7.3,0,20.7,0,36c0,23.1,18.7,41.8,41.8,41.8c17.1,0,31.9-10.3,38.3-25.1
	L87.9,55.1z"/>
</svg>
