<svg id="Layer_1" data-name="Layer 1" xmlns="http://www.w3.org/2000/svg" viewBox="0 0 180.41 15.05"><defs><style>.cls-1{fill:#f3efd0;}</style></defs><path class="cls-1" d="M16.71,5.93c-.52,0-3.45-.26-5.89-.39s-3.1-.26-3.1-.68.86-.63,3.08-.63a5.88,5.88,0,0,1,3,.53c.39.3.45.41.48.63H22a4.79,4.79,0,0,0-.87-1.92C20,1.85,17.08.17,11,.17,4.21.17,0,2.36,0,5.1,0,7.31,1.62,9.23,7.92,9.47c1.27.06,2.81.13,4.73.24,2.28.13,2.62.22,2.62.69S14.9,11,12,11c-3.4,0-3.86-.27-4.23-1.18H0a2.93,2.93,0,0,0,.38,1.29c1.28,2.11,4,3.92,10.9,3.92,7.41,0,11.43-1.63,11.43-5C22.71,7.61,21,6.2,16.71,5.93Z"/><path class="cls-1" d="M43.91,1.4a9.91,9.91,0,0,0-4.86-1H24.44V14.83h7V11.34h7.78a7.64,7.64,0,0,0,5.52-1.83,4.94,4.94,0,0,0,1.4-3.64A4.72,4.72,0,0,0,43.91,1.4ZM38.83,7.05a1.79,1.79,0,0,1-1.57.54H31.44v-3h5.82A2,2,0,0,1,38.75,5a1.57,1.57,0,0,1,.34,1.1A1.6,1.6,0,0,1,38.83,7.05Z"/><path class="cls-1" d="M82.63.41V4.76h7.2V14.83H97V4.76h7.2V.41Z"/><path class="cls-1" d="M121.22.41l-.74,1.46-2.64,5.18L114.77.41h-9.1V14.83h6.67V9.29l2.84,5.54h5.34l2.84-5.54v5.54H130V.41Z"/><path class="cls-1" d="M173.71.41v6.5L166.4.41h-7.18V14.83h6.7V7.92l7.72,6.91h6.77V.41Z"/><polygon class="cls-1" points="148.84 0.41 140.83 0.41 139.78 1.94 134.61 9.5 130.97 14.83 138.47 14.83 142.04 9.32 142.01 9.32 143.82 6.55 144.56 5.45 145.22 6.54 147.01 9.32 148.14 11.15 146.01 14.83 150.41 14.83 151.14 14.83 158.06 14.83 148.84 0.41"/><path class="cls-1" d="M79.94,3.05c-2-2.06-5.67-3-10.56-3H59.81c-4.89,0-8.56,1-10.56,3.05a6.15,6.15,0,0,0-1.68,4.47,6.35,6.35,0,0,0,1.66,4.54c2,2,5.59,3,10.58,3h9.57c5,0,8.6-.94,10.58-3a6.35,6.35,0,0,0,1.66-4.54A6.15,6.15,0,0,0,79.94,3.05ZM74.29,8.46c-.48,1-1.94,1.8-4.91,1.81H59.81c-3,0-4.43-.8-4.91-1.81a2.07,2.07,0,0,1-.18-.9A2,2,0,0,1,55,6.48c.55-.82,1.91-1.63,4.84-1.64h9.57c2.93,0,4.28.82,4.83,1.64a1.88,1.88,0,0,1,.26,1.08A2.07,2.07,0,0,1,74.29,8.46Z"/></svg>