<svg id="图层_1" data-name="图层 1" xmlns="http://www.w3.org/2000/svg" viewBox="0 0 316.86 26.43"><defs><style>.cls-1{fill:#0abab4;}</style></defs><path class="cls-1" d="M29.34,10.41c-.9-.07-6.06-.45-10.34-.69s-5.45-.45-5.45-1.19,1.53-1.1,5.42-1.1c2.59,0,4.51.38,5.22.94s.78.71.84,1.1H38.62A8.39,8.39,0,0,0,37.09,6.1C35.05,3.24,30,.29,19.36.29,7.39.29,0,4.15,0,9c0,3.89,2.83,7.27,13.89,7.69,2.24.1,4.93.23,8.3.42,4,.23,4.6.38,4.6,1.2s-.65,1.1-5.76,1.1c-6,0-6.78-.48-7.43-2.07H0a4.92,4.92,0,0,0,.68,2.26c2.24,3.7,6.94,6.88,19.13,6.88,13,0,20.08-2.86,20.08-8.85C39.89,13.36,36.87,10.89,29.34,10.41Z"/><path class="cls-1" d="M77.11,2.47C75,1.26,72.15.71,68.58.71H42.93V26H55.25V19.91H68.91c4.08,0,7.55-1,9.69-3.21a8.6,8.6,0,0,0,2.47-6.39C81.07,6.49,79.68,4,77.11,2.47Zm-8.92,9.92c-.52.75-1.52.93-2.76.93H55.22V8H65.43a3.46,3.46,0,0,1,2.63.77,2.72,2.72,0,0,1,.59,1.92A2.8,2.8,0,0,1,68.19,12.39Z"/><path class="cls-1" d="M145.12.71V8.37h12.65V26h12.62V8.37H183V.71Z"/><path class="cls-1" d="M212.9.71l-1.31,2.57L207,12.39,201.58.71h-16V26h11.7V16.31l5,9.73h9.38l5-9.73V26h11.71V.71Z"/><path class="cls-1" d="M305.09.71V12.13L292.24.71H279.63V26H291.4V13.91L305,26h11.9V.71Z"/><polygon class="cls-1" points="261.41 0.71 247.34 0.71 245.49 3.41 236.42 16.68 230.01 26.04 243.19 26.04 249.47 16.37 249.41 16.37 252.59 11.51 253.89 9.57 255.06 11.48 258.2 16.37 260.18 19.58 256.44 26.04 264.17 26.04 265.45 26.04 277.6 26.04 261.41 0.71"/><path class="cls-1" d="M140.4,5.35c-3.51-3.6-10-5.35-18.55-5.35H105C96.45,0,90,1.75,86.49,5.35a10.87,10.87,0,0,0-2.95,7.86,11.18,11.18,0,0,0,2.92,8c3.48,3.6,9.83,5.25,18.58,5.25h16.81c8.75,0,15.11-1.65,18.58-5.25a11.18,11.18,0,0,0,2.92-8A10.87,10.87,0,0,0,140.4,5.35Zm-9.93,9.5c-.84,1.78-3.41,3.17-8.62,3.18H105c-5.21,0-7.78-1.4-8.62-3.18a3.6,3.6,0,0,1-.32-1.58,3.4,3.4,0,0,1,.45-1.89c1-1.45,3.35-2.87,8.49-2.89h16.81c5.15,0,7.53,1.44,8.49,2.89a3.32,3.32,0,0,1,.45,1.89A3.6,3.6,0,0,1,130.47,14.85Z"/></svg>