<svg id="Layer_1" data-name="Layer 1" xmlns="http://www.w3.org/2000/svg" viewBox="0 0 25.62 27.62"><defs><style>.cls-1{fill:#0575a8;}</style></defs><title>thumbsArtboard 3</title><path class="cls-1" d="M8.11,13.3a4.4,4.4,0,0,0,3.27-2.69l2.35-5.14a7,7,0,0,0,.59-2.07l.25-1.7,0,0a2,2,0,0,1,1.4.94,4,4,0,0,1,0,3.16,9.44,9.44,0,0,0-.58,4.61,1.46,1.46,0,0,0,1.44,1.18,22.94,22.94,0,0,1,5.51.47h0a1.36,1.36,0,0,1,.6.27l.11.09a1.56,1.56,0,0,1,.19,2,.88.88,0,0,0,.14,1.08A2,2,0,0,1,24,16.67a2.34,2.34,0,0,1-.73,1.64.86.86,0,0,0-.1,1,2.16,2.16,0,0,1-.79,2.82.89.89,0,0,0-.28,1,2,2,0,0,1-1.35,2.46,4.19,4.19,0,0,1-1.78.35H12.1a4.38,4.38,0,0,1-2.33-.67L7.94,24.1V13.33ZM1.62,11.21h4.7V25.94H1.62Zm0-1.68A1.65,1.65,0,0,0,0,11.21V25.94a1.65,1.65,0,0,0,1.62,1.68h4.7a1.65,1.65,0,0,0,1.62-1.56l1,.62a5.92,5.92,0,0,0,3.16.91H19a5.76,5.76,0,0,0,2.41-.5,3.68,3.68,0,0,0,2.37-4A3.79,3.79,0,0,0,24.8,19a3.72,3.72,0,0,0,.81-2.43A3.54,3.54,0,0,0,25,14.68a3.18,3.18,0,0,0-.74-3.53L24,11a3.11,3.11,0,0,0-1.25-.58h0A23.64,23.64,0,0,0,17,9.89a8.28,8.28,0,0,1,.56-3.59,5.47,5.47,0,0,0-.15-4.57A3.66,3.66,0,0,0,14.78,0h-.1A1.74,1.74,0,0,0,13,1.26a.5.5,0,0,0,0,.12L12.74,3.2a5.43,5.43,0,0,1-.45,1.57L9.92,9.93a2.79,2.79,0,0,1-2,1.68v-.4A1.65,1.65,0,0,0,6.32,9.53Z"/></svg>